<svg xmlns="http://www.w3.org/2000/svg" viewBox="0 0 612 792"><defs><style>.cls-1{fill:#7d7c7c;}.cls-2{fill:#fff;}.cls-3{fill:#a71e5d;}.cls-4{fill:none;}</style></defs><g id="Diseño"><rect class="cls-1" width="612" height="792"/></g><g id="Layer_3" data-name="Layer 3"><path class="cls-2" d="M373.54,607.73a83,83,0,0,1-134-1.07c-5.31-.45-10.63-1-15.94-1.57a95.66,95.66,0,0,0,165.93,1.3C384.21,606.81,378.88,607.29,373.54,607.73Z"/><path class="cls-2" d="M296.46,612.89a2.07,2.07,0,0,0-1.77-1.72,55.11,55.11,0,0,1-10.37-3.54q-5.91-.32-11.81-.85-5.08.56-10.19.7a19.23,19.23,0,0,0-3.21,10.43,27,27,0,0,0,.41,3.5,3.51,3.51,0,0,0,1.19,1.92,79.23,79.23,0,0,0,24.05,11.58,3.56,3.56,0,0,0,2.42-.26A19,19,0,0,0,296.46,612.89ZM286.51,629a7.21,7.21,0,0,1-8.58-.25c7.32-3.87,10.18-9.9,8.68-18a7,7,0,0,1,5.47,5.92A12.44,12.44,0,0,1,286.51,629Z"/><path class="cls-2" d="M347.14,609.11h-.34a12.41,12.41,0,0,1,2.65,10.11c-.6,2.95-2.79,5.22-5.38,5.49,1.28-7-.7-12.49-6.21-16.34a101.3,101.3,0,0,1-11.8.74,52.63,52.63,0,0,1-5.07,1.64c-3.49.93-3.78,1.28-4.06,5-.06.75-.07,1.5-.11,2.25.2,7.28,3.35,12.82,9.62,16.58a3.48,3.48,0,0,0,3,.35A83.67,83.67,0,0,0,353,623.56a3.53,3.53,0,0,0,1.6-2.58,19.06,19.06,0,0,0-2.09-12C350.71,609.06,348.93,609.1,347.14,609.11Z"/><path class="cls-2" d="M316.46,625.44a56.22,56.22,0,0,1-1.63-6.06H298.94A21.82,21.82,0,0,1,294.35,631c5.13,1.62,20.27,1.62,25,.07A52.79,52.79,0,0,1,316.46,625.44ZM307,628.68a2.93,2.93,0,0,1-2.9-2.85,3,3,0,0,1,3-3,3,3,0,0,1,2.78,3A2.84,2.84,0,0,1,307,628.68Z"/><path class="cls-2" d="M176.67,519.79c-1,3.37-3.2,3.09-7.7,1.26l6-3-5.73-11.59c-3.05,2.31-5.59,4.22-8.12,6.15l-.36-.86-14.6,5.75-9.92.69v8.42l6.25,1.76,17.9-2.11c1.32,3.39,1.31,6.23-1.55,6.94l-9.69-.47-.1-.1-9.36-.59-3.58-3.36c-3,2.2-5.32,4.77-8.2,5.79a11.75,11.75,0,0,1-8.24-.4c-2.69-1.28-2.69-4.35-1-7.07a8.73,8.73,0,0,0,.54-2.45c-5-.45-6.51,2.53-6.8,6.28-.4,5.26,2.43,8,10.85,10.19l13.39-8.5c.09,1.67.21,3.57.3,5.1,6.87,5.6,15.26,1.6,22,4.63q.33,1.2.6,2.31a1.14,1.14,0,0,1,.85,0h.34a1.18,1.18,0,0,1,.68-.06c.31.06.46.07.75.14h.09l.25.08.12-.06a1.17,1.17,0,0,1,.62-.11l.46,0,.38-.14h.13l.47-.13c.23-.14.35-.2.58-.35a1.66,1.66,0,0,1,.54-.12l.58.16a1.28,1.28,0,0,1,.43-.12l.49-.2a1,1,0,0,1,.84.05l.59.24a2.55,2.55,0,0,0,.56,0l.3.11c.13,0,.18-.09.29-.14a.93.93,0,0,1,.45-.15,1.24,1.24,0,0,1,.53.06,2.09,2.09,0,0,1,.34.08l.23-.2a1.43,1.43,0,0,1,.23-.2l-5.77-2.85,10.08-6.25v9.14c.9.46,1.45,1.51,1.66,3.16,0,.12,0,.31,0,.58,0,.09,0,.12.07.22a8.39,8.39,0,0,1,.24,1.07c.09.57.14.85.22,1.43a6.49,6.49,0,0,1,0,1.65,1.53,1.53,0,0,0,.07.29c0,.19.08.38.1.57a4.79,4.79,0,0,1-.25,2.51,1.63,1.63,0,0,1-1.25,1.12,4.57,4.57,0,0,1-.35,2.37,2.19,2.19,0,0,1-.28.42v.27l-.18-.11a1,1,0,0,1-.84.23,5.2,5.2,0,0,1-.23,1.43,1.56,1.56,0,0,1-.94,1,.3.3,0,0,1,0,.11c.07.17.1.29.15.42l1.65-1.06c0,.58-.07,1.11-.1,1.62a1.22,1.22,0,0,1,1,0l.3.11h.23a1.49,1.49,0,0,1,1.63.66c.29-4.29.57-8.57.81-12.86.05-.74.08-1.47.11-2.21.06-1.45.1-2.9.11-4.35A77.62,77.62,0,0,0,176.67,519.79Zm-21.09,1.42c.06-1,.12-2,.17-2.89l6.18,1.31Zm4.89,4.88c0-.5,0-1,0-1.5l3,1.48ZM169,510.23l.59,1.09-2.56,1.54-.51-1.66Zm-5.16,27.06c1.91-3.62,2.56-7.23.13-10.87C170,530.74,169.92,533.21,163.88,537.29Zm7.6-9.11,4.4-3.09c.18,2.15.29,3.5.49,5.93Zm-22.33,67.41-1.94-1c.95,7.88-2,15.83,2.23,23.39l13.45,1.81c.36-3.16.62-5.4.87-7.53l-6.64-4.77V596.72a.54.54,0,0,1-.36,0l-.64-.06-.61-.08a5.4,5.4,0,0,1-.8-.21,2.48,2.48,0,0,0-.45-.12l-.54-.06-.3,0c-.19-.07-.3-.09-.49-.15l-.15,0c-.12.05-.19.1-.31.14a.9.9,0,0,1-.32.09l4.56,3.08-7.24,5.92v-9.59a1.49,1.49,0,0,1-.24-.14s0,0,0,0l-.18,0m.83,18.52c-.14-2.54-.21-4-.35-6.37l4.37,2.91C152.52,611.83,151.55,612.66,149.87,614.12Zm10.52,1-.15-.58.66-.17c0,.19.1.37.16.56Zm16.17-19.79a.49.49,0,0,0,0-.12m4.56,16.08-12.81-6.91,3.33-3.13,3.62,3.09c.35-2.21.78-4.12,1-6l-.69.22-.63.11a1.14,1.14,0,0,1-.8-.16.36.36,0,0,0-.14-.09l-.12,0a1,1,0,0,1-.92-.09c-.17-.07-.26-.12-.42-.2a.72.72,0,0,1-.21,0l-.45.13-.26.07H171l-.41,0-.28,0c-.17,0-.25,0-.4,0a1.53,1.53,0,0,1-1.07-.42,1.06,1.06,0,0,1-1-.1.08.08,0,0,1-.07,0l-.11.08a.94.94,0,0,1-.78.15l-.72-.25a1.8,1.8,0,0,1-.59-.36l-.45-.34a.91.91,0,0,1-.08-.13l-.12.14c.58,7.4-1,14.5,2.51,20.73,9.54,1.91,11.52,1.85,14.06-.8C181.41,615.28,181.26,613.24,181.13,611.31Zm-3.16,3.8c-.07,0-.11-.33-.17-.51l.63-.17c.06.18.11.36.17.53A1.65,1.65,0,0,1,178,615.11Zm-29.34-37.5a4.46,4.46,0,0,1-1-1.5l-.41-.11a2.75,2.75,0,0,1-1.35-1.11,4.8,4.8,0,0,1-.82-2c-.05-.17-.06-.26-.1-.44s-.12-.48-.22-.78c0-.14-.08-.27-.11-.39a3.9,3.9,0,0,1-.07-.66c0-.17,0-.26,0-.43s-.08-.22-.13-.34a3.61,3.61,0,0,1-.25-.85,3.65,3.65,0,0,1,.16-2.28,1.28,1.28,0,0,1,1.32-.88l.21,0a2.62,2.62,0,0,1,.42-1.17l.14-.18a1.11,1.11,0,0,1,0-.17h.12a1.28,1.28,0,0,1,1.8-.36,1.14,1.14,0,0,1,.66-.13c-.18-.48-.27-.74-.28-.77a.47.47,0,0,0-.14,0l-.28,0a2.52,2.52,0,0,1-.68,0l-.66,0-.77,0a2.09,2.09,0,0,1-1.91-1.23c-6-.26-12.07-1.11-18.11-1.69a.13.13,0,0,1,0,.06c-8-3.83-16.35-3.72-24.77-2.22-1.85-9-1-27.92,1.42-34.69,2.84-7.85,8-10.81,16.05-9.19,3.39,2.46,1.4,11.65,11,7.56-.15-2.63-.31-5.59-.48-8.54l.1,0q-1.51-2.59-3-5.21c-.22.23-.44.46-.67.68-.82,1.49-1.64,3-2.56,4.62-4.78-2.51-3.32-5.23.23-8.84l-8.62.63L115,505l-6.5,1.72-.11-.12c2.22,4.44,2,5-3.18,6.48,0-1.58,0-3.17,0-4.76l0,0c-6.55,2.3-8.26,8.12-9.76,13.88-3.06,11.69-1.81,23.57-1,35.42.24,3.76.4,7.53.31,11.29-.23,10.22-1.1,20.46-.76,30.66.2,6,2.21,12,3.46,18.3,4.2.6,7.63,1.19,11.07,1.49.49,0,1.11-1.37,1.68-2.1h0c4.76-5.93-2.83-6.36-4.86-10.49,1.85-8.06,3.09-17.15,9.77-24.71h6.15c-3.84,1.08-7.87,2.39-8,6.91-.26,7.92-1,16,3.4,23.35l0,0c.21,1.77.42,3.52.68,5.69,3.88.53,7.3,1.11,10.73,1.37.51,0,1.14-1.35,1.71-2.07l0,0c4.5-5.86-3-6.39-5-11,1-4.22,2.29-9.61,3.78-14.94.64-2.26,1.78-4.39-.14-6.44l17.74,5.84-.19-.56a5.91,5.91,0,0,1-.19-.69,2.69,2.69,0,0,1-.07-.57,1.94,1.94,0,0,0,0-.34c-.11-.3-.14-.45-.24-.75a3.52,3.52,0,0,1-.15-.58,3.34,3.34,0,0,1,.16-2.22,1.15,1.15,0,0,1,1.32-.72h.05a2.39,2.39,0,0,1,.61-2.15l.36-.28a.51.51,0,0,1,.17,0,3.75,3.75,0,0,1,.14-1.37,1.27,1.27,0,0,1,1.29-1,1,1,0,0,1,.36.06l-.29-1.24Zm-19.22-64.42c-.75,2.1-1.51,4.2-2.36,6.57l-3.48-1.15C124,514.77,126.66,513.94,129.41,513.19Zm-14.52-8.12,3.84,2.91-6,2.6-1.22-1.4ZM105,513.19l-2.73,5.7C100.27,515,101.68,513.4,105,513.19Zm4.31,102.06.57,1.85-1.76-.94Zm-3,.23L106,616l-.17-.63Zm19.5-.2-.36.62-.19-.71ZM97.77,522.22l1.53-.05c.09,1.57.17,3.13.25,4.69l-2.1,0C97.56,525.35,97.67,523.78,97.77,522.22Zm-1,9.48,1.35.19c-.15,1-.31,2.07-.46,3.11l-1.32-.2C96.51,533.77,96.66,532.73,96.8,531.7Zm.75,8.33-1.15.11a2.83,2.83,0,0,1,0-.29l1.15-.07A2.29,2.29,0,0,1,97.55,540Zm-.64,4.87.9,1a8.33,8.33,0,0,1-1.24.6c-.09,0-.5-.45-.45-.55A8.06,8.06,0,0,1,96.91,544.9Zm2.83,68.8c-.79-2-1.38-3.46-2-4.93.45-.33.9-.65,1.34-1l4.31,2.72Zm-2.07-7.82c-.71-4.27-1.19-7.18-1.67-10.1l1.54-1.23,7.89,4.19ZM95.81,592V580c3.34,2.11,5.86,3.71,9.76,6.16Zm14.73-22.09-7-1.43c.79,1.92,1.58,3.84,2.69,6.49l-9.29,3c-.61-1.4-1.07-1.92-1-2.33.57-2.59,1.26-5.14,1.93-7.79l4-1.07c-.23-1.28-.46-2.55-.85-4.68l10.48-3.94C111.11,562.86,110.84,566.06,110.54,569.86Zm6,42.39.78-4.53,3.81,2.21C120.49,613.5,118.77,613.53,116.56,612.25Zm-.56-6.67V593.76l8,5.19C121.17,601.27,119.3,602.84,116,605.58Zm2.32-34.18-5-11.08h12.84C125.06,566.22,125,566.26,118.32,571.4Zm17.23,3.33c-4.26-3.16-5.29-6.93-6.08-12.52L143,565Z"/><path class="cls-2" d="M449.59,559.06l-.45.39.33.44a.61.61,0,0,1,.07.1c0-.21,0-.41.08-.69s.1-.26.14-.38Zm.89-12.68-.29,0,.06,0,.23.23a1.93,1.93,0,0,0,.38-.18l.07,0Zm4.73,29h-.66v0h.52l.74-.07.14,0C455.65,575.36,455.51,575.38,455.21,575.42Zm3.39-.06c-.24,0-.37,0-.62,0l-.76-.16c-.26,0-.4,0-.66,0l-.15,0h.67l.76.15h.62l.5,0,.13,0Zm.88-.09h.08l0,0Zm-12.55,23.94-.24,0A.84.84,0,0,1,446,599a2,2,0,0,1-.29.19l-1.29.29-.34,0-.56-.11a1,1,0,0,1-.3-.2,1.08,1.08,0,0,0-.19.08,1.07,1.07,0,0,1-.83.08,2.57,2.57,0,0,0-.38-.08,1.72,1.72,0,0,0-.29,0l-.61.16a2.9,2.9,0,0,1-.52,0l-.24,0-.2.07a1.53,1.53,0,0,1-.62.23h-1.25c-.54,0-.94-.28-1.21-1a5,5,0,0,1-.21-2.61,8,8,0,0,1,.21-.83,5.64,5.64,0,0,1,0-.93,1,1,0,0,1,0-.17l.2-1.46-.28,0s0,0,0,0a2.81,2.81,0,0,0,0,.29.08.08,0,0,1,0,.07c0,.27,0,.41,0,.69s0,.33,0,.49l-.06.49c-.09.63-.14.94-.24,1.57a6.56,6.56,0,0,1-.8,2.36c.24,1.75.62,3.55,1,5.61l3.62-3.09,3.33,3.13-12.81,6.91c-.13,1.93-.28,4-.4,5.56,2.54,2.65,4.52,2.71,14.06.8C447.72,612.09,446.74,605.79,446.93,599.21ZM434,615.11a1.65,1.65,0,0,1-.63-.15c.06-.17.11-.35.17-.53l.63.17C434.14,614.78,434.1,615.1,434,615.11Zm5.22-22.34a4.79,4.79,0,0,1-.08.5l.13,0c0-.17.06-.33.09-.54Zm4.75,2.67-.13,0c.16.16.26.25.45.42l.1-.07Zm1.05,0-.06.06h0l.51.26.12,0C445.39,595.64,445.27,595.59,445.05,595.46Zm1.24.08-.1,0,.49.1.07,0Zm8.59-.61V595h.05l.06,0Zm1.51-.21-.65-.15-.08,0,.6.14.68,0,.07,0Zm.51-8.79a4,4,0,0,0-.52.15h.05a4.69,4.69,0,0,1,.58-.17Zm1.44,8.55-.61-.14a.15.15,0,0,0-.06,0l.53.11.64.13.11,0Zm1.77-11.26-.4,1.62c-.07.35-.1.55-.15.88h.13c.06-.36.09-.55.16-.92.16-.62.24-.95.39-1.58Zm.91,10.83c-.26,0-.39,0-.64.05l-.06,0,.56,0,.48,0,.09,0C461.29,594.08,461.21,594.06,461,594.05Zm.39-11-.51.19h0c.22-.09.34-.13.55-.2Zm1.27,11-.57-.13a.66.66,0,0,0-.15,0l.58.12c.27.06.4.08.68.12l.09,0Zm.9-10.92-.6.22h0l.66-.24Zm.63,2.34-.32.13v0l.36-.13Zm.47,8.21-.11,0,.3.21s0-.08,0-.11Zm1-5.44-.47.15v0l.53-.18Zm-1.07,8.89a.93.93,0,0,1-.42-.09h-.29l-.77.09-.2,0a3.22,3.22,0,0,1-.39.25v7.87l-7.24-5.92,1.87-1.26a1,1,0,0,1-.68,0l-.35-.13-.17,0c-.18.11-.28.15-.44.26a1.52,1.52,0,0,1-.64.18v9.08l-6.64,4.77c.25,2.13.51,4.37.87,7.53l13.45-1.81C466.31,611.21,464.4,604.17,464.6,597.16Zm-13,18-.67-.19c.06-.19.11-.37.16-.56l.66.17Zm10.52-1c-1.68-1.46-2.65-2.29-4-3.46l4.37-2.91C462.34,610.11,462.27,611.58,462.13,614.12Zm55.56-56.59c.76-11.85,2-23.73-1.05-35.42-1.5-5.76-3.21-11.58-9.76-13.88l0,0c0,1.59,0,3.18,0,4.76-5.16-1.51-5.4-2-3.18-6.48l-.11.12L497,505l.06.08-8.62-.63c3.55,3.61,5,6.33.23,8.84-.92-1.66-1.74-3.13-2.56-4.62-.23-.22-.45-.45-.67-.68q-1.5,2.61-3,5.21l.1,0c-.17,3-.33,5.91-.48,8.54,9.65,4.09,7.66-5.1,11.05-7.56,8-1.62,13.21,1.34,16,9.19,2.44,6.77,3.27,25.66,1.42,34.69-8.42-1.5-16.81-1.61-24.77,2.22a.13.13,0,0,1,0-.06c-5.52.53-11,1.28-16.55,1.6-.63.05-1.27.08-1.9.11a45,45,0,0,1-5,0h0a25.72,25.72,0,0,1-3.61-.48c-.06.31-.11.54-.2.91s-.13.66-.18.87a2.68,2.68,0,0,0,.4,0h.37l.73,0s.05.08.07.23l.06-.06a1.66,1.66,0,0,1,1-.29l.73,0a1,1,0,0,1,.52.18c.21.14.33.2.55.34a1.51,1.51,0,0,1,.66.79l2.08-.13a13.81,13.81,0,0,1-.06,4.09c0,.35,0,.55-.07.91,0,.13-.05.27-.08.42a5.93,5.93,0,0,1-.4,1.39v.22a4.7,4.7,0,0,1-.08.79c0,.25-.1.48-.15.68-.12.39-.18.58-.29,1-.5,1.6-1.25,2.49-2.23,2.7-.15,0-.22,0-.37,0a3.93,3.93,0,0,1-1.29,1.91c-.14.09-.21.14-.36.22a16.1,16.1,0,0,0-2,.38c-.19,0-.29,0-.46,0a.4.4,0,0,1-.24,0,2.7,2.7,0,0,0-.36-.09l-.61.06-.66.07h-.17v.07c-.06.3-.09.46-.16.76-.1.74-.17,1.31-.21,1.68,0,0,0,0,0,0a5.77,5.77,0,0,1,.32.84,1.2,1.2,0,0,1,.76.27l.12.1h.06l.46-.17c.14,0,.27-.08.42-.14h.38l.57-.18h.09c.65-1.69,1.44-2.42,2.39-2.23l.15,0,0,0a1.83,1.83,0,0,1,1-.26l.62,0h.76l.59,0,.46,0,.55.2c.72.19,1.1.88,1.12,2.05,0,.29,0,.44,0,.48s.23.12.4.19c.64.31.94,1.11.89,2.39.54-.07.95.21,1.23.85a4.09,4.09,0,0,1,.18,2.33c-.05.25-.06.37-.12.62s-.08.56-.14.93v0l15.13-5c-1.92,2.05-.78,4.18-.14,6.44,1.49,5.33,2.73,10.72,3.78,14.94-2,4.58-9.51,5.11-5,11l0,0c.57.72,1.2,2.11,1.71,2.07,3.43-.26,6.85-.84,10.73-1.37.26-2.17.47-3.92.68-5.69l0,0c4.35-7.31,3.66-15.43,3.4-23.35-.15-4.52-4.18-5.83-8-6.91h6.15c6.68,7.56,7.92,16.65,9.77,24.71-2,4.13-9.62,4.56-4.86,10.49h0c.57.73,1.19,2.13,1.68,2.1,3.44-.3,6.87-.89,11.07-1.49,1.25-6.28,3.26-12.27,3.46-18.3.34-10.2-.53-20.44-.76-30.66C517.29,565.06,517.45,561.29,517.69,557.53ZM485,519.76c-.85-2.37-1.61-4.47-2.36-6.57,2.75.75,5.43,1.58,5.84,5.42Zm14.29-9.18-6-2.6,3.84-2.91,3.35,4.11Zm10.45,8.31-2.73-5.7C510.32,513.4,511.73,515,509.69,518.89Zm-33.24,55.84L469,565l13.56-2.83C481.74,567.8,480.71,571.57,476.45,574.73ZM486.5,615.9l-.36-.62.55-.09Zm15.58,1.2.57-1.85,1.19.91ZM506,616l-.33-.55.5-.08Zm9.12-71.12a6.71,6.71,0,0,1,.79,1.07c0,.09-.36.58-.45.55a8.33,8.33,0,0,1-1.24-.6Zm-.64-4.87c0-.09,0-.18,0-.26l1.15.07c0,.09,0,.19,0,.29Zm1.18-5.24-1.31.2c-.16-1-.32-2.07-.47-3.11l1.35-.19C515.34,532.73,515.48,533.77,515.63,534.8Zm-2.93-12.63,1.52.05.33,4.7-2.1-.06C512.53,525.3,512.61,523.73,512.7,522.17Zm-21.85,87.76,3.81-2.21.78,4.53C493.23,613.53,491.51,613.5,490.85,609.93ZM496,593.76v11.82c-3.3-2.74-5.17-4.31-7.95-6.63Zm-2.32-22.36c-6.69-5.14-6.74-5.18-7.87-11.08h12.84Zm7.78-1.54c-.3-3.8-.57-7-.95-11.72L511,562.08c-.39,2.13-.62,3.4-.85,4.68l4,1.07c.67,2.65,1.36,5.2,1.93,7.79.09.41-.37.93-1,2.33l-9.29-3c1.11-2.65,1.9-4.57,2.69-6.49Zm10.79,43.84-3.67-3.21,4.31-2.71,1.35,1C513.64,610.24,513.05,611.71,512.25,613.7Zm2.08-7.82-7.76-7.14,7.89-4.19,1.54,1.23C515.52,598.7,515,601.61,514.33,605.88ZM516.19,592l-9.76-5.79c3.9-2.45,6.42-4,9.76-6.16ZM452,543h0Zm47.59-12.24c-.29-3.75-1.78-6.73-6.8-6.28a8.73,8.73,0,0,0,.54,2.45c1.65,2.72,1.65,5.79-1,7.07a11.75,11.75,0,0,1-8.24.4c-2.88-1-5.22-3.59-8.2-5.79L472.31,532l-9.36.59-.1.1-9.69.47c-2.86-.71-2.87-3.55-1.55-6.94l17.9,2.11,6.25-1.76v-8.42l-9.92-.69-14.6-5.75-.36.86c-2.53-1.93-5.07-3.84-8.12-6.15L437,518l6,3c-4.5,1.83-6.71,2.11-7.7-1.26a75.5,75.5,0,0,0-3.28,21.8,1.73,1.73,0,0,1,.58-.41l.13,0a1.26,1.26,0,0,1,.91.23,1.17,1.17,0,0,1,1.65.52h.05a.9.9,0,0,1,.46,0,1.42,1.42,0,0,0,.25.12V534.4l10.08,6.25-3.67,1.82a3.31,3.31,0,0,1,.89,2.67c0,.34,0,.51,0,.83a2.17,2.17,0,0,1,0,.26l.12,0c.1-.33.17-.6.28-1a4.09,4.09,0,0,1,.28-.81c0-.14.07-.2.1-.34.59-1.28,1.29-1.88,2.14-1.8a1.44,1.44,0,0,1,.81.35l.1,0,.28-.13.72-.08a1.46,1.46,0,0,1,.89.31,1,1,0,0,1,1,.17,1.44,1.44,0,0,1,.88-.21,5.78,5.78,0,0,1,.57.12.65.65,0,0,1,.46.24,1.21,1.21,0,0,1,.92-.24l.15-.58c6.72-3,15.11,1,22-4.63.09-1.53.21-3.43.3-5.1l13.39,8.5C497.2,538.79,500,536.05,499.63,530.79Zm-64,.23c.2-2.43.31-3.78.49-5.93l4.4,3.09Zm6.74-19.7.59-1.09,2.48,1-.51,1.66Zm5.62,15.1c-2.43,3.64-1.78,7.25.13,10.87C442.08,533.21,442.05,530.74,448,526.42Zm8.26-8.1c.05.9.11,1.9.17,2.89l-6.35-1.58Zm-7.71,7.75,3-1.48c0,.5,0,1,0,1.5Zm-7.82,19.48-.12.05,0,0-.69.31-.56-.26-.62-.23H438l-.1,0h0l-.71.26h0c-.24,0-.36,0-.61-.05l-.25-.1-.1,0-.08,0v-.17l-.25-.11-.12,0h0l-.62.24-.59,0-.49-.63-.14,0-.26,0h-.06l-.15,0h-.05l-.14,0-.35.15c0-.15,0-.22,0-.38l-.11.23,0-.21c-.21.43-.34.68-.53,1h.13a28.33,28.33,0,0,1,3.55.52,22.27,22.27,0,0,0,5.22.15h.14c0-.26,0-.41.06-.7Z"/><path class="cls-2" d="M306.78,511.15a50.73,50.73,0,0,0-42.43,23c5-.33,10-.54,15.11-.56A39.2,39.2,0,0,1,307,522.46a39.7,39.7,0,0,1,29.87,13.7c4.72.41,9.57.28,14.18.42A50.74,50.74,0,0,0,306.78,511.15Z"/><path class="cls-2" d="M322.37,484.6a3.68,3.68,0,0,0-2.18-1.36c-4.36-.54-8.74-.92-13.18-1.35-4.4.43-8.83.83-13.24,1.36a3.4,3.4,0,0,0-2.1,1.21A18.79,18.79,0,0,0,293,508.4a2.17,2.17,0,0,0,1.72.58,56.37,56.37,0,0,1,24.56,0,2.22,2.22,0,0,0,1.75-.53A18.9,18.9,0,0,0,322.37,484.6Zm-19.86,21.29a6.69,6.69,0,0,1-6.66-2c-4.16-4.19-4.05-12.09.21-16.18a6.62,6.62,0,0,1,6.45-1.82C297.61,492.54,297.57,499.16,302.51,505.89Z"/><path class="cls-2" d="M377,523.5a79.42,79.42,0,0,0-16.66-20.92,3.57,3.57,0,0,0-2.28-.81,18.88,18.88,0,0,0-17.88,15.47,2.38,2.38,0,0,0,1.07,2.58,51.35,51.35,0,0,1,13.86,16.93l10.48.54,1.09.05h0l.53,0,.55,0,.21-.11a18.51,18.51,0,0,0,9.27-11.85A2.89,2.89,0,0,0,377,523.5Zm-28.85.06c-2.41-1.82-2.86-4.15-2.56-6.75.7-5.88,7.73-10.84,13.48-9.5a6.48,6.48,0,0,1,4.73,3.77C355.47,511.46,350.3,515.52,348.15,523.56Z"/><path class="cls-2" d="M273.71,516.94A19.3,19.3,0,0,0,258,501.86a6,6,0,0,0-5.63,1.72A86.09,86.09,0,0,0,237,523.35a3.32,3.32,0,0,0-.31,2.23A18.55,18.55,0,0,0,243.82,536c5.4-.55,10.79-1.08,16.2-1.5a52.63,52.63,0,0,1,12.64-14.66A2.61,2.61,0,0,0,273.71,516.94Zm-17.1,17c-4.12,1.6-9.56-.37-12.55-4.55-1.69-2.35-2.7-4.94-1.82-7.85a21.42,21.42,0,0,1,1.88-3.53l.55.22c2.12,7.83,7.29,11.86,15.53,12.28A5.77,5.77,0,0,1,256.61,534Z"/><path class="cls-2" d="M286.32,497.28c-.19-2.1,0-4.24,0-6.41a73.39,73.39,0,0,0-22.47,10.91,22.31,22.31,0,0,1,9.29,8.58l14.33-6.92C287.07,501.47,286.53,499.39,286.32,497.28ZM277.59,504a3,3,0,0,1-2.88-2.84,2.84,2.84,0,0,1,2.88-3,3,3,0,0,1,2.92,2.79A3,3,0,0,1,277.59,504Z"/><path class="cls-2" d="M327.18,490.76a21.55,21.55,0,0,1-.88,12.59l14.52,7a22,22,0,0,1,9.3-8.59A73.12,73.12,0,0,0,327.18,490.76Zm9.2,13.27a3,3,0,0,1-3-2.95,2.92,2.92,0,0,1,2.85-2.85,2.82,2.82,0,0,1,2.93,2.74A2.93,2.93,0,0,1,336.38,504Z"/><path class="cls-2" d="M399.48,537.68a74.63,74.63,0,0,1-10.58.55h-.18c-.57,0-1.16,0-1.73,0h-.47a83.07,83.07,0,0,0-158.92-.57l-4.36.38-9.09.8a95.68,95.68,0,0,1,185.33-1.13Z"/><path class="cls-3" d="M219.24,548.91c0-.49-.07-.74-.11-1.23s.07-.9.11-1.51c-.16-.49-.23-.73-.39-1.23s0-.55,0-.93l.12-.13-.61-.15-.64,0-.74-.15-.75.43a6.58,6.58,0,0,0-.67-.15c-.28,0-.43,0-.71,0l-.58,0-.65,0-.53,0c-.23.1-.34.15-.59.24l-.44.19h-.17l-.63.86-.41.33c-.06.43-.1.66-.18,1.07-.28-.57-.42-.86-.69-1.46l-.34-.53c-.16-.24-.23-.37-.38-.6l-.6.51h-.12c-.23,0-.37,0-.62,0l-.66,0c-.22,0-.35,0-.55,0h-.1l-.79-.33-.11,0-.48.18s0,0,0,0a2.65,2.65,0,0,1-.39-.08l-.25,0-.05,0L204,545l-.06,0c-.21-.1-.33-.17-.55-.29l-.12,0-.52.18-.06,0-.48.19h0l-.59-.13-.5-.15a.13.13,0,0,0,0,.06v0c0,.56,0,.84,0,1.4s.14.73.23,1.18v0c-.06.6-.1.91-.17,1.5l-.14.07c-.21.11-.43.2-.65.3,0,0,0-.1,0-.15s-.1-.35-.16-.6c0-.58,0-.87,0-1.46-.07-.22-.12-.39-.17-.56s-.13-.38-.21-.64,0-.52-.08-.89l-.1,0-.05,0a3.67,3.67,0,0,0-.45.17h-.08a5.12,5.12,0,0,0-.67,0l-.68-.51-.1.07-.54.34-.08,0-.69-.11-.11,0-.45.15h-.09l-.24,0-.17,0h-.18l-.51-.14-.06.06-.48.34H194l-.57,0-.55-.31-.12,0-.52.19h-.46l-.18-.17,0,.14c-.14.45-.22.7-.36,1.18-.12.23-.17.34-.28.57l-.38.58-.07-.08c-.27-.38-.41-.59-.71-1l-.43-.31L189,546c-.23-.15-.35-.23-.6-.37l-.13.05-.13,0-.17,0-.1,0-.11,0c-.26.12-.39.18-.68.29h0l-.79-.28-.11,0-.51.18h-.05l-.69-.11-.13,0h0l-.15,0-.3.07-.13,0-.15,0-.17,0-.17,0h0l-.48.21h-.09l-.53,0-.5-.32-.07.08,0,0c0,.54.05.8.09,1.34s0,.72,0,1.18c.19.55.28.83.47,1.37-.06.5-.06.75-.11,1.24.07.32.1.48.15.77a.43.43,0,0,1,0,.05s0-.05.07-.06l.61-.19a.45.45,0,0,1,.11,0l.66.08.74,0c0,.68,0,1,0,1.69s0,.8.06,1.33c.1.11.14.18.23.29l.77,0,.65,0,.38.2c.12.32.17.47.28.8v1.27c.08.1.11.16.19.27l.63.41,0,0a3.84,3.84,0,0,0,.54-.25h.06l.31-.07h.05l.15,0,.13,0a2.82,2.82,0,0,1,.42.23c0,.61-.07.92-.11,1.56s.07.76.12,1.27.11.62.2,1,.05.77.08,1.27l.28.23.63,1.09.67.45h.57c.19.38.27.6.47,1l.25.3h0l-.66.26-.82.3h-.4l-.46-.34a1.24,1.24,0,0,1,0,.16h0l.27,1c0,.39-.05.58-.06,1h-.14l-.54,0,0,0-.55.39-.07,0-.57-.27s0,.07,0,.1c.05.4.08.63.13,1.07s.1.84.17,1.41,0,.72,0,1.22.14.59.22,1l.21,0,.24,0,.22-.05h0l.12,0,.44-.23.11-.07.63.4c.08.41.13.61.21,1s.08.54.13.9l.61.12c.3.05.45.06.74.12h.57l.64.08.67.22h.05l.47-.25.06,0,.61.06c.27,0,.41.08.66.13h0a3.53,3.53,0,0,1,.43-.14l.08,0h.64l.59-.2.11,0a6.21,6.21,0,0,0,.65.23h0a2.33,2.33,0,0,0,.3-.12l.14-.05a1.62,1.62,0,0,1,0,.3c.05.41.08.64.15,1.06s.27.75.45,1.25c-.07.55-.12.81-.18,1.36s.06.71.09,1.19c.23,1,.34,1.49.56,2.49,0,.35.08.54.12.89s0,.4,0,.65h-.14l-.6,0-.62-.56-.68.09h0c0,.09-.06.13-.1.23,0,.4,0,.6,0,1s.15.75.23,1.27c.05.32.06.49.1.83l-.16-.1c-.25-.18-.42-.28-.72-.48l-.11,0-.51.16-.28.22c0,.55-.05.82-.07,1.37s.17.78.27,1.32c0,0,0,0-.05,0l-.13,0-.55.06-.61,0-.36,0-.13,0h-.11c.11.57.19.85.31,1.42s.1.72.18,1.2-.08.83-.13,1.4c.15.49.21.75.36,1.24,0,.34.06.51.1.83l-.1.06.66.37,0,0,.58-.27.07,0,.58.05.62,0,.11,0H199l.14,0,.22-.05h.08v0a.66.66,0,0,0,0,.15,1.89,1.89,0,0,0,.48,0l.15,0,.12,0,.66.39.55-.1h0l.13,0,.54-.08.65,0c.21,0,.32,0,.52,0l.22,0,.41,0,.45.23h0a.26.26,0,0,0,.09,0c.15-.5.23-.74.4-1.24,0-.25.08-.38.15-.65l0,0,.43.23.22.13c.12.19.23.37.37.63l.43.34.33.31.37.16.29.13h0l.64.15.08,0,.46-.32a.27.27,0,0,1,.08-.07l.68.47.68.21.06,0,0,0c.18-.1.28-.18.45-.28,0,0,0,0,0,0l.65,0,.49,0,.52.18.06,0,.5-.34.07,0,.5.15c.26,0,.38.08.62.11s.29.06.48.08h0c-.08-.6-.13-.9-.21-1.51s0-.74,0-1.22-.08-.88-.13-1.48-.05-.73-.05-1.22,0-.55,0-.92l-.14.19c-.29-.09-.46-.15-.75-.22l-.62-.33a.61.61,0,0,1-.13,0h0a1.34,1.34,0,0,1-.26.08h0l-.16-.27-1.75-2.66-.42-.65c-.14,0-.1-.41,0-.87h0c.11-.78.27-1.78-.25-1.79l-.75,0-.67.17-.47-.14v-1.26c0-.52,0-.77,0-1.28s-.1-.84-.17-1.41-.21-.72-.36-1.2c0-.57,0-.85.05-1.41s0-.69-.05-1.15-.21-.55-.34-.92A2.52,2.52,0,0,1,207,576a6.32,6.32,0,0,1,.62-.18l.73.43.73-.24h.63l.64-.37c.32.26.48.38.81.63l.55-.42h1.89l.5.25.59-.06c.15-.14.23-.21.38-.37l.34.19c-.09-.45-.14-.68-.23-1.12s.07-.71.12-1.19c.27,0,.4,0,.69-.05l.63.07.66.06c-.1-.55-.16-.83-.26-1.38s-.1-.9-.17-1.5,0-.75,0-1.26c0-.31,0-.46,0-.75-.28-.17-.41-.27-.71-.43l-.57.43-.58-.24c0-.47,0-.72-.1-1.19s-.08-.82-.12-1.36l-.69.19-.71-.19-.54.08h-.64c.13-.21.18-.32.3-.55s.34-.28.57-.45l.42-.38c.16-.28.24-.42.42-.7.15-.12.23-.18.38-.32s.15-.38.23-.62c-.08-.67-.13-1-.21-1.69l-.25-1.37c0-.45-.05-.67-.07-1.13s0-.82,0-1.37c0-.22,0-.34,0-.57l.71,0,.6.36.66,0,.29-.18c0-.43,0-.66-.09-1.09s-.16-.8-.27-1.33c0-.29,0-.43,0-.72l.14,0v0l.75.13.07,0c.22-.13.34-.22.53-.34l.08-.06.31.12c0-.58,0-.88.09-1.48s-.14-.82-.22-1.35c-.07-.27-.1-.41-.19-.68l.81,0,.69.42.48-.4C219.31,549.73,219.28,549.46,219.24,548.91ZM206.5,563.54l-.76.38c-.11.48-.16.71-.27,1.17s-.3.53-.49.88l-.69.07c-.13.45-.2.66-.33,1.11l-.54.25c-.16.37-.25.55-.41.92-.07.12-.09.18-.16.31-.23-.32-.35-.48-.6-.79s-.46-.29-.76-.47l-.62-.48-.58-1-.6-.23-.5-.89-.71-1-.57-.66-.51-.23a.91.91,0,0,0,0-.17c-.16-.43-.24-.65-.41-1.08,0-.55,0-.83.06-1.38s-.16-.68-.26-1.13,0-.47.08-.78-.13-.51-.23-.84a2.68,2.68,0,0,0,.4,0c0-.33.08-.51.13-.83-.16-.53-.24-.8-.41-1.32,0-.31,0-.48,0-.78.34,0,.5,0,.84,0l.64-.15.33.1c0-.55,0-.83,0-1.39s-.16-.79-.27-1.33c0-.26,0-.4,0-.65l.15.08s0-.07,0-.11l.88.55.53,0H200l.48-.44a.49.49,0,0,1,0-.12l.34.19c0-.27,0-.55,0-.82a.5.5,0,0,1,.55-.46h0a.44.44,0,0,1,.43.33l.24.77c.11.34.21.66.31,1l1.44.78.14.08c0,.45-.05.74-.09,1.24a2.29,2.29,0,0,1,.15.24l.62-.13.14,0,.64.33.06,0c.16-.12.24-.21.37-.32l.16-.14c-.06.44-.09.69-.15,1.08a.83.83,0,0,0-.15.11s0,.06,0,.09c.2.52.3.8.48,1.33,0,.25-.07.37-.13.62.21-.09.32-.12.54-.2.07.51.11.78.19,1.29v1.43c0,.45,0,.66.08,1.11s0,.51.06.86,0,.44.06.74Z"/><path class="cls-3" d="M230.07,580.18v0Zm32,16.92c-.06-.69-.09-1-.16-1.72s0-.82.07-1.37l-.17-.89h-.71l-.64-.43-.11.05h0l-.46.15v0c-.08-.67-.11-1-.2-1.67.11-.59.15-.88.26-1.47-.08-.29-.12-.44-.19-.73l-.13.08-.63.44h-.1l-.56,0h-.52c0-1.12,0-1.68,0-2.8,0-.35,0-.53,0-.89l-.14.1-.58.36h-.56c-.3-.24-.43-.37-.71-.61l-.07.09-.23.3s0-.09,0-.15c0-.44,0-.7-.06-1.19s.09-.83.16-1.39,0-1,0-1.61-.09-.8-.16-1.34-.05-.92-.07-1.53-.09-.8-.16-1.34.08-.6.15-1l-.15-.31h0a.69.69,0,0,1-.07-.15l.69.4h.77l.49-.3.06,0,.08-.05.75.19.63.32.33.11h0l.09,0,.11-.16.12-.18c0-.56-.05-.84-.08-1.4s0-.66,0-1.09c.22-.17.34-.29.54-.44l.09-.08.58.6.06.06c.19-.22.28-.31.48-.53,0-.46,0-.69,0-1.14,0-.18,0-.34,0-.49a7.45,7.45,0,0,0,1.61-2.35,10.8,10.8,0,0,0-1.69.57l-.17-.77c0-.29,0-.43.07-.74-.27,0-.41,0-.67,0l-.66-.54-.09.06-.43.28v-.07c0-.46,0-.72-.05-1.21s-.08-.77-.12-1.22v-.13l-.12,0h0l-.11,0-.12,0-.29.07-.78-.2-.12,0h0l-.47.15h-.76c-.26,0-.38-.07-.62-.12h-.48l-.09-.06c0-.48,0-.72-.06-1.2s-.1-.85-.17-1.4v-1.6c0-.17,0-.31,0-.44v0c0-.25,0-.46,0-.8,0-.61,0-.92,0-1.54s-.12-.8-.19-1.33c0-.37-.07-.56-.12-.93l.16-.14h0a4.32,4.32,0,0,1,.48-.11l.08,0,.06,0h0l.26-.07.29-.08.51-.27.09-.05,0,0c.06.1.08.17.13.27,0-.46-.07-.68-.1-1.13s0-.85-.1-1.42c.08-.18.13-.27.2-.46.28-.21.41-.29.69-.49l.05,0,.43-.08h.07l.13,0,.38.33.14.13c0-.73,0-1.09,0-1.82-.13-.58-.18-.88-.3-1.48,0-.24.05-.35.08-.59l.65-.13.14,0,.64.45.51-.11.14,0c0-.65-.08-1-.14-1.62s-.05-.81-.09-1.35,0-1,.06-1.61-.1-.85-.18-1.41c0-.36-.05-.52-.07-.88l-.57-.45-.1.07-.63.43-.06,0-.57-.21-.66-.19a2.27,2.27,0,0,0-.34,0l-.11,0h-.11l-.15,0h0l-.75.42h-.66l-.72-.24-.08.05-.53.32-.28.06-.24,0-.16,0h0l-.56-.65-.12.05-.53.17-.44.3a.2.2,0,0,1,0-.07c-.05-.14-.07-.24-.11-.39,0,.08,0,.17-.08.25h0c-.13.45-.21.75-.36,1.25l-.45.3-.2.56a1.25,1.25,0,0,0-.08-.12c-.23-.35-.37-.55-.62-.91l-.3-.85a4.07,4.07,0,0,1-.42-.41l-.74,0,0,0h0c-.27.16-.41.27-.69.46h-.62l-.69-.23-.09,0h0l-.64.24H245l-.52,0-.69-.16-.51-.25-.07.05-.48.36-.68.3H242a2.85,2.85,0,0,0-.46-.1c-.28-.22-.41-.3-.68-.49,0,0-.06.05-.07.08l-.37.39-.06,0c.06.6.09.91.16,1.52s.07.78.11,1.29,0,.94,0,1.54,0,.78,0,1.29c0,.35-.07.53-.12.82,0,0,0,.1,0,.15a.54.54,0,0,1,.07-.13l0-.05.74.16.65,0,.57.12c.12.65.19,1,.31,1.64,0,.87,0,1.31-.06,2.18l.67-.08h.14c.24-.25.35-.38.56-.62l.06-.06.53.19c.06.52.08.8.14,1.32s-.08.83-.15,1.39c.06.34.07.5.12.85l.76.1h.09c.24-.22.38-.34.6-.56l.05,0c.22.06.33.08.53.12-.1.65-.15,1-.26,1.6s0,.95.08,1.59.26.75.42,1.25c-.08.56-.12.83-.21,1.39s.07.87.1,1.46.16.71.26,1.19l0,.32c0,.31.06.55.1.94-.08.57-.12.86-.2,1.46a1.46,1.46,0,0,0,.05.2l-.18-.15c.13.58.21.89.36,1.49,0,.27-.06.48-.08.69a1.56,1.56,0,0,0,.16-.2c0,.22,0,.44-.07.74,0,.55,0,.83.07,1.38s0,.64,0,1.06a.49.49,0,0,0,0,.11l-.15,0c.13.43.2.68.32,1.16,0,.37,0,.54-.07.91s.12.64.18,1.06-.11.81-.18,1.33c0,.34.07.51.12.85-.08-.37-.12-.54-.18-.91s-.18-.75-.28-1.27-.23-.7-.4-1.19-.36-.62-.59-1c-.08-.6-.11-.91-.2-1.52-.15-.39-.25-.6-.41-1s-.25-.68-.41-1.14-.23-.68-.4-1.12-.21-.76-.36-1.26-.28-.75-.45-1.25-.12-.75-.21-1.24-.16-.76-.29-1.26l-.56-.9c0-.64-.07-1-.13-1.58-.25-.39-.39-.59-.66-1-.07-.52-.1-.8-.17-1.32s-.25-.66-.43-1.11-.28-.66-.47-1.11-.2-.63-.32-1-.08-.8-.15-1.32l-.44-1c-.18-.48-.28-.71-.46-1.18s-.1-.7-.16-1.17-.18-.7-.3-1.17l.14,0c-.18-.46-.26-.69-.43-1.15l-.57-.71-.2-1.23c-.07-.38-.11-.55-.19-.91s-.15-.59-.24-1-.33-.62-.53-1-.1-.58-.16-1c0-.08-.07-.11-.11-.19l-.14.05-.56.25h-.08l-.71,0-.06,0h0c-.17.1-.29.15-.5.25h-.1c-.22,0-.36,0-.59,0l-.74-.42-.78,0-.14,0h0l-.19,0-.13,0-.1,0h0c-.26.1-.4.17-.65.28l-.71.17h0l-.59-.23-.09,0-.5.25h-.1c-.22,0-.36,0-.59,0l-.78,0-.61-.32-.72-.06-.07,0-.44.19,0,0h0l-.58-.15-.06.06c-.23.23-.37.37-.6.62l-.06,0h0c-.21-.21-.33-.34-.57-.56l0,0-.06,0-.28.21-.07,0-.42-.19a.31.31,0,0,1,0,.1h0c0,.09,0,.16,0,.28,0,.62,0,.91,0,1.52l.17.6a.45.45,0,0,1-.16,0h0l-.48-.13a11.37,11.37,0,0,1,.25,2.1.52.52,0,0,1,.14.41c0,.23,0,.43-.05.65l.41.19.15.07c0,.06,0,.11,0,.19-.07.38-.09.57-.17,1a.49.49,0,0,1,.15.17l.74,0h0l.36-.09.11,0h.16c.25,0,.39-.07.65-.1v.44a.42.42,0,0,1-.14.06v1.26c0,.56.07.85.11,1.42l.12,0,.1.07.12,0,.71.44.59,0h.08a1,1,0,0,1,.27-.14.76.76,0,0,1,.13-.07c.08.44.11.65.18,1.08s0,.82-.1,1.36c0,0,0,.06,0,.1s-.07.17-.11.25h0c0,.18.05.33.09.56.31-.2.46-.32.77-.53a5.24,5.24,0,0,0,.56,0c.3.21.44.29.74.51v-.14c.13.44.18.66.3,1.1s0,.82,0,1.37.11.93.18,1.56-.06.77-.1,1.29.13.94.23,1.57.13.77.22,1.28c-.06.38-.1.55-.15.92a2.78,2.78,0,0,0,.12.38l-.7-.37-.74.39a6.09,6.09,0,0,1-.61-.17c-.31-.08-.48-.11-.79-.2h-.63c-.18.1-.26.16-.43.27a2.52,2.52,0,0,0-.21-.25c.12.52.18.8.28,1.34v1.4l-.82-.12-.6-.07-.6.14c.06.48.08.72.13,1.21s-.07.91-.11,1.53c.12.54.17.8.29,1.34,0,.35,0,.54.07.89h.73l.62-.12.64.06c.08.55.11.81.2,1.35s0,.77,0,1.28l.68.2h1.36c.53-.11.82-.17,1.36-.31.19.14.29.2.46.34h0l.2,1.07c0,.54,0,.8,0,1.34s.18.92.3,1.53c0,.49-.05.73-.1,1.2s.16.92.26,1.53c-.08.49-.11.73-.2,1.2.15.37.22.55.35.91l-.05.56-.73-.21c-.23-.06-.35-.09-.58-.13s-.4.13-.66.24h-.1c-.07.41-.1.61-.17,1,.08.58.13.86.22,1.42,0,.24,0,.36.08.59l-.72.36c-.28-.2-.42-.28-.68-.48h-.45c.15.76.24,1.14.41,1.91,0,.11,0,.19,0,.28l-.14-.06-2,1.26a.24.24,0,0,1,0,.08h0c-.05.14-.09.28-.14.43l.19.08.15.07a2.83,2.83,0,0,0,0,.3c0,.2,0,.4,0,.66.11.51.15.76.26,1.28,0,.29,0,.55.07.78,0,.66.1,1.19.17,2,0,.38,0,.57.07.94l.53.24.65,0h.05l.57,0,.63,0,.58,0h.09l.61-.36.11-.06c.23.19.38.27.6.44l0,0,.57-.35.1-.06c.24.18.34.27.58.46h0l.52-.19h0l.08,0,.53,0,.61,0a3.24,3.24,0,0,0,.44,0,.26.26,0,0,0,0,.08h0c0,.06.05.1.07.17.18-.53.26-.8.43-1.34a3.23,3.23,0,0,0,.29-.43l.19-.15a.33.33,0,0,1,.11-.09c.24.46.38.69.61,1.16l.52.16c.11.32.16.49.27.81l.67,0,.71-.08c.23,0,.35,0,.58-.08l.64,0,.72.14.58.37.33-.09.16,0,.15,0,.37-.18.1-.06.49.44.06,0,.55-.57.06-.06.48.21h0l.48-.14.13,0,.36.17.11,0h0l0-1.49c0-.53.09-.79.14-1.29,0-.67,0-1-.09-1.64s-.22-.79-.35-1.31c0-.33,0-.48,0-.78h-.14a4.88,4.88,0,0,1-.52,0l-.63-.34-.5-.09c-.07-.6-.1-.9-.15-1.5s-.16-.88-.27-1.46c0-.18.07-.27.12-.45l-.75-.09-.06,0-.57.33,0,0c-.17-.06-.26-.12-.43-.18,0-.48,0-.71,0-1.17s-.13-.88-.21-1.45c0-.34,0-.51.06-.86l-.14.09-.66.36h-.09l-.57,0c-.09-.18-.12-.27-.22-.46-.11-.52-.16-.78-.27-1.31l-.2-1.23c0-.5,0-.74.05-1.24s-.05-.82-.08-1.37v-1.42c-.12-.48-.17-.71-.3-1.18s0-.74,0-1.23,0-.82.09-1.37-.08-.89-.1-1.49-.2-.74-.3-1.25c.05-.54.08-.81.13-1.36s-.08-.62-.13-1,0-.7-.06-1.17,0-.85,0-1.43c-.06-.75-.09-1.14-.14-1.89,0-.13,0-.24,0-.35s0-.33,0-.56c.09.29.13.44.23.72.16.45.26.66.44,1.11s.15.81.25,1.37.3.66.52,1.11.25.79.42,1.32.21.66.34,1.1.1.82.15,1.37l.37,1.25c.22.42.32.63.54,1l.27,1.53c.22.34.31.5.53.85s.24.67.4,1.12.2.75.33,1.26l.33,1.37c.1.44.14.66.23,1.12s.3.55.49.92c.1.53.15.79.23,1.32s.27.75.46,1.25.17.6.3,1,.18.66.3,1.12.21.74.33,1.25.24.75.42,1.25.17.64.3,1.06.28.64.46,1.07.11.55.18.92c.26.82.38,1.22.64,2l.22.86.25,1c.08.54.12.81.21,1.33.14.3.21.45.37.74,0,.13,0,.19,0,.33l.69,0,.74.23h.59l.54-.57.07-.07c.26.2.41.29.66.47l0,0,.61-.39.08,0,.59.23.67,0,.65.28h0l.44-.21.1,0,.61.35.56.14.07,0,.62-.41.07,0a5.15,5.15,0,0,0,.59.11c.24.08.38.12.61.21h.51l.45-.23.09,0,.62.11.5.2.17,0,.31-.06h0l.11,0,.17-.05h0l.08,0,.13,0,.11.11.19.17c-.14-.66-.2-1-.33-1.66C262,597.92,262,597.65,262.05,597.1Z"/><path class="cls-3" d="M405.68,557.72h-.12l-.14-.05c.08.12.18.22.27.33C405.69,557.91,405.68,557.81,405.68,557.72ZM400.23,566a2.7,2.7,0,0,1,.17.65c.06-.22.11-.43.16-.65Zm.3-12.26a1.52,1.52,0,0,1-.3.17,1.73,1.73,0,0,1,.31.14C400.53,553.9,400.53,553.8,400.53,553.69Zm-2,39.34a.19.19,0,0,0,0,.08s0-.06,0-.08Zm7.15-35.31h-.12l-.14-.05c.08.12.18.22.27.33C405.69,557.91,405.68,557.81,405.68,557.72ZM400.23,566a2.7,2.7,0,0,1,.17.65c.06-.22.11-.43.16-.65Zm.3-12.26a1.52,1.52,0,0,1-.3.17,1.73,1.73,0,0,1,.31.14C400.53,553.9,400.53,553.8,400.53,553.69Zm-2,39.34a.19.19,0,0,0,0,.08s0-.06,0-.08Zm7.15-35.31h-.12l-.14-.05c.08.12.18.22.27.33C405.69,557.91,405.68,557.81,405.68,557.72ZM400.23,566a2.7,2.7,0,0,1,.17.65c.06-.22.11-.43.16-.65Zm.3-12.26a1.52,1.52,0,0,1-.3.17,1.73,1.73,0,0,1,.31.14C400.53,553.9,400.53,553.8,400.53,553.69Zm-2,39.34a.19.19,0,0,0,0,.08s0-.06,0-.08Zm7.15-35.31h-.12l-.14-.05c.08.12.18.22.27.33C405.69,557.91,405.68,557.81,405.68,557.72ZM400.23,566a2.7,2.7,0,0,1,.17.65c.06-.22.11-.43.16-.65Zm.3-12.26a1.52,1.52,0,0,1-.3.17,1.73,1.73,0,0,1,.31.14C400.53,553.9,400.53,553.8,400.53,553.69Zm-2,39.34a.19.19,0,0,0,0,.08s0-.06,0-.08Zm7.15-35.31h-.12l-.14-.05c.08.12.18.22.27.33C405.69,557.91,405.68,557.81,405.68,557.72ZM400.23,566a2.7,2.7,0,0,1,.17.65c.06-.22.11-.43.16-.65Zm.3-12.26a1.52,1.52,0,0,1-.3.17,1.73,1.73,0,0,1,.31.14C400.53,553.9,400.53,553.8,400.53,553.69Zm-2,39.34a.19.19,0,0,0,0,.08s0-.06,0-.08Zm7.15-35.31h-.12l-.14-.05c.08.12.18.22.27.33C405.69,557.91,405.68,557.81,405.68,557.72ZM400.23,566a2.7,2.7,0,0,1,.17.65c.06-.22.11-.43.16-.65Zm.3-12.26a1.52,1.52,0,0,1-.3.17,1.73,1.73,0,0,1,.31.14C400.53,553.9,400.53,553.8,400.53,553.69Zm-2,39.34a.19.19,0,0,0,0,.08s0-.06,0-.08Zm7.15-35.31h-.12l-.14-.05c.08.12.18.22.27.33C405.69,557.91,405.68,557.81,405.68,557.72ZM400.23,566a2.7,2.7,0,0,1,.17.65c.06-.22.11-.43.16-.65Zm.3-12.26a1.52,1.52,0,0,1-.3.17,1.73,1.73,0,0,1,.31.14C400.53,553.9,400.53,553.8,400.53,553.69Zm-2,39.34a.19.19,0,0,0,0,.08s0-.06,0-.08Zm7.15-35.31h-.12l-.14-.05c.08.12.18.22.27.33C405.69,557.91,405.68,557.81,405.68,557.72ZM400.23,566a2.7,2.7,0,0,1,.17.65c.06-.22.11-.43.16-.65Zm.3-12.26a1.52,1.52,0,0,1-.3.17,1.73,1.73,0,0,1,.31.14C400.53,553.9,400.53,553.8,400.53,553.69Zm-2,39.34a.19.19,0,0,0,0,.08s0-.06,0-.08Zm7.15-35.31h-.12l-.14-.05c.08.12.18.22.27.33C405.69,557.91,405.68,557.81,405.68,557.72ZM400.23,566a2.7,2.7,0,0,1,.17.65c.06-.22.11-.43.16-.65Zm.3-12.26a1.52,1.52,0,0,1-.3.17,1.73,1.73,0,0,1,.31.14C400.53,553.9,400.53,553.8,400.53,553.69Zm-2,39.34a.19.19,0,0,0,0,.08s0-.06,0-.08Zm7.15-35.31h-.12l-.14-.05c.08.12.18.22.27.33C405.69,557.91,405.68,557.81,405.68,557.72ZM400.23,566a2.7,2.7,0,0,1,.17.65c.06-.22.11-.43.16-.65Zm.3-12.26a1.52,1.52,0,0,1-.3.17,1.73,1.73,0,0,1,.31.14C400.53,553.9,400.53,553.8,400.53,553.69Zm-2,39.34a.19.19,0,0,0,0,.08s0-.06,0-.08Zm-4.67-36.36c-.05.34-.07.53-.11.91s0,.46.06.67a4.94,4.94,0,0,0,.94-1.12C394.44,557,394.15,556.83,393.86,556.67ZM398.53,593a.19.19,0,0,0,0,.08s0-.06,0-.08Zm-5-4.44a3.33,3.33,0,0,0-.31.14v0l.38-.17Zm7-34.9a1.52,1.52,0,0,1-.3.17,1.73,1.73,0,0,1,.31.14C400.53,553.9,400.53,553.8,400.53,553.69Zm-.3,12.26a2.7,2.7,0,0,1,.17.65c.06-.22.11-.43.16-.65Zm4.61,20.4v.59l0,0A3.57,3.57,0,0,1,404.84,586.35Zm-2.07-14a9.49,9.49,0,0,1,.13-1.21,19.1,19.1,0,0,1,.66-2.68l-.12,0c-.24,0-.38.06-.62.12,0,.48,0,.72-.07,1.21s-.21.91-.36,1.53c0,.54,0,.8.07,1.34,0,.35,0,.54-.09.89h.73l.43-.08h0c0-.12-.09-.24-.15-.37A1.55,1.55,0,0,0,402.77,572.31Zm.26,17.2a.42.42,0,0,0-.14-.06c0,.23,0,.46,0,.76s-.13.64-.19.95l-.64.44.55,0h.13c.13-.55.18-.84.29-1.38C403.06,589.92,403,589.71,403,589.51Zm2.65-31.79h-.12l-.14-.05c.08.12.18.22.27.33C405.69,557.91,405.68,557.81,405.68,557.72Zm-1.06-9.51c0,.35,0,.59,0,1-.07.21-.11.37-.17.54l.15-.07.16-.49c0-.37,0-.6,0-.9Zm2.43,5.64-.7-.54h-.12c0-.56.08-.84.12-1.4l0-.18-.15.07a.93.93,0,0,1,0,.14c0,.56-.07.84-.13,1.4h.13l.7.54.67.09.08,0ZM398.53,593a.19.19,0,0,0,0,.08s0-.06,0-.08Zm2-39.34a1.52,1.52,0,0,1-.3.17,1.73,1.73,0,0,1,.31.14C400.53,553.9,400.53,553.8,400.53,553.69Zm-.3,12.26a2.7,2.7,0,0,1,.17.65c.06-.22.11-.43.16-.65Zm5.45-8.23h-.12l-.14-.05c.08.12.18.22.27.33C405.69,557.91,405.68,557.81,405.68,557.72ZM398.53,593a.19.19,0,0,0,0,.08s0-.06,0-.08Zm2-39.34a1.52,1.52,0,0,1-.3.17,1.73,1.73,0,0,1,.31.14C400.53,553.9,400.53,553.8,400.53,553.69Zm-.3,12.26a2.7,2.7,0,0,1,.17.65c.06-.22.11-.43.16-.65Zm5.45-8.23h-.12l-.14-.05c.08.12.18.22.27.33C405.69,557.91,405.68,557.81,405.68,557.72ZM398.53,593a.19.19,0,0,0,0,.08s0-.06,0-.08Zm2-39.34a1.52,1.52,0,0,1-.3.17,1.73,1.73,0,0,1,.31.14C400.53,553.9,400.53,553.8,400.53,553.69Zm-.3,12.26a2.7,2.7,0,0,1,.17.65c.06-.22.11-.43.16-.65Zm5.45-8.23h-.12l-.14-.05c.08.12.18.22.27.33C405.69,557.91,405.68,557.81,405.68,557.72ZM398.53,593a.19.19,0,0,0,0,.08s0-.06,0-.08Zm2-39.34a1.52,1.52,0,0,1-.3.17,1.73,1.73,0,0,1,.31.14C400.53,553.9,400.53,553.8,400.53,553.69Zm-.3,12.26a2.7,2.7,0,0,1,.17.65c.06-.22.11-.43.16-.65Zm5.45-8.23h-.12l-.14-.05c.08.12.18.22.27.33C405.69,557.91,405.68,557.81,405.68,557.72ZM398.53,593a.19.19,0,0,0,0,.08s0-.06,0-.08Zm2-39.34a1.52,1.52,0,0,1-.3.17,1.73,1.73,0,0,1,.31.14C400.53,553.9,400.53,553.8,400.53,553.69Zm-.3,12.26a2.7,2.7,0,0,1,.17.65c.06-.22.11-.43.16-.65Zm5.45-8.23h-.12l-.14-.05c.08.12.18.22.27.33C405.69,557.91,405.68,557.81,405.68,557.72ZM398.53,593a.19.19,0,0,0,0,.08s0-.06,0-.08Zm2-39.34a1.52,1.52,0,0,1-.3.17,1.73,1.73,0,0,1,.31.14C400.53,553.9,400.53,553.8,400.53,553.69Zm-.3,12.26a2.7,2.7,0,0,1,.17.65c.06-.22.11-.43.16-.65Zm5.45-8.23h-.12l-.14-.05c.08.12.18.22.27.33C405.69,557.91,405.68,557.81,405.68,557.72ZM398.53,593a.19.19,0,0,0,0,.08s0-.06,0-.08Zm2-39.34a1.52,1.52,0,0,1-.3.17,1.73,1.73,0,0,1,.31.14C400.53,553.9,400.53,553.8,400.53,553.69Zm-.3,12.26a2.7,2.7,0,0,1,.17.65c.06-.22.11-.43.16-.65Zm5.45-8.23h-.12l-.14-.05c.08.12.18.22.27.33C405.69,557.91,405.68,557.81,405.68,557.72ZM398.53,593a.19.19,0,0,0,0,.08s0-.06,0-.08Zm2-39.34a1.52,1.52,0,0,1-.3.17,1.73,1.73,0,0,1,.31.14C400.53,553.9,400.53,553.8,400.53,553.69Zm-.3,12.26a2.7,2.7,0,0,1,.17.65c.06-.22.11-.43.16-.65Zm5.45-8.23h-.12l-.14-.05c.08.12.18.22.27.33C405.69,557.91,405.68,557.81,405.68,557.72ZM398.53,593a.19.19,0,0,0,0,.08s0-.06,0-.08Zm2-39.34a1.52,1.52,0,0,1-.3.17,1.73,1.73,0,0,1,.31.14C400.53,553.9,400.53,553.8,400.53,553.69Zm-.3,12.26a2.7,2.7,0,0,1,.17.65c.06-.22.11-.43.16-.65Zm5.45-8.23h-.12l-.14-.05c.08.12.18.22.27.33C405.69,557.91,405.68,557.81,405.68,557.72ZM398.53,593a.19.19,0,0,0,0,.08s0-.06,0-.08Zm2-39.34a1.52,1.52,0,0,1-.3.17,1.73,1.73,0,0,1,.31.14C400.53,553.9,400.53,553.8,400.53,553.69Zm-.3,12.26a2.7,2.7,0,0,1,.17.65c.06-.22.11-.43.16-.65Zm5.45-8.23h-.12l-.14-.05c.08.12.18.22.27.33C405.69,557.91,405.68,557.81,405.68,557.72Zm0,0h-.12l-.14-.05c.08.12.18.22.27.33C405.69,557.91,405.68,557.81,405.68,557.72ZM400.23,566a2.7,2.7,0,0,1,.17.65c.06-.22.11-.43.16-.65Zm.3-12.26a1.52,1.52,0,0,1-.3.17,1.73,1.73,0,0,1,.31.14C400.53,553.9,400.53,553.8,400.53,553.69Zm-2,39.34a.19.19,0,0,0,0,.08s0-.06,0-.08Zm-19.82-44h0v0S378.71,549.06,378.71,549.07Zm27,8.65h-.12l-.14-.05c.08.12.18.22.27.33C405.69,557.91,405.68,557.81,405.68,557.72Zm32.94,6.73q0,.36.06.78h.06a1.09,1.09,0,0,1,.39.15C439,565.06,438.78,564.76,438.62,564.45Zm2.1-18.9-.12.05-.68.31,0,0-.56-.26-.62-.23H438l-.1,0-.71.27h-.05c-.24,0-.36,0-.61-.05l-.25-.1-.18-.08-.25-.11-.12,0-.54.22h-.1l-.59,0-.49-.63-.14,0-.26,0h-.06l-.15,0h-.05c-.2.09-.29.12-.48.22a.06.06,0,0,0,0,0c0-.15,0-.22,0-.38l-.11.23h0l-.43.84a2.6,2.6,0,0,0-.13.24l-.48.23c-.13.19-.18.28-.29.47l-.06-.11c-.17-.32-.28-.53-.48-.88s-.09-.48-.16-.79l-.35-.41-.74,0-.07,0h0c-.28.13-.44.19-.72.34h-.08l-.55-.05-.64-.29-.12,0h0l-.22,0-.1,0-.17,0-.16.05h0l-.55-.05c-.25-.09-.39-.12-.66-.23s-.26-.16-.46-.26l-.09.05-.53.27-.33.09c-.13,0-.25.06-.39.11l-.49-.16-.59-.53-.1.08c-.14.11-.25.19-.42.34,0,0,0,0-.05,0,0,.59-.05.86-.1,1.45s-.07.73-.09,1.21-.14.88-.23,1.45-.09.72-.16,1.2c-.11.32-.16.49-.26.77a.65.65,0,0,1,0,.13l.1-.12,0-.06.73.22.65,0,.52.14c0,.63,0,.94.07,1.54-.17.81-.26,1.22-.42,2h.81c.27-.21.42-.32.67-.53l.07-.06a5,5,0,0,0,.49.2c0,.5,0,.74-.07,1.23s-.23.76-.37,1.28c0,.31,0,.46,0,.79l.74.13.08,0,.69-.47.07-.05.5.14c-.2.57-.31.87-.52,1.44s-.1.88-.16,1.46.13.69.21,1.17c-.11.34-.19.57-.29.84s-.08.25-.15.42c0,.54-.07.8-.12,1.34s.05.65.07,1.1c0,.15,0,.29,0,.41s0,.43-.05.74-.18.55-.26.8-.11.32-.18.53c0,.51.08.8.11,1.27a.57.57,0,0,0,0,.13c-.12.46-.19.69-.32,1.16s-.08.75-.14,1.26c-.07.28-.1.45-.15.66s0,.2-.07.32a4.32,4.32,0,0,1,.07.53h-.14c0,.21.06.39.08.66s-.13.51-.21.85,0,.58,0,1c-.16.49-.24.73-.39,1.21,0,.32,0,.48,0,.8,0-.35,0-.52,0-.86s-.06-.69-.1-1.15-.12-.65-.19-1.08-.27-.58-.43-1c0-.56,0-.84.07-1.42-.11-.36-.16-.55-.27-.92s-.14-.62-.23-1-.14-.63-.23-1.05l-.15-1.16c-.09-.48-.15-.71-.25-1.16V565.4c0-.46-.07-.69-.09-1.16s-.26-.52-.42-.87c.06-.59.08-.88.14-1.46l-.52-.95,0-1.22c-.1-.43-.15-.65-.25-1.06s-.18-.63-.29-1.06-.1-.59-.15-1,0-.73.06-1.22-.17-.6-.28-1-.16-.67-.27-1.13,0-.66,0-1.1-.07-.68-.11-1.13l.14,0h0c-.09-.45-.13-.68-.24-1.12s-.26-.44-.43-.71c0-.48,0-.71,0-1.19s0-.52,0-.87-.05-.56-.09-.94l-.36-1v-.94a.52.52,0,0,0-.08-.19l-.13.05-.47.12-.12,0h0l-.74-.11-.13,0h0a3.46,3.46,0,0,1-.49.17h0l-.66,0-.68-.49-.76,0-.64,0,0,0h-.05c-.23,0-.36.11-.62.18h-.09l-.64.08-.56-.29-.11.05-.53.16h0c-.25,0-.38,0-.65,0l-.78,0c-.22-.15-.34-.23-.55-.39l-.71-.14-.12,0h0l-.1,0a1.86,1.86,0,0,1-.3.09h0l-.14,0-.44-.17-.07.06-.7.54-.05-.05c-.18-.23-.28-.37-.48-.61a.6.6,0,0,1-.11.06,2.7,2.7,0,0,1-.31.17l0,0h0l-.38-.24v.38a.5.5,0,0,0,0,.12c-.1.52-.15.83-.26,1.39,0,.13,0,.23,0,.34s-.11-.08-.16-.11c0,.38.06.63.1,1.07l-.33,1.51a2.35,2.35,0,0,1,0,.28c0,.35,0,.59,0,1-.07.21-.11.37-.17.54h0c0,.11-.07.24-.13.4a1.86,1.86,0,0,1,.11.19l.78,0,.66-.11.66,0c-.12.63-.17,1-.28,1.57a.93.93,0,0,1,0,.14c0,.56-.07.84-.13,1.4h.13l.7.54.67.09.08,0c.13,0,.22-.09.36-.14,0,.43,0,.64,0,1.09s-.19.78-.31,1.32c0,.34,0,.52,0,.88l.85-.48a5.24,5.24,0,0,1,.56,0l.67.52s0-.08,0-.12c0,.43.07.64.13,1.08s-.13.81-.2,1.34-.05.91-.08,1.52-.18.76-.32,1.27,0,.91,0,1.52V565c-.13.36-.18.53-.31.89,0,.15,0,.23.06.38-.26-.15-.38-.23-.63-.39l-.8.37-.59-.16c-.3-.11-.45-.14-.74-.24h-.64l-.47.25c-.06-.11-.1-.15-.16-.26,0,.54,0,.8.06,1.34s-.14.83-.26,1.4l-.77-.14-.48,0-.12,0c-.24,0-.38.06-.62.12,0,.48,0,.72-.07,1.21s-.21.91-.36,1.53c0,.54,0,.8.07,1.34,0,.35,0,.54-.09.89h.73l.43-.08h0l.23,0,.61.06c0,.54,0,.79,0,1.32L404.1,576l.65.18h1.35l1.41-.32c.17.13.26.18.43.3h0c0,.43,0,.65,0,1.06s-.1.78-.16,1.31,0,.89.05,1.49-.19.71-.3,1.19v1.47c-.15.49-.22.72-.38,1.2.08.34.11.52.2.86-.07.23-.1.34-.15.57l-.71-.17c-.23-.06-.33-.06-.55-.12-.28.12-.43.17-.72.27a.13.13,0,0,1-.09,0c-.14.4-.2.6-.34,1v.6c0,.24,0,.47,0,.79s0,.34,0,.57c-.3.17-.46.24-.77.4l-.63-.42-.59,0c0,.47.05.79.07,1.15s0,.46,0,.76-.13.64-.19.95l-.64.44.55,0a0,0,0,0,0,0,0l-.71,0-.62.41-.63-.23c0,.26,0,.46-.06.64a.37.37,0,0,0,.14-.07c0,.34-.05.63-.08,1s0,.61,0,.9c0,.12,0,.23,0,.37-.08,1.13-.11,1.69-.21,2.81,0,.09,0,.15,0,.22a1.7,1.7,0,0,1-.14.1h0s0,0,0,0l0,0a.37.37,0,0,0,.14.07c0,.15,0,.31,0,.51h0l.5.17c.25,0,.4,0,.62,0h.06l.59,0,.62,0,.56,0h.11l.69-.42.1-.07c.19.15.32.23.5.36a0,0,0,0,0,0,0l0,0,.64-.41.1-.07.49.38,0,0,.6-.26h0l0,0,.53,0c.25,0,.38,0,.62,0a3.22,3.22,0,0,1,.43,0,.25.25,0,0,1,0,.07h0a.6.6,0,0,1,.05.16l.65-1.35.37-.45.21-.18.11-.09c.19.43.27.64.45,1.06l.48.11.13.76.66,0,.61-.12.57-.13.17,0,.64-.09c.28,0,.42,0,.71.05s.3.18.49.29l0,0,.67-.23.41-.22.11-.06.42.35.07,0,.65-.6.06-.06.44.15h0c.22-.07.34-.12.52-.19h0l.1,0,.35.13.1,0h0c.08-.55.11-.83.18-1.39s.23-.73.36-1.23.09-.91.16-1.51-.08-.72-.14-1.2c.05-.29.07-.44.11-.72h-.14a4.35,4.35,0,0,0-.5,0l-.6-.28a4.22,4.22,0,0,1-.49,0c0-.56.06-.85.1-1.4s0-.81,0-1.36l.2-.43-.74,0-.06,0h0l-.61.37-.06,0L416,588l.2-1.12c0-.54,0-.8,0-1.35.07-.33.12-.49.2-.81l-.15.08c-.27.13-.43.22-.73.38h-.67l-.13-.42c0-.49,0-.74-.07-1.24v-1.16c.1-.47.15-.72.25-1.18s.08-.78.15-1.29.13-.82.23-1.37c-.05-.45-.07-.66-.11-1.11s.12-.7.19-1.17.17-.78.3-1.31.08-.85.14-1.43-.05-.7-.09-1.17c.13-.51.2-.78.35-1.29s0-.6,0-1,.07-.66.12-1.1.13-.82.2-1.37c.07-.71.1-1.08.16-1.79,0-.15,0-.26,0-.37v0a3.08,3.08,0,0,0,.05-.47c.06.28.09.4.13.68s.16.64.27,1.06,0,.78,0,1.31.2.62.32,1,.14.76.21,1.24.11.64.18,1.06,0,.78-.07,1.29.1.72.15,1.17.23.6.38,1c0,.58,0,.86,0,1.42.15.33.23.49.38.81s.15.62.23,1,.07.69.13,1.15.07.77.1,1.28,0,.63.05,1,.21.52.35.85c0,.49,0,.72,0,1.21s.15.69.24,1.15a9.09,9.09,0,0,0,.15.91c.05.42.07.62.13,1s.07.69.12,1.14.12.7.2,1.14.08.59.15,1,.18.58.29,1,0,.51,0,.84c.14.75.2,1.13.33,1.87,0,.31.05.46.1.76a8.6,8.6,0,0,0,.08.9c0,.49,0,.72,0,1.2.11.26.16.39.26.66v.29l.68,0,.72.13.47,0h.12l.63-.58.08-.07c.23.15.37.22.59.34l0,0c.28-.16.43-.27.69-.42,0,0,.05,0,.08,0l.55.14.65-.05.6.17h0l0,0,.5-.23.1,0,.54.26.53.07h.08l.71-.43h0l.05,0,.57,0,.6.11a2.68,2.68,0,0,1,.39,0h.11l.48-.25h0l.06,0c.25,0,.36,0,.61,0l.46.12h0l.6-.15.33-.11.12,0,.09.08.15.14c0-.56,0-.85,0-1.42.15-.47.22-.71.37-1.2s.06-.89.11-1.49.17-.71.28-1.2c0-.31,0-.46,0-.77h-.15l-.57,0-.56-.33a.38.38,0,0,1-.13,0c-.16.07-.3.11-.49.18v0c0-.57,0-.86.06-1.43l.49-1.32c0-.25,0-.39-.07-.64l-.13.08c-.25.16-.43.25-.72.43H433c-.2,0-.33,0-.56,0l-.52,0,.4-2.48c.07-.32.1-.47.17-.78l-.15.08-.65.36h-.08l-.49,0-.62-.52a.2.2,0,0,1-.08.08,1.79,1.79,0,0,1-.27.29s0-.08,0-.13c0-.39.09-.62.13-1.06s.23-.75.38-1.26.13-.85.24-1.43,0-.71.05-1.18.1-.82.17-1.37,0-.71.05-1.19.19-.53.31-.89a2.83,2.83,0,0,0-.09-.27h0a.74.74,0,0,0,0-.14l.62.34h.76l.22-.11a3.5,3.5,0,0,1,.39-.2h0l.07,0c.28.06.43.09.72.17s.35.15.58.26l.33.11.08,0a2.72,2.72,0,0,0,.29-.3l.14-1.23c.07-.38.09-.57.15-1l.61-.4.11-.07.49.53s0,0,0,.06c.23-.2.34-.28.56-.48.08-.39.1-.6.17-1,.13-.56.21-.84.35-1.4,0-.5-.06-.74-.09-1.24.06-.26.1-.38.17-.64h-.66l-.57-.48-.11.05-.46.24v-.06c.05-.4.08-.63.14-1.06s.06-.71.09-1.18l-.15,0-.18,0h-.12l-.38.06-.74-.18-.61.17h-.78l-.59-.13h-.47l-.09-.06c.06-.43.07-.65.13-1.08s0-.74.07-1.25.15-.85.23-1.42a5.32,5.32,0,0,0,.1-.57c0-.17.05-.33.08-.56.11-.55.17-.82.27-1.37s0-.72,0-1.2,0-.5,0-.83l.17-.12.67-.09a5.81,5.81,0,0,1,.58-.09,7.07,7.07,0,0,1,.69-.27c0,.08.05.14.08.24,0-.41.05-.62.08-1s.07-.76.12-1.26c.11-.16.18-.24.28-.39l.76-.38.69-.1c.18.19.28.27.47.44.09-.63.13-.94.23-1.59s0-.78-.06-1.31c.07-.2.1-.3.16-.52l.83-.06.57.44a6.37,6.37,0,0,1,.66-.07c0-.57.07-.86.12-1.42s.06-.7.12-1.18.19-.83.31-1.39,0-.74,0-1.24c0,0,0,0,0-.08h.14c0-.26,0-.41.06-.7Zm-5.28,16.9a.34.34,0,0,1-.26-.42,3.75,3.75,0,0,1,.21-.4c-.15,0-.3.07-.35.09a.48.48,0,0,0-.05.19c-.05.15-.1.24-.15.4v.29l.46-.09a1,1,0,0,1,.23,0ZM400.68,544.1l-8.26-1-2.71-.32-.19.05-.37.09-.71-.36-.1,0-.51.25h-.65c-.29-.19-.42-.26-.69-.45l-.11.06-.18.09-.52.22h-.06c-.22,0-.36,0-.59,0s-.44-.12-.74-.22a.31.31,0,0,1-.13,0h0l-.19.06a.9.9,0,0,0-.22.06h0l-.69-.49-.12,0-.43.2,0,0c-.24-.14-.36-.2-.61-.33l-.48,0v0c0,.08,0,.11,0,.18l.05,1.6-.33,1.32c0,.36,0,.62,0,.9s0,.45,0,.75-.05.51-.07.73l-.14.08c0,.16,0,.33-.05.54v1c0,.05,0,.08,0,.14l.77.22.65-.11.59,0c-.08.66-.13,1-.22,1.65l.15.07c0,.51.06.81.09,1.35-.06.28-.08.4-.13.68l1.5-.14h.15l.14,0h0l.14,0c0,.46,0,.69,0,1.15,0,.11,0,.21,0,.31,0,.37-.06.64-.09,1.09s-.11.47-.18.81h.76l.49-.21.1,0,.65.09.06.35v.9c0,.56,0,.83.08,1.38s-.08.95-.15,1.58-.1.8-.16,1.32-.12.94-.2,1.57-.08.78-.13,1.31,0,.6,0,1a1.21,1.21,0,0,1,0,.19l-.15-.05a4.72,4.72,0,0,1-.5-.16l-.14,0H385l-.23,0h0l-.23,0h-.07a5.91,5.91,0,0,1-.6,0l-.09,0-.7.25,0,0-.56-.45H382l0,0-.17.17c-.06,1.08-.07,1.61-.13,2.7h-2s0,0,0,0c-.07.48-.12.74-.2,1.22,0,.64-.07,1-.1,1.6s0,.84-.06,1.39,0,.67-.08,1.11h0l.81-.25.16,0h.05l.26-.06h0l.13,0,.65.12c-.07.57-.13.85-.22,1.39s0,.68.07,1.13l.53.25,0,0,.65-.23.12,0,.61.13.67.12h0c.22-.07.34-.1.52-.17l.12,0,.43.06.1.07c-.05.47-.05.72-.1,1.18s-.05.82-.09,1.38-.07.94-.11,1.57.09.76.12,1.25-.05.91-.1,1.52-.06.78-.08,1.31c-.12.34-.18.54-.27.87l0,.05c.06.29.09.44.16.72l-.15,0-.61-.1c-.19-.14-.3-.22-.49-.34l0,0-.09.07c-.25.18-.39.3-.65.48l0,0a1.86,1.86,0,0,0-.19-.22s0,.11,0,.15c0,.36-.06.57-.09,1,.05.59.06.86.11,1.45,0,.14-.06.26-.09.37s-.05.17-.07.29l-.76.29h-.66l-.48-.32s0,.08,0,.11c0,.65-.07,1-.1,1.68V591a.88.88,0,0,0-.15.12,2.52,2.52,0,0,0-.3.35l.31.17.14.08c0,.17,0,.34,0,.56s-.05.23-.1.39l-.12,0-.61-.15h-.69l-.61,0v0c0,.71-.05,1.07-.08,1.79-.06.54-.1.8-.15,1.34s0,.95,0,1.6,0,.84-.1,1.4v.94l.59,0,.6.21.06,0,.55-.26.06,0,.61,0,.68,0,.74,0,.55,0h.07l.61-.19.12,0,.49.42,0,0c.24-.11.38-.17.6-.25l.1,0c.41.07.63.12,1,.2h.1c.16-.19.26-.3.42-.47a.15.15,0,0,1,.05-.07l.71-.75c.13-.27.2-.39.31-.67l.25-.24.1-.1c.24.34.36.49.62.82.05.33.09.49.15.83l.32.24,0,0,.6-.24.1-.05.64.22h0l.52,0h.07l.55-.19.11,0,.7.15.14.06.33.14.07,0,.63-.5.06,0,.47.11.5.37.33-.07.17,0h0l.11,0,.2-.07.27-.11.06,0,.61,0a3.24,3.24,0,0,1,.44,0h.15c0-.65,0-1,.07-1.59,0-.33,0-.56.05-.81a4.57,4.57,0,0,1,0-.49c.11-.64.16-1,.29-1.58a.38.38,0,0,0,0-.1l1.92-.8h0v-.11a1.64,1.64,0,0,0,0-.23s0-.06,0-.08h0a1.1,1.1,0,0,1-1.33-.65l0-.09a3,3,0,0,1-.5.17c0-.06,0-.12,0-.2l-.72-.06c-.23-.09-.35-.12-.58-.22a4,4,0,0,1-.49,0c0-.63,0-1.1,0-1.57a2.45,2.45,0,0,1,1.63-.11c-.23-.64-.49-1.29-.74-1.93l-.2,0-.93.44-.38-.14c-.26,0-.4,0-.65-.08l-.08,0h-.06a3.33,3.33,0,0,0-.31.14.67.67,0,0,1-.15.06c.08-.43.1-.64.19-1.09s.08-.86.14-1.43a3.69,3.69,0,0,1-.11-.45c-.3,0-.45-.06-.74-.12s-.4.06-.67.09l-.3-.18c.05-.48.06-.71.1-1.18s.12-.78.19-1.3-.06-.94-.1-1.55.07-.79.11-1.29.07-.9.11-1.5.19-.74.33-1.24,0-.55,0-.91c0-.16,0-.24-.07-.39H396c0-.54,0-.8,0-1.33s.1-.68.17-1.12l.69.06c.25,0,.37-.06.63-.08h.7c0-.58,0-.88,0-1.48s.17-.92.29-1.54.07-.81.11-1.34,0-.67.07-1.1l-.85.25c-.23-.11-.35-.17-.58-.26-.28.09-.41.15-.69.25.1-.54.13-.82.23-1.36s0-.84.1-1.41c-.32,0-.46,0-.78.06l-.85.37c-.28-.22-.43-.31-.69-.53h-.58l-.72.25a1.29,1.29,0,0,1-.25.06c0-.52.05-.77.08-1.29s.07-.82.12-1.37.08-.93.11-1.55l.35-1.31c0-.63.06-.93.11-1.55s-.08-.79-.11-1.31.05-.58.1-1c0-.17,0-.24.06-.4.33,0,.51,0,.84,0l.66.17.43.31c0-.51,0-.75,0-1.26s.11-.83.2-1.37c0-.37,0-.57,0-.94l.82.11a6.4,6.4,0,0,1,.63.14h.43c.05-.64.08-1,.13-1.61s.07-.86.12-1.42c0-.15,0-.24.06-.4l.76.23.66,0L400,550c0-.62.08-.92.13-1.54l.14-1.28c0-.63,0-.93.07-1.56s.2-.75.33-1.27Zm2,.24c0,.21-.1.41-.16.62s0,.11-.06.18v.07c0,.46,0,.7,0,1.16a6.17,6.17,0,0,1,0,.75l.12-.12c0-.24,0-.48,0-.73.06-.64.09-1.08.12-1.34s0-.4.06-.56ZM400.23,566a2.7,2.7,0,0,1,.17.65c.06-.22.11-.43.16-.65Zm.3-12.26a1.52,1.52,0,0,1-.3.17,1.73,1.73,0,0,1,.31.14C400.53,553.9,400.53,553.8,400.53,553.69Zm-6.67,3c-.05.34-.07.53-.11.91s0,.46.06.67a4.94,4.94,0,0,0,.94-1.12C394.44,557,394.15,556.83,393.86,556.67Z"/><path class="cls-3" d="M449.54,560c0,.15,0,.3-.06.5,0,0,0,0,0,0a2.7,2.7,0,0,0,.34-.17Z"/><path class="cls-3" d="M474.54,548.71c-.1.27-.14.41-.23.71l-.05,1.11c-.15.5-.23.74-.38,1.24s-.15.63-.23,1c0,.55,0,.83-.07,1.38h-.72c-.21-.15-.33-.21-.55-.35l-.81-.08a.43.43,0,0,1,0,0l-.1.43c-.11.46-.18.69-.28,1.15s-.13.75-.19,1.26h-.14l-.23,0-.14,0-.35.06-.21,0-.77-.25v.07c0,.22-.05.34-.08.57,0,.44-.07.67-.11,1.12l-.2.94-.24.09h-.08l-.64,0-.51-.35h-.72l-.14,0-.53.12-.13,0-.12,0h0l-.66-.08-.61-.14c.09-.37.15-.54.25-.91,0-.59,0-.89,0-1.47h0l-.11,0-.41.11h0c-.2-.16-.3-.25-.52-.41l-.1,0-.46.24,0,0-.6-.28-.14,0-.3.06a.76.76,0,0,1-.16,0l-.7,0-.61-.26-.13,0h0l-.17,0-.28.07H459c-.25-.08-.37-.11-.61-.2l-.11,0h0l-.7.25s0,0,0,.05c-.05.32-.07.47-.12.78s-.21.66-.34,1.1-.07.76-.11,1.27-.07.67-.1,1.12l0,.13c-.08.44-.12.7-.19,1.19s-.11.71-.19,1.16-.19.63-.32,1,0,.46,0,.67,0,.37,0,.61c-.06.45-.1.66-.17,1.11l.31.05c.16.1.24.14.41.23h0l.09,0,.13,0,.19,0h0l.12,0,.47-.24.07,0,.63.06.76,0h2l.74,0c0,.1,0,.19-.05.28l.54-.06a2.67,2.67,0,0,1-.89,2.07c.17.06.3.12.46.19h0l.6-.31.1-.06.65.28c-.08.26-.13.39-.21.65,0,.44-.06.67-.1,1.12s-.05.78-.1,1.29a.52.52,0,0,0,0,.11l-.18.68c0,.09-.05.18-.08.28h-.13l-.45,0-.08,0c-.21.09-.34.13-.57.24h0l-.66-.15a.43.43,0,0,0,0,0c-.07.35-.1.55-.18.93l-.25,1a.76.76,0,0,0-.11-.08.7.7,0,0,1-.14-.08l-.12,0h0l-.08,0h0l-.21.07-.09,0h0l-.11,0h-.11l-.26.05h0l-.49,0c-.24,0-.37,0-.62,0l-.76-.16c-.26,0-.4,0-.66,0l-.15,0-.44.07h0c-.3,0-.44,0-.74.08h-.66v0s0,.06,0,.09c-.07.5-.11.74-.19,1.24s-.1.6-.16,1-.17.52-.25.85-.11.51-.16.77c0,.1,0,.22-.06.35-.08.54-.13.8-.22,1.34s-.11.7-.19,1.18-.13.86-.23,1.45-.11.74-.19,1.23-.05.67-.08,1.09c0,0,0,.06,0,.08l.15-.11.09-.07.34.28,0,0,.58-.31h0l.08,0,.46.19c.24,0,.37.05.61.08l.57,0h.09a4.87,4.87,0,0,1,.55,0h.07a4.69,4.69,0,0,1,.58-.17l.45-.09.34-.07.16,0,.22-.05h0l.12,0,.64,0,.6,0h.13c.06-.36.09-.55.16-.92.16-.62.24-.95.39-1.58a.1.1,0,0,0,0,0c.26,0,.4,0,.64.07h.05c.22-.09.34-.13.55-.2h0l0,0,.67,0,.75.38h0l.66-.24h.06l.19,0,.16,0,.09,0a1.25,1.25,0,0,1,.24,0c-.07.24-.11.37-.18.63-.12.46-.17.69-.3,1.15s0,.51,0,.84v0l.36-.13.11,0,.59.28h.7c0,.06,0,.08,0,.15,0,.46-.05.69-.06,1.15s-.23.81-.37,1.35v0l.53-.18.09,0h.61l.71,0a1,1,0,0,1-.06.16c0,.29,0,.43-.07.72l-.3,1.11,0,.25c0,.35-.06.59-.11,1s-.07.51-.1.76v0a2.23,2.23,0,0,1,0,.23c-.12.52-.19.76-.32,1.27l-.11.07-.06,0a2,2,0,0,0-.37-.1l-.06.05c-.13.11-.22.17-.36.3l-.06,0a1.67,1.67,0,0,0-.2-.13l-.2-.14-.11,0h0l-1.2.44h-.05l-.63-.1-.57-.13a.66.66,0,0,0-.15,0l-.16,0-.19,0a.35.35,0,0,1-.11,0h-.05c-.16,0-.24,0-.43-.05s-.39,0-.64.05l-.06,0-.6.22-.74.26h0l-.61-.11-.61-.14a.15.15,0,0,0-.06,0c-.23.14-.35.23-.59.39H457l-.62,0-.65-.15-.08,0-.59.34H455l-.11,0a3.73,3.73,0,0,1-.41,0c-.24-.1-.38-.15-.61-.26l-.3-.25-.31-.29-.37-1.11-.1.15-.35.45-.37.5c-.37.48-.55.72-.92,1.22l-.07-.07c-.12-.12-.2-.2-.32-.34l-.09.09-.36.39a.34.34,0,0,1-.06-.06,4.41,4.41,0,0,1-.4-.29l-.67.06-.56,0,0,0-.55.4,0,0-.54-.25-.09.05-.14.09-.38.24-.07,0-.46-.1-.1,0-.57.18h0c-.21-.11-.33-.16-.55-.29l-.06.06h0l-.51.33,0,0-.42-.39-.13,0-.58.2-.24.06-.26.06-.1,0h0l-.53-.18a.35.35,0,0,1-.13,0l-.6.2h-.09l-1.22.15-.57-.07a6.18,6.18,0,0,0-.62-.12c0-.28,0-.42.1-.7.07-.46.1-.69.15-1.15.06-.28.1-.49.14-.69s.06-.33.09-.54c0,0,0-.1,0-.17v-.33c0-.27,0-.48,0-.81.08-.55.12-.84.19-1.37,0,0,0,0,0-.07l.55.18h0l.53-.21h0l.06,0c.25,0,.39,0,.59,0h.14a2.85,2.85,0,0,0,0-.4l.25-1.26c.08-.62.11-.93.18-1.53h0a4.32,4.32,0,0,1,.5,0l.67,0,.22,0,.38-.07.15,0c.08-.21.12-.31.2-.5s0-.39,0-.55,0-.39.05-.65,0-.54.09-.88a.09.09,0,0,0,0,0l.32,0c.51,0,.8,0,1.27,0H446a5.86,5.86,0,0,0,.1-.58c0-.33.07-.48.11-.8s.11-.66.16-1.09.08-.52.14-.88.1-.71.17-1.2.16-.83.28-1.37.16-.77.28-1.28,0-.61.06-.89,0-.33,0-.54h-.88l-.09,0-.5.15h-.71l-.8-.15h-.63c0-.37,0-.56.08-.94s.05-.67.09-1.11l-.51-.18-.11,0h0l-.52.19h0l-.67-.22c.08-.3.13-.45.21-.74,0-.48,0-.71,0-1.17,0-.19.05-.35.08-.5l-.12-.09,1.42-2,1-1.42.63-.86.41-.11.51.48c.29-.12.44-.17.74-.27l.79.18c.28-.1.43-.13.72-.22a.07.07,0,0,0,0-.05c.11-.35.18-.51.29-.86s0-.67,0-1.13.2-.81.34-1.36.11-.67.18-1.13.08-.79.13-1.28l.15-.07.29-.17,0-.06-.27-.36c0-.21,0-.41.08-.69s.1-.26.14-.38l-.17.14-.45.39-.21-.29-.7.24a7.64,7.64,0,0,0,.42-.92c-.33-.06-.49-.08-.79-.15.07-.27.1-.41.18-.68,0-.48.1-.72.15-1.2s0-.59.07-1l-.15-.05.06-.06-.2,0-.64,0-.82.07.15-.35c0-.51,0-.79,0-1.31s.11-.8.17-1.3h-.14a4.81,4.81,0,0,1-1-.19h0l-.14,0a2.65,2.65,0,0,0-.39.08l-.18,0h-.08a1.62,1.62,0,0,1,.11-.28c0-.34,0-.52,0-.87s.14-.65.24-1.05a.19.19,0,0,1,0-.08c.08-.55.11-.83.19-1.38s.18-.68.28-1.14,0-.86,0-1.44a.39.39,0,0,0,.15-.06h0l.11,0,.47.22h.07l.16,0,.14,0a4.18,4.18,0,0,0,.51,0h.08l.72,0c.23.07.33.13.56.21l.56,0,.7,0h.16l.07,0c.19-.34.36-.7.88-.46.14.29.07.46-.08.57l-.45,0-.29,0,.06,0,.23.23a1.93,1.93,0,0,0,.38-.18l.07,0h.1l.68.32.31.07.33.07c.23,0,.36,0,.59,0h0l.26-.05.16,0,.14,0,.72,0,.59.23.17,0,.15,0,.32-.05c.3.06.43.11.73.18l.68.1.67.07.62.05c.33,0,.49-.05.8-.11.06.33.06.48.11.79l.47.15c.13.48.21.74.33,1.2a.31.31,0,0,0,0,.08l.5-.43c.13-.28.19-.42.31-.71l.73-.75.09-.1a.87.87,0,0,0,.12.14,3.64,3.64,0,0,0,.44.07h0l.29-.09h0l.12,0,.55,0,.7.07.63.05.74.08.64.05.63.06c.2,0,.31.06.51.08l.66.19.65.07.74.06.72.08h0l.15,0h0l.17,0a2.19,2.19,0,0,1,.33-.06l1.34.29.37,0h0a1.51,1.51,0,0,1,.34,0l.62.22.65.06A6.7,6.7,0,0,1,474.54,548.71Z"/><path class="cls-3" d="M156.38,593.43l-.41-.11.28.18,0,0,.16-.08Zm19.83-42.17c0-.06,0-.12,0-.16v1.38a.3.3,0,0,0,.11,0C176.28,552,176.25,551.73,176.21,551.26Z"/><path class="cls-3" d="M182,594.17c0-.45.08-.67.12-1.12-.12-.53-.17-.8-.3-1.34s-.05-.68-.09-1.12l-.27-.68-.69-.26c-.24,0-.37,0-.61.07l-.55-.2c0-.53-.08-.81-.15-1.35l-.39-1.24a2.14,2.14,0,0,1,.1-.22c-.3,0-.45,0-.74,0l-.73-.49-.07.07-.35.31a.1.1,0,0,1-.05,0v-1.08c-.07-.46-.1-.71-.18-1.17s0-.52-.07-.86h-.11l-.18,0-.18,0a.78.78,0,0,1-.22,0l-.17,0h0l-.56.42h-.09l-.74-.08-.43-.2a.33.33,0,0,0-.13,0l-.13,0-.16,0h0c0-.31.06-.51.1-.75s0-.25,0-.4l.39-.64c0-.39,0-.59,0-1a.34.34,0,0,0,0-.1.66.66,0,0,1,0-.15v-.54s0-.1,0-.15v-1.06c.12-.34.17-.52.28-.88-.05-.43-.09-.66-.16-1.11s.07-.58.12-1c0-.26,0-.39,0-.66l.56-.1c.25,0,.37-.07.64-.1l.71-.22h.61l0,0h.14l.51.44,0,0,.1-.05.32-.15.11-.06.64.33.05,0,.31-.16c-.08-.48-.13-.72-.21-1.2,0-.24-.06-.42-.09-.6s0-.19-.06-.31c.21-.08.34-.12.51-.2l.09,0,1.21.2.15,0c-.11-.52-.18-.78-.29-1.29v0c-.09-.54-.11-.81-.19-1.36s-.13-.68-.22-1.13,0-.62,0-1l-.14,0-.62.18h0c-.27-.11-.4-.19-.67-.31l-.09,0c-.12.07-.22.11-.31.17l-.24.13a.1.1,0,0,0,0,0c-.08-.48-.11-.72-.19-1.2s0-.75,0-1.25l-.14.11-.47.36-.08,0-.6-.15c-.31.05-.46.05-.76.08l0,0-.56.21h-.05l-.45-.1-.63-.43c-.27,0-.41.05-.69.06a0,0,0,0,0,0,0l-.09.21a.84.84,0,0,0,0-.17l-.4-1.21c-.16-.41-.26-.6-.42-1s-.15-.53-.22-.81c0-.07,0-.16-.07-.25a1.15,1.15,0,0,1-.06-.17c-.11-.28-.18-.47-.3-.81s-.24-.6-.41-1l-.06-.25c-.07-.28-.12-.5-.22-.84l-.29-.25c.35-.33.77-.66,1.27-1.07l0,0h.23c.14-.16.2-.25.33-.38a.46.46,0,0,1,.07-.1.25.25,0,0,0,.1.08l.15.12,0,0a.14.14,0,0,1,0-.07c0-.19.08-.39.11-.62a2.5,2.5,0,0,1-.23.23c0-.11-.06-.22-.11-.37a3,3,0,0,0,0-.31c0-.28-.06-.49-.1-.83,0-.16.05-.25.07-.4v0c.31,0,.47,0,.78,0l.55-.08.08,0,.6-.2c-.19-1.09-.27-1.66-.45-2.75-.06-.14-.08-.22-.14-.36a0,0,0,0,1,0,0l.75,0c.22,0,.36,0,.55,0h.1c.14-.08.25-.11.37-.17V551.1c-.05-.36-.08-.58-.13-1s0-.81,0-1.37l-.06-.16c-.13-.34-.22-.55-.38-.94.1-.34.13-.5.21-.82-.08-.13-.11-.2-.2-.34a.44.44,0,0,1-.11.09l-.54.49-.07,0c-.26-.11-.43-.19-.72-.3,0,0,0,0-.07,0l-.5.38h-.13c-.17,0-.29,0-.52.05l-.67.06h-.12l.24-.25-.35-.32c-.27.14-.52.32-.77.48l-.39-.21-.08.07-.48.38a.07.07,0,0,1-.06,0c-.25-.12-.4-.18-.65-.31l-.08.06-.54.38-.06,0c-.29-.12-.44-.2-.75-.35l-.12.05c-.16.07-.28.1-.47.17l-.58.34-.08,0c-.17,0-.31,0-.46-.07l-.17,0c-.31-.08-.47-.11-.78-.2l-.06.05-.46.43-.07,0-.64-.29-.11,0h0l-.55.23,0,0-.62-.31-.09.05c-.17.09-.29.13-.48.22l-.69.23h0l-.57-.26-.55,0h-.09l-.07,0-.21.09-.2.08-.51.38v0l-.08,0-.34-.1-.1.05a1.91,1.91,0,0,0-.32.16v-.17a1.47,1.47,0,0,0-.06.14h0c-.14.31-.22.5-.37.86-.2.06-.3.08-.5.15-.06.28-.08.42-.15.71l-.11-.13c-.22-.3-.37-.49-.64-.82s-.48-.45-.81-.73c-.26-.1-.4-.15-.67-.27l-.07,0a5.92,5.92,0,0,1-.48.35l-.65.25h0l-.71-.3-.1,0-.58.24h-.63l-.07,0-.52.22h0c-.27-.08-.42-.11-.69-.2l-.71-.17,0,.06-.46.52h-.1l-.49-.06-.68,0h-.69l-.78-.1,0,0c-.17.17-.27.25-.46.43l-.12,0-.38.07-.11,0h0l-.72-.06c-.25,0-.36-.06-.63-.08l-.64-.17s-.05,0-.06,0L143,550l-.08,0-.52-.16-.67,0s0,0,0,0l-.38.35-.08,0-.57-.25-.05.06a2.51,2.51,0,0,0-.3.34l-.07-.06c-.16-.1-.25-.18-.43-.31l-.06.09-.05.08c.07.48.11.72.18,1.19l.25,1,.43,1.17c.11.4.18.59.29,1s.07.45.12.74l-.11.11.68.12.09,0,.5-.54a.1.1,0,0,1,0,0l.72.14c.06.56.08.84.15,1.4s.09.63.16,1.05a1.37,1.37,0,0,1,.16.18c.31.12.47.16.76.28l0,0c.21-.12.35-.18.53-.29l.09,0,.39.18c.06.28.09.42.14.7l.27,1.1a2,2,0,0,1,.17.29c.34,0,.5,0,.81,0h0l.19,0,.19-.05.24-.06.14,0,.68.16h0l.15-.06c-.06-.52-.1-.79-.17-1.31,0-.26,0-.38.08-.63l.49-.31.05,0c.35,0,.53,0,.87.05h0l.38-.11a.7.7,0,0,0,.14,0c.1.57.15.86.23,1.43s.07.71.1,1.18.07.56.12.93.22.58.33.92a.53.53,0,0,1,0,.15c0,.28,0,.46,0,.71v.15c.11.34.18.55.29.83l.08.25c0,.23,0,.37-.08.61h.19l0,.15c0,.25.07.43.13.72s.12.63.2,1.07c-.05.19-.07.28-.12.46h-.13c-.16,0-.28.05-.48.06h-.8c-.29,0-.42-.08-.69-.13l-.81,0h-.41a4.26,4.26,0,0,1-.5,0v0a3.19,3.19,0,0,0,.09.41c0,.23.09.43.15.73s.2.62.32,1h-.76l-.09,0c-.18,0-.29.08-.49.11h0l-.35-.08-.17,0a.15.15,0,0,1,0,.07c0,.32,0,.48-.05.79.23.51.34.74.55,1.23,0,.41,0,.62.07,1,0,.11,0,.18,0,.26l.07.46.75.25h0l.54-.19h0l.67-.09c0,.16,0,.29,0,.42s0,.38,0,.62V574c.09.38.12.58.22,1l.84.09.59.07h0l.58-.18,0,0,.27,0,.3-.06.1,0,.14,0,.09,0,.33.08.32.11c.1.49.14.72.22,1.23s.23.64.39,1.06c0,.27,0,.4,0,.67h-.06l.36,1.36c.1.46.15.71.25,1.18s.12.56.2.94.07.68.13,1.14,0,.49,0,.81l.35,1.1c.08.33.11.5.2.83h-.78l-1-.54-.11,0-.3.13v0c-.09-.55-.13-.83-.22-1.39-.08-.25-.13-.37-.21-.61l-.81,0c-.33-.17-.5-.25-.82-.43l-.69,0s0,0,0,0,0,.13-.07.22c0,.29,0,.43,0,.72.13.44.19.66.3,1.1,0,.24,0,.37,0,.61l-.14,0-.66-.13-.65-.28-.08.06a2.55,2.55,0,0,0-.28.21c0,.49.06.74.08,1.23l.46,1.11v.44h-.14l-.6,0c-.26,0-.38-.07-.64-.1l-.53-.09v0c0,.39,0,.59,0,1,.18.4.27.59.44,1,0,.46,0,.69,0,1.14s.16.58.25,1l.18.72h0l.6.29,0,0,.43-.15.11,0,.66.31h0l.48-.15.13,0,.68.32h0l.45-.15.09,0,.6.06.63.06c.27.11.41.18.67.3h0l.39-.15.11,0c.23.1.36.18.59.29l0,0,.34-.12.11,0,.12-.05c.16.12.28.19.4.27l.41.11.06,0,.37-.21.11-.06.59.44,0,0,.47-.3.07-.06.71.17.54.2,0,0,.45-.18.1,0,.67.07c.2,0,.31,0,.53.05a7,7,0,0,0,.69.47l.3,0h0l.12,0c.2-.12.29-.2.49-.32l.19,0H163l.13,0,.4.39.08.07c.21-.32.32-.48.51-.81v0a4.52,4.52,0,0,0,.11-.47h.83l.28.26c.13.25.2.36.33.6l.35.4.66-.06c.26,0,.4,0,.67,0l.63.21.62,0,.65.07c.27,0,.41,0,.68,0l.22,0,.38,0,.57.06.63,0,.64.07.73.2c.22.14.34.21.55.36l.06,0c.19-.17.3-.26.49-.41l.05,0c.25,0,.39,0,.64,0l.71.06.56.11c.17.12.29.19.42.27l.24.15,0,0,.64-.21.4-.11.12,0,.6.05,1.2.09.62.09.46.28.47,0h.08l.3-.15.06,0h.36C182.08,594.91,182,594.65,182,594.17Zm-12.46-18.9-.25.92a.71.71,0,0,1,0,.15.74.74,0,0,0-.13-.12h0L167.75,580l-.12.33-.11.3a.34.34,0,0,1,.09.12h0c-.2.14-.32.22-.5.36,0,0,0,0-.05.08l-.08-.06h0c-.16.22-.23.34-.38.57a6.25,6.25,0,0,1-.5.4l-.51.26c-.26-.05-.39-.07-.65-.14-.2.17-.31.25-.53.41-.13-.08-.2-.14-.33-.23-.34,0-.5-.07-.83-.14l-.68.18-.61-.28h-.41l-.44.29c0-.49,0-.72,0-1.2s-.11-.71-.19-1.16-.22-.6-.35-1-.1-.63-.18-1.05v-1.1c-.09-.46-.13-.69-.22-1.16l-.41-1c0-.4,0-.6,0-1s-.2-.63-.33-1.06-.11-.69-.18-1.15a8.91,8.91,0,0,0,.08-.89c-.08-.41-.12-.6-.18-1s-.15-.66-.25-1.1-.18-.7-.31-1.16-.07-.56-.12-.94,0-.67,0-1.11-.21-.73-.36-1.2-.1-.58-.15-1l-.33-1.15c-.05-.38-.08-.56-.13-.94,0,0,0-.08,0-.11a7.6,7.6,0,0,1,.81-1,1,1,0,0,1-.23-.22.15.15,0,0,1-.08-.08l.34.09.07,0,.3-.2,0,0a2.14,2.14,0,0,0,.26-.19l.56.21.46.2.38-.23.63,0,.65,0c.27.08.4.13.68.19l.63.35.66.46.65.3c.23.29.35.44.56.73l.61.58c.2.38.28.58.48,1s.28.47.47.81l.65.61c.18.38.26.57.46.93s.21.33.36.55,0,.38.07.65c.18.53.26.81.46,1.35s.13.63.21,1.05c.06.14.12.26.16.37l.11-.1.28.68c0,.37,0,.55,0,.92,0,.55,0,.83,0,1.37s0,.62,0,1,.18.72.31,1.2C169.53,574.84,169.51,575,169.5,575.27Z"/><path class="cls-3" d="M369.37,568.3a.71.71,0,0,1-.07.83c0-.16,0-.31.05-.53A2.36,2.36,0,0,0,369.37,568.3Z"/><path class="cls-3" d="M376.81,542.32c0,.4.07.59.11,1s-.07.79-.12,1.31-.05,1-.1,1.59-.06.78-.1,1.32-.14.87-.22,1.46c-.22.11-.32.18-.54.31l0,0c-.2-.17-.32-.26-.53-.45l-.11.06-.67.4a3.16,3.16,0,0,0-.2.27V551c0,.65-.06,1-.1,1.63l-.41.47a.18.18,0,0,0,0-.07l-.58-.75-.84,0v0c0,.39,0,.59-.06,1l.15,1.4c-.14.43-.21.63-.36,1.07a1.06,1.06,0,0,1,0,.19l-.72.27h0c-.2-.11-.32-.18-.52-.27s-.43-.18-.73-.28l-.12,0c-.27.07-.44.13-.73.22h0l-.69-.41-.12,0-.51.21v0c0-.41,0-.62,0-1,0-.74.05-1.11.09-1.85,0-.1-.06-.15-.09-.26s-.26,0-.44-.07l-.06,0c-.22.14-.36.21-.6.35l-.05,0c-.27-.1-.42-.18-.69-.3l-.6-.1-.08.05-.71.34h-.07l-.6-.1-.58-.28c-.31,0-.46,0-.77-.06v0c0,.24,0,.38,0,.63s-.11.55-.18.92c.07.54.1.8.17,1.34-.12.61-.19.92-.3,1.53,0,.54.05.81.11,1.34v1.6c-.13.56-.19.84-.33,1.4s0,.76,0,1.26v.23c0,.47,0,.78,0,1.31s0,.83-.06,1.4h.9l.53.33h0c.28-.11.41-.18.66-.29l.74.07.62.15c0,.47,0,.72.07,1.2s0,.77-.07,1.28h1.18l.76.19c-.06.39-.1.6-.15,1s.06.79.12,1.32-.07,1-.12,1.64,0,.81-.05,1.31c-.18-.12-.32-.21-.52-.36l-.12,0-.51.15c-.3.11-.45.16-.73.28,0,.48,0,.71-.07,1.19s-.05.74-.1,1.24h-1.43l-.07,0-.67.32,0,0-.75-.34h-.69l0,0c-.07.18-.09.27-.15.45.07.39.12.58.2,1-.11.51-.15.78-.26,1.29s-.08,1-.14,1.63,0,.78.06,1.31-.12,1-.2,1.63.09.86.16,1.43-.1.74-.16,1.23a1.66,1.66,0,0,1,.31.14l.65.18.21-.06.1,0,.33-.07.14,0c0,.24.07.37.1.61l-.2,1.42c-.05.49-.08.77-.12,1.24,0,0,0,.08,0,.11.2-.19.32-.3.48-.47l.08-.08.61.49a.09.09,0,0,0,.05,0l.63-.38.17-.1a7.23,7.23,0,0,1-.26.68c.07.58.1.89.15,1.48s-.12,1.09-.18,1.82c.25,0,.39,0,.64.05l.52.18.06,0,.56-.3h0l.2-.12a1.13,1.13,0,0,1-.1.13c0,.41,0,.61,0,1s0,.81,0,1.34v1.61c0,.53-.06.82-.1,1.35s-.16,1-.27,1.63a1.77,1.77,0,0,1-.05.32l-.11-.11a3.53,3.53,0,0,1-.32-.34l-.63,0-.05,0c-.17.07-.26.1-.44.19l-.66.21h0c-.2-.12-.31-.19-.52-.3h-.46s0,0-.05,0l-.61.33-.06,0c-.19-.05-.29-.1-.49-.16s-.42-.08-.7-.11l-.07,0-.6.32,0,0a6,6,0,0,1-.54-.3l-.72-.11-.1,0-.56.2v0c-.07-.26-.12-.41-.21-.66s-.16-.32-.29-.54c-.25-.46-.38-.68-.61-1.14,0,.06-.05.13-.07.18l-.26.72c-.15.16-.21.24-.36.41l-.66,1.17a.71.71,0,0,1,0-.2v-.06l-.13.16c-.12.15-.21.28-.34.46l-.1,0-.53-.16-.1,0-.43.17,0,0c-.25-.25-.37-.38-.6-.64l-.1.09c-.18.16-.29.28-.48.47l-.09,0-.62-.17-.62,0-.73-.26-.67-.13s0,0,0,.05c-.23.25-.37.39-.6.65l-.06-.06c-.2-.21-.31-.31-.52-.54l-.09.09c-.23.23-.38.36-.63.6h-.11a3.53,3.53,0,0,1-.54,0c0-.12-.07-.2-.11-.34,0-.41,0-.61,0-1s.06-.81.11-1.36.16-1,.26-1.73v-1.35c0-.68-.06-1-.09-1.65a.15.15,0,0,1,0-.07l.65.19a6.26,6.26,0,0,0,.61.21l.65-.13.14,0c0-.24,0-.37.08-.61,0-.6,0-.91.06-1.51s0-1.06-.06-1.77h0l.48-.08.64.2.59-.07h.15c0-.3-.05-.45-.06-.75.13-.58.18-.86.3-1.43-.07-.5-.09-.74-.16-1.23a1.09,1.09,0,0,1,.18-.15l.07-.06.68.26.49.18.06,0c.27-.22.4-.34.68-.55.08-.08.12-.13.2-.2-.1-.37-.15-.57-.25-1l.35-1.28c-.09-.48-.14-.8-.2-1.21,0-.12,0-.24-.06-.39.11-.52.14-.77.24-1.28s.11-.81.15-1.23c0-.11,0-.25,0-.4-.08-.55-.12-.83-.22-1.41.07-.48.11-.73.18-1.2a1.73,1.73,0,0,0-.15-.2h-.43a5.62,5.62,0,0,0-.62-.2s0,0-.07,0l-.7.49-.05,0-.52-.31h-.75l-.1,0-.66.24v0c0-.6,0-.92.07-1.54,0-.46,0-.71,0-1.16h-1.13l-.72-.29c0-.35,0-.53,0-.89.07-.59.11-.88.18-1.45v-.15c0-.56,0-.9.05-1.51s0-.83,0-1.36v0h1.21c.28.08.44.13.68.18l.14,0c.07-.6.09-.9.15-1.51s-.08-.78-.15-1.29l.16-.36,0-.05.45.06c.25.27.37.4.59.66l0,0,.55-.29,0-.08.05,0,.62,0c.3,0,.46,0,.76,0l.7.37c0-.26.06-.37.08-.61,0-.41.07-.61.11-1s0-.75,0-1.21a.92.92,0,0,0,.14-.14c0-.63,0-1,0-1.61,0-.35,0-.6,0-.87s0-.3,0-.5c.07-.64.1-1,.17-1.63s.09-.86.16-1.43-.12-.74-.21-1.24c.13-.62.2-.93.32-1.55,0-.58,0-.85-.07-1.43l-.14.13-.05-.06-.39-.35-.13,0-.18.05h0c-.25.06-.45.11-.67.18l-.11,0h0l-.32.09h0l-.63-.41-.12,0-.43.14-.73.27h0l-.56-.23-.6-.25-.14,0-.55.11c0,.45,0,.68,0,1.14-.06.78-.08,1.18-.13,2-.1.17-.14.26-.23.43l-.11,0-.32-.1-.59-.56-.08.08c-.17.17-.27.27-.45.47l-.09,0-.53-.19s-.08,0-.1,0l-.73.3,0,0-.64-.4-.11.05c-.21.11-.36.18-.6.28v0c0-.38,0-.58-.06-1,.05-.57.06-.85.11-1.45s.07-.68.13-1.15l-.44-.28-.64-.08-.1,0c-.26.12-.42.18-.71.29v0a4.16,4.16,0,0,1,.16-.4c-.09-.64-.14-.95-.22-1.6.11-.8.17-1.2.28-2l-.15.09-.59.36h-.12l-.54,0c-.29-.19-.43-.3-.72-.48.08-.34.11-.51.18-.85-.05-.56-.07-.84-.12-1.4s.07-1.05.12-1.75,0-.84,0-1.4,0-.94.1-1.54v-.09h0l.44.21h.05l.3-.15.09,0,.59.35h.45l.67-.48.4-.09.14,0c.28.12.43.16.69.27h0l.53-.21.09,0c.23,0,.36.09.59.13s.39.14.67.23l.68.28h0l.28-.06.16,0h0l.13,0,.7.2h0l.65-.27,0,0,.66-.09.55,0h.06l.61-.23.11,0,.71.29H353c.25,0,.39,0,.64,0l.58.35c.25,0,.4,0,.63,0h.08c.27-.11.41-.18.65-.29l.07,0c.24,0,.38,0,.6,0h.06l.55-.21.11,0,.61.29.24-.07.37-.08.14,0c.11.33.17.5.25.83s.2.37.32.61c.2.54.3.81.5,1.29a.65.65,0,0,0,.05.15c.15-.33.23-.51.4-.84l.43-.32.7-1c.05-.14.08-.22.14-.36a.08.08,0,0,1,0,0,2.61,2.61,0,0,0,.39,0h.09l.27-.18.11-.07c.2.23.31.37.51.62l.64.08h.08l.59-.37,0,0,1.22,0,1.13,0,.7.22h0l.53-.14.1,0,.53,0h.05l.64-.22.13,0a6,6,0,0,0,.65.48h0l.45-.13h0l.15,0,.6.27.66.11h.06c.24-.12.39-.18.62-.28l.11,0,.57.38.07,0,.58-.52.06-.05.73.23c.29,0,.44,0,.72,0s.4.11.67.18l.58.26h.05l.52-.29.16-.09Z"/><path class="cls-3" d="M336.88,543.66c0,.17,0,.31,0,.45v0c0,.39,0,.69,0,1.18s-.13.83-.23,1.38,0,1,0,1.66l-.15,0-.16,0-.45.08-.22,0-.2,0-.1,0-.74-.27s0,.06,0,.09,0,.18,0,.31c0,.61-.08.92-.13,1.52s.05,1.12.09,1.86l-.15,0-.36-.15L334,552l-.61.36h-.75v0a3.39,3.39,0,0,1,0,.45v1.48c0,.51-.05.77-.08,1.28l-.13-.16h0c-.06-.07-.11-.15-.18-.25a1.05,1.05,0,0,0-.11.07l-.34.21-.15,0-.45.09h0c-.2-.15-.29-.23-.5-.41h-.65l-.05,0-.76.38h-1.38c.05-.55.07-.82.13-1.35,0-.77,0-1.14,0-1.91h-.09l-.05,0-.44.25-.05,0c-.22-.12-.35-.16-.59-.27h-1.42l-.09,0-.68.17h0c-.25-.08-.38-.11-.63-.2h-1.54l-.64.06h0c0,.07,0,.12,0,.2,0,.6,0,.91,0,1.53l.05,1.81c-.11.61-.16.92-.28,1.54a4.31,4.31,0,0,1,.32.4c.19.44.28.67.47,1.12s.17.59.3,1,.29.68.49,1.12c.2.28.32.42.5.69l.48,1.19c.16.43.26.63.42,1.05l.5,1.18.28.07c.12.11.21.17.32.26l.1.08.54.13h.05l.68-.31.07,0h2a5.24,5.24,0,0,1,.56,0h.82l.08,0,.37-.08.14,0c.23.06.36.07.61.15h.69c0,.52,0,.78,0,1.31s.05.74.09,1.24l.5.14h0l.5-.23.11-.06c.3.2.43.3.73.49,0,.33,0,.5,0,.83,0,.58-.06.87-.09,1.44s0,1,0,1.66,0,.82,0,1.38l-.61.27h-.05l-.59-.2h-.72v0c0,.47-.07.73-.13,1.21s0,.78,0,1.31l-.14,0h-.12l-.65-.17-.13,0h0l-.41.1H330l0,0-.56.31-.05,0-.66-.32-.09,0-.52.29.14.21c.18.47.27.71.43,1.19l.45,1.39c.18.42.28.62.45,1s.27.8.45,1.32c0,.09,0,.13.05.2,0,.62,0,.92-.05,1.54s-.07,1.08-.1,1.8c0,.5.06.76.1,1.2h0c0,.07,0,.13,0,.2l.14-.25.05-.1c.29.22.42.33.68.54h0l.24-.07.24-.06.08,0h.08l.14,0c0,.3,0,.45,0,.74,0,.58.06.88.09,1.46-.05.42-.08.64-.11,1.06l.37.25,0,0c.25-.11.37-.18.6-.27l.06,0,.79-.06c0,.25,0,.37-.05.62,0,.6,0,.89.07,1.49s-.07,1-.12,1.69l1.12.19h.07l.6-.3.15-.07v.29c-.06.39-.08.59-.13,1,0,.58.07.87.13,1.45s-.07,1-.11,1.68c0,.31,0,.54,0,.77v0c0,.18,0,.36,0,.6,0,.66,0,1-.07,1.67a1.1,1.1,0,0,1-.09-.14l-.05,0-.39-.1h-1l0,0-.66.46,0,0-.54-.43h-1.32l0,0-.54.46-.05,0c-.17-.17-.27-.25-.46-.42a.31.31,0,0,0-.09.07c-.22.14-.33.25-.57.4h-.07c-.2-.06-.32-.11-.54-.19l-.55-.26-.1,0-.59.24h-.65l-.58-.27c-.29,0-.44,0-.74.08h0l-.66.41,0,0-.57-.37a4.41,4.41,0,0,0-.31-.48c-.13-.17-.22-.26-.36-.43-.23-.43-.34-.66-.57-1.1a.58.58,0,0,0-.1.12l-.25.24c-.14.17-.2.26-.34.44-.23.56-.34.85-.57,1.42a1.33,1.33,0,0,0,0,.21h-.43l-.63-.13-.52-.28-.65-.06-.06,0-.5.24h-1.14l-.58-.28h-.72l-.65.06s0,0,0,0l-.58.41h-.09c-.43-.09-.67-.13-1.14-.21s-.74-.17-1.24-.28l-.09,0c-.23.08-.37.14-.61.24l0,0-.65-.26h-1.82l-.06,0-.65.25s0,0,0,0,0,0,0,0c0-.42,0-.62-.1-1.05v-1.4c0-.33,0-.58,0-.83s0-.51,0-.84c0-.56,0-.84,0-1.4l.05-1.56v-.06l.47.08h.07c.23-.1.36-.15.57-.26l0,0,.58-.05.14,0c.06-.1.09-.17.16-.28,0-.59,0-.88-.06-1.48s-.08-1.09-.11-1.77c0,0,0-.09,0-.14a5.5,5.5,0,0,0,.5.34h1.43c0-.36-.05-.54-.1-.89.05-.59.08-.9.12-1.5v-1.15a.66.66,0,0,0,.09.15l0,.06c.26-.19.39-.3.61-.48,0,0,.06,0,.08-.07.23.14.35.2.56.34h2.83c0,.46,0,.69.06,1.15,0,.67,0,1,0,1.66v.17l.09-.11a.44.44,0,0,0,.06-.1l.43.38,0,0,.58-.39,0,0c.21,0,.29,0,.5,0l.62.29.71.13.06,0c.24-.14.36-.24.58-.37l.08,0,1.3.4h0l.64-.21c0-.28.07-.42.11-.69,0-.59,0-.88,0-1.47s0-1,0-1.73,0-.88,0-1.48c-.07-.18-.09-.28-.15-.48s-.2-.33-.34-.55c-.11-.47-.18-.71-.31-1.18s-.23-.76-.39-1.25l-.74-1.05c-.14-.55-.22-.83-.35-1.39l-.5-.83c-.19-.54-.29-.79-.46-1.33H317l-.53-.14-.09,0-.62.37-.05,0-.57-.26h-1.86l-.54-.19V574.9c0-.58,0-.86-.05-1.45l-.14.09,0,0-1.91-3.69.14,0c0-.08,0-.15,0-.25,0-.52,0-.8,0-1.3v-.08l.61.21.55,0H312c.28-.21.41-.32.67-.54,0-.43,0-.65,0-1.05h-.15l3.23-1.16c.17,0,.3,0,.45-.09a1.86,1.86,0,0,0,.28,0c0-.22,0-.34,0-.56-.21-.38-.32-.57-.52-.95s-.4-.66-.66-1.11-.23-.74-.38-1.24l-.41-1.36c0-.31,0-.46-.07-.77,0-.57-.05-.87-.08-1.44s.08-.7.14-1.14l-.16-.17-1-1.2,0,0H313v-2.18c0-.46,0-.69,0-1.16l-1.11-.13-.13,0h0l-.12,0-.27,0h-.06l-.2,0c-.06-.18-.08-.29-.13-.49.06-.63.1-.94.17-1.58v-1.93l-.17,0H311l-.21,0-.22.05-.09,0h-.08l-.49.1-.73-.13a.89.89,0,0,1,0-.14c0-.42,0-.63,0-1v-1.4c0-.66,0-1-.07-1.66,0-.06,0-.13,0-.2.06-.43.1-.7.14-1.18,0-.66,0-1-.06-1.66a1.89,1.89,0,0,0,.1-.21.43.43,0,0,1,0-.07l.49.19c.26,0,.39,0,.64.09h1.2l.49-.23.11-.05.47.46,0,0,.56-.18.11,0h.59l.65-.23.1,0c.27.06.42.08.69.16s.36,0,.6.06a5.54,5.54,0,0,1,.6.06h.71l.63.25h0c.23-.08.35-.15.55-.23,0,0,.05,0,.08,0l1.27.19h0l.6-.17.08,0h1.26c.14.24.19.36.32.6s.2.37.31.62c.23.44.37.67.58,1.08a.67.67,0,0,0,.06.12c.14-.29.2-.43.33-.71s.17-.4.28-.66l.63-.93.07-.1.14.15.05,0,.48-.39,0,0,.35,0,.12,0,.18,0,.51.1.65.19h.59a4.35,4.35,0,0,1,.51,0l.66,0,.6.16h0l.66-.16.1,0h.65l.54.19h0l.06,0,.71-.42.08-.06.64.27,0,0,.56-.23.13,0c.24.2.36.3.61.49h0l.16,0,.39-.07.14,0,.6-.29.11-.05.68.36.41.1h0l.1,0c.05.33.07.5.12.83C336.86,542.8,336.86,543.09,336.88,543.66Z"/><path class="cls-3" d="M304.85,577.84l-.15.12a1.22,1.22,0,0,1,.17.15c.05-.16.1-.31.14-.47C305,577.7,304.91,577.76,304.85,577.84Zm-.13,19.84c-.09-.67-.13-1-.23-1.66s0-.85.05-1.39l-.05-1a1.54,1.54,0,0,0,.12-.34l-.14,0a2.38,2.38,0,0,0-.37.06H304l-.13,0-.61-.2s-.06,0-.07.05l-.6.43v-.08c0-.72.06-1.12.09-1.86s0-.91,0-1.51c-.31-.23-.46-.35-.78-.57l-.14,0h-.09l-.21,0-.21,0-.38-.14c0-.41,0-.63.06-1-.08-.57-.13-.87-.21-1.45a3.41,3.41,0,0,1,.05-.55l-.76-.35-.09.06-.55.35-.05,0-.31-.23c0-.5.06-.75.08-1.24V583.7c0-.64,0-1,0-1.59v-1.38c-.08-.62-.13-1-.21-1.56v-1.32l.18-1c0-.2,0-.3-.1-.49l.6-.24.09,0h.82l.73.48a3.72,3.72,0,0,0,.57-.08,4.31,4.31,0,0,0,.56-.05.23.23,0,0,0,.08-.11c.11-.53.15-.79.26-1.32-.11-.6-.16-.91-.27-1.52l.82.14.61.21c.29,0,.44,0,.73.07-.12-.66-.19-1-.32-1.66.06-.66.09-1,.16-1.67s.09-.83.15-1.37c-.07-.31-.11-.47-.2-.77-.25-.27-.38-.41-.65-.67l-1.15.43v0l-.14.06c0-.6,0-.9,0-1.49s.1-.93.17-1.56l-.71.56-.67-.56-.79.35-.67-.35-.47.69c-.25-.21-.36-.33-.62-.56l-.34-.1c-.08.11-.13.18-.21.31l0-.12c-.19-.4-.28-.64-.48-1.07-.17-.59-.27-.89-.46-1.46s-.08-1-.13-1.61-.23-.91-.38-1.51c-.08-.16-.13-.29-.19-.4s-.17-.35-.29-.57l-.49-.71c-.06-.55-.09-.83-.14-1.39-.16-.24-.24-.37-.39-.61a.83.83,0,0,1,0-.22l.72-.3.1,0c.3.09.46.14.73.24l.08,0,.63-.55.08-.08.11.1a1.27,1.27,0,0,0,.12.1c.08-.44.13-.66.21-1.11-.13-.57-.2-.86-.34-1.44.07-.27.1-.41.15-.66v0h.77l.58-.36.1-.06.18.12.12.09c.1-.62.16-.94.26-1.57s.05-.89.06-1.49c-.06-.14-.1-.22-.17-.36l0,0h.77c.23.09.34.15.55.24l.08,0c.19-.23.3-.34.51-.57.05-.57.08-.86.11-1.45s.1-.83.17-1.38-.07-1-.11-1.74,0-.83,0-1.37c-.07-.38-.11-.58-.18-1,0-.08,0-.12,0-.21l-.15.07-.5.21,0,0c-.27-.2-.41-.32-.66-.53l-.09.07c-.23.19-.38.29-.63.49h-.1c-.23,0-.38,0-.64,0l-.07,0c-.21,0-.34.1-.56.17h0l-.66-.74-.09.07-.6.49-.06,0c-.26-.22-.39-.35-.68-.57l-.13,0-.17,0-.24.05h-.08l-.63.7h-.69l-.76-.61-.09.07-.52.35h-.64c-.3-.16-.43-.24-.73-.39l-.08.06-.46.36h-.66l-.69-.35-.58-.05h-.65l0,0-.43.38-.05-.05c-.19-.18-.32-.28-.55-.48l-.08.08-.33.28-.05,0-.41-.3a.3.3,0,0,0-.1.07h0c-.19.68-.29,1-.46,1.66l-.35.42-.35.41-.05-.08-.63-.93-.46-.34c-.09-.24-.13-.37-.24-.61H283c-.29,0-.43,0-.69,0s-.43-.13-.72-.21l-.76-.25-.06,0-.54.45-.06-.05-.61-.49a.53.53,0,0,0-.1.06l-.57.3-.71.21h0a4.78,4.78,0,0,1-.54,0h-.67c-.25,0-.39,0-.65,0s-.43,0-.71,0H275l-.62-.33-.14,0-.25.05-.14,0-.15,0h0c-.29-.13-.45-.19-.75-.31h-.62l0,0-.64.54h-.11l-.42,0-.59-.2-.1.05-.6.24h-.06l-.49,0h-.37a4.1,4.1,0,0,0-.49,0l-.43-.26s0,.09,0,.13c.06.61.09,1,.16,1.63s0,.81,0,1.36.13,1,.21,1.61,0,.82,0,1.37c.12.4.18.6.29,1a2.59,2.59,0,0,0-.17.33s0,0,0,0l.67-.2.1,0h.6a4.7,4.7,0,0,1,.53,0c0,.63,0,.95.08,1.58s.08.91.15,1.51v.28l.74.2h0l.59-.16.1,0,.51.06,0,1.29c0,.58,0,.86,0,1.43,0,.24,0,.36,0,.6v0l.6-.2.08,0h.56c.27.17.41.25.67.43l0,0,.07-.05.17-.09c-.19.5-.3.75-.49,1.25s-.28.78-.48,1.3-.1.87-.18,1.44-.21.87-.36,1.44-.14.8-.22,1.32l-.47.61-.05,1.44c-.13.25-.2.37-.33.63s-.08.27-.14.45l0,0h-.74l-.69-.34-.1.05-.61.29h0c-.21-.12-.33-.2-.55-.31l-.11,0-.58.3-.05,0-.51-.31-.07.07-.56.62-.06-.08c-.16-.22-.27-.37-.46-.6v.21h0c0,.47,0,.79,0,1.3v0c.05.43.08.63.14,1.06H267l-.53,0-.63-.06-.06,0-.53.37c0,.53-.05.8-.07,1.36s.06.93.11,1.5c0,0,0,.07,0,.11.07.56.11.85.18,1.42v.8l.64.5.07.05.52-.58.09-.1.49.62c.09.4.12.61.2,1s.06.66.1,1.09l.57.47,0,0c.28-.12.43-.17.71-.27l.51-.18.08,0h1.27l.61.42.07.05.12-.13.12-.14.2,1.3c-.08.56-.1.85-.17,1.42s0,.94,0,1.57,0,.81,0,1.35.07.94.11,1.57.08.78.13,1.29.06.61.1,1,0,.41,0,.67l-.14,0-.55-.16-.54-.14a6.54,6.54,0,0,0-.66-.28l0,.07-.26.39c0,.44,0,.65,0,1.09l-.15,1.43c.12.38.17.57.29,1l-.16,0-.65-.07-.14,0h0l-.22,0-.2,0-.1,0c-.21-.16-.31-.26-.54-.42a.71.71,0,0,1,0,.14c.13,1.29.2,2,.32,3.29,0,.29,0,.42-.07.7l-.12-.12-.65-.62-.61-.1-.07,0-.59.29c.06.68.08,1,.14,1.68s-.07.82-.11,1.36,0,1,.1,1.62c0,.18,0,.32,0,.46,0,.31,0,.58.07,1s.09.54.15.85h0l.13,0,.13,0,.21,0,.14,0c.29.19.44.3.72.5h.57l.5-.39.09-.07.71.69.28,0,.26,0h.06l.14,0,.62-.06c.25.11.4.17.63.25l.08,0c.2-.18.3-.29.48-.46l.06-.06.65.27a4.79,4.79,0,0,0,.52,0l.63,0h.46a.7.7,0,0,0,0-.14c.17-.58.25-.88.43-1.46a4.89,4.89,0,0,1,.33-.51,1.34,1.34,0,0,1,.27-.17,1.05,1.05,0,0,1,.11-.07l.65,1.2c.17.2.23.3.39.49s.16.44.26.71h0l.11,0,.11,0,.27-.07,0,0h0l.13,0c.28.09.41.14.71.22s.34.14.53.22H279c.25-.14.38-.2.64-.33a6.19,6.19,0,0,1,.6-.28l.11-.05.53.27h0l.51-.21.13,0,.42.43,0,0a4.33,4.33,0,0,0,.52-.42l0,0h1.15l.62.24.41.41.06.07a2.18,2.18,0,0,1,.25-.28c0-.07,0-.15,0-.2s0,0,0,0c-.1-.54-.16-.88-.26-1.48s.05-.83.09-1.37,0-1,0-1.65.06-.81.09-1.36,0-.63.09-1l-.16.24-.06.11-.09-.08c-.23-.21-.38-.33-.64-.55l-.15,0-.47.1-.58,0c0-.71.07-1.06.1-1.77s0-.91,0-1.51a3.91,3.91,0,0,0-.15-.41l-.13.06L282,590l0,0-.62-.31a3.62,3.62,0,0,0-.47,0c-.06-.5-.09-.74-.14-1.24.1-.57.15-.85.28-1.43-.08-.24-.12-.37-.18-.61l-.82-.22-.09.05c-.22.09-.35.17-.59.29l0,0-.24-.12c.07-.54.1-.81.18-1.36s0-.86-.06-1.43,0-.93,0-1.55l-.25-1.37c0-.63,0-.94.05-1.55,0-.31,0-.53-.06-.76s0-.33-.06-.54c.07-.41.1-.61.17-1v-.06l.42-.61.06-.08.65.39c.22,0,.34.06.55.08h.08l.57-.41.08-.06.7.49.51,0h.08l.61-.2.3-.1.27-.11.08,0h1.94c.23.18.37.28.59.43l.08.06c.17-.25.28-.38.45-.59l.08-.1.59.66v0l.62-.29.4-.15h0l.1-.05.6.22.6.24.07,0c.2-.18.3-.28.5-.44l0,0h.67l.34.4s0,0,.07.08,0,0,0,0h0l.17-.25c-.07.52-.11.8-.17,1.32s0,.86,0,1.44-.05.94-.07,1.58.17.83.3,1.38,0,1-.05,1.58,0,.79-.06,1.31,0,.62-.05,1c0,0,0,0,0,.07l-.66.34-.56.41,0,0c-.24-.2-.35-.31-.61-.52l-.08.09a.9.9,0,0,1-.1.12c.05.47.08.7.14,1.16s0,.86,0,1.43c-.05.19-.1.29-.15.48-.27.07-.46.12-.65.15h0l-.28.07-.52.13-.15,0c-.09.63-.15,1-.26,1.57.1.6.14.9.22,1.5,0,.15,0,.21-.05.35l-.74.53h-.59l-.5-.21s0,.06,0,.08c0,.53-.07.82-.12,1.35s.1.83.15,1.39-.14,1-.22,1.64.07.87.12,1.45c0,.3,0,.48-.06.75,0,0,0,.1,0,.17v0a1.4,1.4,0,0,1,.13-.18l.06-.08.65.48h.69l.57-.19c.23-.11.35-.15.57-.24l.06,0h.67l.74.34c.26.16.37.23.61.36h0l.17-.06.19,0a1.05,1.05,0,0,1,.21-.06l.14,0c.21.12.34.17.56.28l.54,0h.1l.42-.15.11,0,.53.24.09,0,.32-.42a.69.69,0,0,0,.11-.13.39.39,0,0,0,0,.09c0,.06.05.11.08.18.15-.61.22-.91.38-1.52a.09.09,0,0,1,0-.05l.43.05.13,0a3.42,3.42,0,0,1,.09-.4,1,1,0,0,1,0-.15c.27.32.41.49.69.8.1.27.15.4.24.68a2.52,2.52,0,0,1,.4.21c.28.15.4.23.67.4h0c.15,0,.27,0,.46-.07H298l.13,0,.47-.12.12,0,.65.27.39-.11.09,0,.11,0,.13,0,.48.19.07,0,.55-.42a.3.3,0,0,0,.1-.07l.46.5.55.27h0l.16,0c.29-.08.5-.12.84-.2h0l.13,0c.24.09.37.15.62.23l.32,0,.11,0c.08-.14.11-.22.19-.35,0-.7-.06-1-.09-1.74C304.63,598.51,304.66,598.23,304.72,597.68Zm-15-32.13c-.3-.11-.44-.16-.74-.29s-.36-.06-.61-.11l-.21.19,0,0-.29.26h-.1l-.58-.11-.1.05-.62.31-.06,0-.52-.19-.68-.13H284l-.64-.25-.71-.09-.13,0-.15,0-.26,0h0l-.6.26H281l-.1,0-.49.16h0l-.12,0-.43-.2-.21-.07c.13-.47.2-.7.34-1.16,0-.62,0-.91.1-1.51s.17-.74.28-1.23.23-.88.4-1.45.16-.7.29-1.18.17-.77.28-1.29l.37-1,.39-1c0-.46.05-.69.08-1.17l.56-.75c0-.45,0-.67,0-1.1a1.47,1.47,0,0,1,.22-.21l.72-.49.63.12.77.35.61-.21a4.94,4.94,0,0,1,.45-.35c.06.21.08.32.14.55l.59,1.08c.07.58.09.87.16,1.44.22.42.34.62.55,1,.12.66.17,1,.26,1.65.22.36.32.54.53.9.15.53.23.77.38,1.3s.21.58.36.95.25.67.4,1.11.16.58.28,1c.05.55.08.83.15,1.37.13.27.21.41.34.69s.05.37.08.61Z"/><path class="cls-4" d="M379.38,599.6l-.52.24.06,0,.55-.26Zm-.13-7.08h-.69l-.61,0v0l.57,0h.59c.3.07.45.1.73.18,0,0,0-.05,0-.06Zm.66-1.38a2.52,2.52,0,0,0-.3.35l.31.17C379.92,591.49,379.92,591.33,379.91,591.14Zm0-17.59-.67.22h0l.81-.25Zm.75,15.83-.48-.32s0,.08,0,.11l.35.24c.27,0,.38,0,.66,0l.06,0Zm-1-21s0,0,0,0h1.83v0Zm2.69,7.64c-.28.09-.43.13-.66.22l0,0,.65-.23Zm-.14,9.79s0,.11,0,.15a1.34,1.34,0,0,0,.11.14l.1-.07A1.86,1.86,0,0,0,382.23,585.85Zm.54,13.41-.66.2h.07l.61-.19Zm-.33-33.73H382l0,0h.36l.58.48.12,0ZM384,599.42l-.59.23,0,0c.24-.11.38-.17.6-.25Zm.32-23.31-.52.17h0c.22-.07.34-.1.52-.17Zm0,9.93-.61-.1c-.19-.14-.3-.22-.49-.34l0,0-.09.07.48.35.76.11A.07.07,0,0,1,384.34,586Zm-.53-20.31-.09,0a4.79,4.79,0,0,0,.55,0l.14,0A5.91,5.91,0,0,1,383.81,565.73Zm1.69-9.57-.51.22h.06l.49-.21Zm-.32,9.45-.14,0c.26.1.39.13.64.21v-.08A4.72,4.72,0,0,1,385.18,565.61ZM387,597.33l-.35.34c-.11.26-.18.39-.32.66l-.7.75-.05.06-.38.44h.1c.16-.19.26-.3.42-.47a.15.15,0,0,1,.05-.07l.71-.75c.13-.27.2-.39.31-.67l.25-.24Zm1.81,1.61-.58.24,0,0,.6-.24Zm1.94,0-.59.2h.07l.55-.19Zm1.93-.16c-.26.22-.4.31-.62.49l.07,0,.63-.5Zm2.13.15a4.19,4.19,0,0,1-.49.2l.11,0,.2-.07.27-.11Zm-6.32-56.31-.1,0,.67.34.14,0Zm.09-4.37-.61,0-.56,0a1,1,0,0,0-.37.05c.57,0,1.16,0,1.73,0Zm-1.35,4.66c-.29-.19-.42-.26-.69-.45l-.11.06.65.41c.27,0,.4,0,.66,0l.07,0Zm-2.15-.11c-.3-.09-.44-.12-.74-.22a.31.31,0,0,1-.13,0l.73.22.65,0,.08,0C385.4,542.8,385.26,542.78,385,542.77Zm-2-.54-.12,0,.67.47.14,0Zm-1.19-.11-.48,0v0l.34,0c.25.13.39.2.64.35l.11,0C382.19,542.31,382.07,542.25,381.82,542.12Zm7.89.69.32.41c.14.22.21.33.33.55.19.54.28.83.49,1.39.16-.26.23-.4.4-.66s.16-.4.28-.67c.33-.28.51-.42.83-.7h.06Zm7.49,49.57,0-.09a3,3,0,0,1-.5.17c0-.06,0-.12,0-.2l-.72-.06c-.23-.09-.35-.12-.58-.22a4,4,0,0,1-.49,0c0-.63,0-1.1,0-1.57a2.45,2.45,0,0,1,1.63-.11c-.23-.64-.49-1.29-.74-1.93l-.2,0-.93.44-.38-.14c-.26,0-.4,0-.65-.08l-.08,0,.59.07.72.24-.08.19,0,2.94.49,0,.58.22.72.07c0,.27,0,.41.05.71-.08.55-.1.83-.15,1.38s-.18.94-.3,1.58,0,.77-.07,1.3-.05.94-.08,1.56h.15c0-.65,0-1,.07-1.59,0-.33,0-.56.05-.81a4.57,4.57,0,0,1,0-.49c.11-.64.16-1,.29-1.58a.38.38,0,0,0,0-.1l1.92-.8h0s0-.08,0-.11a1.64,1.64,0,0,0,0-.23.19.19,0,0,1,0-.08A1.1,1.1,0,0,1,397.2,592.38Zm-3.34-35.71c-.05.34-.07.53-.11.91s0,.46.06.67a4.94,4.94,0,0,0,.94-1.12C394.44,557,394.15,556.83,393.86,556.67Zm6.82-12.57-8.26-1"/><line class="cls-4" x1="315.71" y1="565.63" x2="312.48" y2="566.79"/><path class="cls-4" d="M212.06,590.91l-1.75-2.66m-30.48-42.89a.45.45,0,0,0,0-.08c-.05.42-.09.67-.15,1.13a6,6,0,0,0,0,1.46,5.54,5.54,0,0,0,.12.71c.06-1.45.1-2.9.11-4.35A5.37,5.37,0,0,0,179.83,545.36Zm2.75,1.11-.5-.32-.07.08.43.27.62,0,.05,0Zm.61,5.5-.65.21a.43.43,0,0,1,0,.05s0-.05.07-.06l.61-.19Zm1.72-6-.13,0,.73.13.09,0Zm1.36-.11-.11,0c.31.1.48.17.78.28l.12,0ZM188.39,558l-.44.19,0,0a3.84,3.84,0,0,0,.54-.25Zm.69-.16-.14,0,.15,0Zm-.3,10.95s0,.07,0,.1l.48.22.08-.05Zm1-22-.43-.31L189,546c-.23-.15-.35-.23-.6-.37l-.13.05.59.34c.13.2.2.29.32.49s.25.17.43.31c.32.43.46.65.77,1.08l.08-.11C190.2,547.44,190.06,547.23,189.76,546.82Zm.75,26.32-.53.28.12,0,.44-.23Zm-.5-4.49,0,0,.58-.07h0Zm.89-1.89-.46-.34a1.24,1.24,0,0,1,0,.16h0l.28.21h.4l.09,0Zm.87-21.16-.18-.17,0,.14s0,0,.07.06l.46,0,0,0Zm1.65.06-.55-.31-.12,0,.53.31c.27,0,.41,0,.69-.05l0,0Zm1.74-.3-.51-.14-.06.06.43.11.32,0Zm.13,30.34-.44.25h.05l.47-.25Zm.24,14.73Zm0-45.1.19,0,.05,0Zm.89-.24-.11,0,.74.12.06,0Zm.71,30.64-.41.13h0a3.53,3.53,0,0,1,.43-.14Zm-.37,14.58-.61,0-.36,0,.23,0,.6,0,.68-.07v0Zm.71,6.39-.54.25,0,0,.58-.27Zm1-21.2-.63.2h.07l.59-.2Zm.44,12c-.25-.18-.42-.28-.72-.48l-.11,0,.85.55S198.9,587.58,198.89,587.55Zm-.4-42.23-.68-.51-.1.07c.25.17.38.27.63.47l.75-.05.07,0A5.12,5.12,0,0,0,198.49,545.32Zm.75,30.38h0a2.33,2.33,0,0,0,.3-.12h0A2.23,2.23,0,0,0,199.24,575.7Zm.17,21a.66.66,0,0,0,0,.15,1.89,1.89,0,0,0,.48,0C199.74,596.75,199.61,596.73,199.41,596.67Zm.86-48.06c0-.58,0-.87,0-1.46-.07-.22-.12-.39-.17-.56s-.13-.38-.21-.64,0-.52-.08-.89l-.1,0h-.05c0,.34.06.52.09.86s.23.73.38,1.2c0,.59,0,.88,0,1.48l.16.6.14,0C200.38,549,200.33,548.86,200.27,548.61Zm-.17,36.16-.62-.56-.68.09h0l.54-.07c.24.21.36.34.62.56l.74,0v0Zm1.52-39.85-.5-.15a.13.13,0,0,0,0,.06v0l.32.1.63.14.1-.05Zm1.81-.3-.12,0,.59.31.08-.07C203.77,544.81,203.65,544.74,203.43,544.62Zm1.35,0-.25,0-.05,0,.57.13.12-.05A2.65,2.65,0,0,1,204.78,544.6Zm.46,50.7-.37.23a4.94,4.94,0,0,0-.15.64c-.15.47-.24.71-.38,1.16h0a.26.26,0,0,0,.09,0c.15-.5.23-.74.4-1.24,0-.25.08-.38.15-.65l0,0,.43.23Zm2.64-50.59-.66,0c-.22,0-.35,0-.55,0h-.1l-.79-.33-.11,0a7.12,7.12,0,0,1,.76.31l.65,0,.66,0,.74-.06h0C208.27,544.68,208.13,544.68,207.88,544.71Zm.74,52.49c-.2.15-.3.23-.48.35l.08,0,.46-.32S208.63,597.22,208.62,597.2Zm1-12.27c0,.25,0,.37.07.61.07.48.11.74.18,1.18C210,585.94,210.11,584.94,209.59,584.93Zm1,12.64-.44.29.06,0,0,0c.18-.1.28-.18.45-.28Zm2.29-.09-.49.33.06,0,.5-.34Zm4.38-43.76-.54.35.07,0c.22-.13.34-.22.53-.34ZM214,557.8c0,.35,0,.6,0,1s0,.57.05.85a4.62,4.62,0,0,0,1.15-1.28C214.8,558.22,214.42,558,214,557.8Zm-4.15,29.8c0,.08,0,.17,0,.28.16.14.25.22.4.37Zm2.17,3.31c0,.1,0,.19,0,.31l.14,0Z"/></g></svg>