<?xml version="1.0" encoding="UTF-8"?>
<svg xmlns="http://www.w3.org/2000/svg" width="21.6cm" height="27.9cm" viewBox="0 0 612 792">
  <defs>
    <style>
      .cls-1 {
        fill: #fff;
      }

      .cls-2 {
        fill: #7d7c7c;
      }
    </style>
  </defs>
  <g id="Diseño">
    <rect class="cls-2" width="612" height="792"/>
  </g>
  <g id="Layer_1" data-name="Layer 1">
    <g>
      <path class="cls-1" d="M335.6,251.8c-3.7-.5-7.1,.7-10.4,2-1.3,.5,.4,1.9-.6,1.9s-1.3-1-2.3-.4c-1.5,.8-2.9,1.6-3.8,3.2-1.2,2-2.7,3.8-4.4,5.4-1.6,1.5-3.4,1.9-5.6,1.2-2.3-.8-4.4-2-5.9-4-.8-1.1-1.8-2.1-2.5-3.3-1.9-3.6-5.3-4.6-8.9-5.1-2.6-.3-5.3-.3-7.9-.7-1.4-.3-2.2,1-2.9,1.8-1.5,1.7-3.3,2.6-5.3,3.4,0,0-.1-.1-.2-.2,.2-.1,.6-.3,.6-.5,0-.7-.4-.1-.5,0-.9,.4-1.8,.9-2.7,1.3-.3,.1-.7,.3-.8,.1-.4-.4,.1-.7,.2-1,.3-.8,1-1.1,1.7-1.4,1.9-1.1,3.9-2.2,5.8-3.2,.8-.5,1.1-1,.4-1.8-1.3-1.4-2.1-3.3-2.6-4.9-.5-1.8-.4-4-.4-6s.2-.4,.3-.4c.4,0,.5,.3,.6,.6,.8,1.7,1.3,3.6,1.5,5.4,.4,3.2,2.4,5.1,5.5,5.4,1,.1,2,.3,2.9,.7,.5,.2,.9,.4,1.4,.3,2.8-1,5.2-.1,7.7,.9,1.1,.4,2.2,1.4,3.5,.3,0,0,.3,0,.3,0,3.1,1.9,6.6,1.4,10,2.1,1.7,.3,2.7,.2,1.7-1.8,0-.2,0-.4,0-.6,0,0,0,0,.4-.5,.6,3.3,2.9,3.5,5.3,3,1.2-.2,2.5-.8,3.4-1.6,1.4-1.1,3.8-.4,4.4-2.7,0-.2,.4-.3,.4,0,.3,2.6,1.8,.5,2.3,.4,2.2-.8,4.4-.6,6.6-.5,2.4,0,4.5-2.8,4.1-5.1-.8-4.7-1-9.4,0-14.1,.4-2-.2-4.1,.5-6.1,.4-1.4,.9-2.5,2-3.6,3.4-3.3,6.8-6.6,9.7-10.4,.3-.3,.8-.7,.6-1.1-.3-.5-.8,0-1.2,.2-.5,0-1.1,.4-1.3-.2-.1-.6,.6-.4,1-.5,1.7-.5,3.1-1.4,4.2-2.9,2.8-4,4.1-8.6,6.1-12.9-2.3,4.3-5.2,8.2-9.5,10.9-.1-.9,.5-1.1,.8-1.5,6.2-6.3,10.3-13.7,11.5-22.5,0-.4-.1-1.1,.5-1,.5,0,.5,.7,.4,1.1,0,.8-.2,1.6-.2,2.4,1.4-5.6,1.9-11.3,2.8-16.9,1-6.8-.7-13.3-1.4-19.9-.2-1.8-.4-3.6-.5-5.5,0-.5-.3-1.2,.3-1.3,.7-.1,.5,.7,.6,1.1,.4,2.4,.8,4.8,1.2,7.1-.4-5.7-.9-11.4-4.1-16.5,.5,1.8,.1,3.6,.3,5.4,.2,1.8,.7,3.6,1,5.4,2.3,12.6,.7,25-2.8,37.2-.6,2-1.4,4-1.1,6.2,.1,.9-.4,2-.8,2.9-4.5,9.5-11.8,16-21.3,20.2-1.6,.7-3.2,1.4-4.8,2.2-1.3,.6-2.7,1.1-4.2,1-.6,0-1.3,.1-1.5-.5-.2-.8,.6-1,1.1-1.3,.3-.1,.6-.3,1.2-.5-3.6-.5-6.5-2.7-9.6-3.2-3.5-.5-4-2.8-5.2-5.1-1.7-3.3-2.6-6.8-3.6-10.3-.6-1.9-.9-3.9-.6-5.9,.7-4.4-.4-8.7-1-13.1-1-6.6-.4-13.4-.4-20.1,0-6.5-.2-12.9-1.6-19.2-.1-.5-.2-1-.4-2-1.6,7.6-3,14.7-2.9,22.1,.1,6.6,1.1,13.2,1.4,19.8,.4,7.3,.5,14.5-1.3,21.8-1.8,7-6.5,10.4-12.5,13-1.3,.6-2.8,.8-4.2,.8-2.1,0-4.3,0-6.6,.3,.2,0,.4,0,.5,.2,.5,.3,1.4,.3,1,1.2-.3,.7-1,.3-1.5,0-3.2-1.6-6.5-2.8-9.1-5.7-3.5-4-7-8-9.6-12.6-1.6-2.8-3.1-5.8-4.3-8.8-.2-.4-.2-.9-1-1.1,2.5,10,7.5,18.2,15.1,24.9-1.1-.2-1.8-.9-2.6-1.6-7.1-6.4-11.2-14.5-13.2-23.8-1.4-6.4-3.1-12.7-3.5-19.3-.3-4.6,.2-9.1,.7-13.6,.5-5.4,1.2-10.9,1.7-16.3-2,3.9-2.6,8.2-3,12.5-1.1,12.6-.5,25.1,2.2,37.4,1.8,8.2,5,15.8,9.2,23.1,1.3,2.3,3.2,3.9,5.8,5.3-1.3,.2-1.8-.4-2.9-.7,2.5,3.6,5,6.8,8.1,9.3,1.7,1.4,2.7,3,2.7,4.9,.1,3.9,.6,7.8-.6,11.6-.3,.8-.7,1.4-1.4,1-3.1-2-6.3-.8-9.5-.6-1.6,.1-2.6-1.7-4.3-1.5-.2,0-.4-.4-.2-.6,.2-.2,.5-.4,.8-.4,1.2,0,2.5,.1,3.8,.3,2.8,.4,5.8-.2,8.5,1.3,.9,.5,1.5,0,1.7-1,.2-1.1,0-2.1-.1-3.2-.2-2.3,.5-4.6-.5-7-1.3-2.9-3.5-4.8-5.5-6.9-3.8-4-6.6-8.6-9.1-13.4-6-11.6-9.7-23.9-10.3-37-.4-9.1-.8-18.2,.8-27.2,.6-3.6,1.6-7,3.7-10.1,.2-.3,.3-.8,.7-.8,.4,0,.3,.6,.5,.9,1.2,2.8,.4,5.8,.1,8.6-.4,5.4-1,10.8-1.8,16.1-1,6.1,0,12.1,1.4,18,2.8,12.4,8.8,23.1,17.7,32.2,1.1,1.1,2.4,1.8,3.9,2,8.4,1.1,16.1-.3,22.3-6.7,2-2.1,3.1-4.7,3.3-7.5,.2-2.5,.4-4.9,.8-7.3,.9-6.4,0-12.7-.6-19-.7-8.6-1.5-17.2-.5-25.9,.5-4.4,2.2-8.6,3.4-12.8,.1-.4,.2-.9,.6-.9,.7,0,.7,.6,.8,1.1,.9,3.4,1.4,6.8,1.8,10.2,1.4,12.3,1.9,24.6,2.4,37,.2,5.7-.2,11.4,.7,17,.6,4,2.1,8,4.8,10.9,4.2,4.5,9.8,5.8,16.1,5.1,4.4-.5,8.7-1.3,12.1-4.3,6.7-5.8,11.8-12.7,13.6-21.7,2.3-11.3,4.1-22.7,3.6-34.3-.3-5.9-1.2-11.8-2.4-17.6-.1-.5-.5-1.2,0-1.6,.7-.4,1.1,.3,1.6,.7,3.3,3.1,4.5,7.3,5.1,11.6,1.3,10.4,1.4,20.9-.3,31.3-1.2,7.6-2.4,15.2-4.8,22.5-2.5,7.4-5.6,14.4-11.4,20-3,2.9-5.9,6.1-8.6,9.3-.6,.7-.8,1.3-.7,2.2,.3,2-.2,3.9-.7,5.8-1.2,4-1.5,8-1.1,12.1,.2,2,1.3,2.4,3,1.2,.5-.4,1-1.2,1.3,.2,0,.3,.6,.6,.9,.6,2.8,.2,5.6,1,8.4,0,1.5-.5,1.5-.8,.1-3.6-1.1,.9,.5,3.2-2.1,3.3,1.1-1.8,.9-3.8,1-5.8,.1-1.8-.6-2.2-2.1-1.4-1.7,.9-3.6,.7-5-.3-1.3-1-2.3-1.2-3.7-.3-.3,.3-.9,.6-1.2,0-.3-.5,.2-.8,.5-1,.5-.5,1.1-1,1.7-1.5,1-.8,1.8-1.2,2.2,.6,.6,2.4,2.6,1.4,4.1,1.3,1.3-.1,2.5-1.1,3.7,0,.5,.4,.8-.2,1.1-.5,5.9-6.4,11.8-12.8,17.1-19.7,1-1.3,1.9-2.7,2.4-4.3,.8-2.8,2.6-4.7,5.2-6,1.2-.6,2-1.4,2.3-2.7,.7-2.5,1.6-4.9,3.5-6.9,.3-.3,.5-.7,.5-1,.9-6.7,4.4-12.7,5.6-19.3,.5-3.1,0-6-.5-9-.3-1.7-.7-3.3-1.1-5-.3-1.5-.3-2.9,1.2-3.9,.8-.5,.5-1,.1-1.6-1.3-1.9-3.1-3.1-5.3-3.7-.7-.2-1.7-.2-1.6-1.3,.1-1.1,1-1.3,1.9-1.4,.6,0,1.2,0,1.9,.1,.6,0,1.3,.6,1.6-.6,.1-.5,.8-.3,1.2-.3,3.2,0,6.5,3.1,5.9,6.2-.5,3.2,0,6.3,.2,9.4,.6,6.3-.2,12.2-2.5,18.1-2.6,6.8-4.9,13.7-8.3,20.1-.7,1.3-.8,2.5,.1,3.8,.7,1.1,2.2,2.6-.3,3.6-.4,.2,0,.6,.1,.8,.8,1.8,.4,3.6,.4,5.4,0,.4-.1,1-.6,1-.6,0-.7-.5-.9-.8-.5-1.1-1-2.2-1.5-3.2-.5-1-1.1-1.1-1.8,0-1.1,1.8-1.9,3.7-2.4,5.7-.4,1.8-1,3.7-1.5,5.5-.1,.5-.4,1.2-1.1,1-.6-.2-.8-.7-1-1.3,0-.1,0-.3,0-.4-.2-.8,.4-2.2-.4-2.4-1-.3-1.5,1.2-2,1.9-3.9,5.2-7.2,11-11.9,15.7-1.1,1.1-2.2,2.1-3.2,3.2-.4,.4-1,.8-1,1.3-.3,2.6-2.1,2.8-4.1,2.8-3-.1-5.9,0-8.9-.3-2.3-.2-3.8,.9-4.3,2.9-.5,2.2-1.8,2.3-3.4,2h0Zm46.8-40.9c-1.3-.2-1.8-1.6-2.8-2.2-1.1-.6-4.3,1.4-4.3,2.7,0,1.7-.9,3.1-1.8,4.5-5,8-12.1,14.3-18,21.6-1.1,1.4-1.1,2.1-.6,3.4,.5,1.6,1.1,1.5,2.2,.5,2.1-1.9,4.3-3.8,5.8-6.2,3.2-4.8,8.1-8.6,9.2-14.8,0-.1,0-.3,.2-.3,.2-.2,.4-.4,.5-.4,.3,0,.3,.3,.3,.6-.4,1.9,.4,1,1.1,.5,.2-.2,.7-.3,.8-.2,2.2,1.8,1.5-.7,1.9-1.3,.6-.9,0-1.7-.3-2.5-.1-.3,0-1.5,.4-1,1,1.1,.8,0,1-.4,.8-1.8,1.2-4,4-3.8,.3,0,.5,0,.4-.6m.8-6.9c2.8-3.3,6.4-11.5,7.2-16.9,.6-3.7,1.6-7.3,3-10.7,.7-1.6,1.2-3.2,1.2-4.9,0-3.8,.2-7.6,0-11.3-.1-1.8,.4-3.7-.4-5.4-.1-.3-.4-.6-.6-.7-.3,0-.3,.4-.3,.6,.2,2.3-1.1,4-2.2,5.7-.6,1-.8,1.9-.5,3,.6,2.3,1.1,4.7,1.4,7.1,.4,3.2,1.4,6.6-.9,9.5-1.3,1.7-1.8,3.4-1.3,5.5,.5,1.9,0,3.6-1.7,4.9-1.4,1.1-1.9,2.6-1.5,4.2,.4,1.7-.1,3-1.2,4.2-1.4,1.5-1.8,3.4-2.2,5.4m-73.1,57.2c.5,.4,.2,.9,.3,1.4,0,.4-.1,1,.6,.9,.5-.1,1.1-.4,1-1.1,0-.3-.3-.6-.4-.9-.1-.4-.4-.9,0-1.2,.6-.4,.7,.2,1,.6,.4,.6,1.4,1,1.4,.4-.1-1.9,1.4-1.9,2.3-2.7,.9-.9-.7-1.4-1.5-1.5-2.6-.3-5.1-.5-7.7-.8-1.4-.1-2.8-.3-4.1-.3s-1.2,.3-1.1,1c.1,.7,.7,.5,1.2,.4,.9-.2,1.2,.2,.8,1.1-.3,.6,.1,1,.6,1.2,.5,.3,.6-.2,.8-.5,.2-.4,.5-.7,.9-.4,.4,.3,0,.7-.2,1-.4,.7-.5,1.4,.3,1.8,1.1,.5,.7-.7,1.1-1.1,.1-.2,.2-.5,.3-1,.6,1.4,.1,2.1,.1,2.8,0,1,.5,1.8,1.3,1.8,1.1,.1,.6-1,.7-1.6,0-.4-.1-.9,.3-1.2"/>
      <path class="cls-1" d="M345.4,260.4c0,2.1,.4,4.1,.5,6.2,.2,5.8-1,11.2-2.7,16.7-1.2,3.8-1.3,7.6,1.9,10.7,.4,.4,.9,1.2,1.5,.7,.5-.4-.1-1.1-.4-1.5-2.3-3.6-2.6-7.4-1.1-11.4,.4-1.1,.8-2.2,1.2-3.3,1,.9,1.1,2.2,1.6,3.3,2.9,7.8,2.9,15.9,2.5,24.1h0c.5,0,1-.1,1.5-.2,.3-6.8,.1-13.5,0-20.3,0-2.1-.6-4.2-1-6.3-.5-2.3-1.7-4.5-1.4-7,0-.5-.3-1.1-.9-1-1.4,.2-1.3-.9-1.4-1.7-.1-1.1-.1-2.2,0-3.2,0-.9-.6-2.3,.1-2.5,.8-.2,.2,1.6,1.3,2.1-.4-1.8,.8-2.1,2-2.4,.6-.1,1.1,0,.8,.7-.6,1.6-1.1,3.3-1.9,4.9-.3,.6-.6,1,0,1.4,.5,.5,1.2,.5,1.7,0,.7-1,1.1-.4,1.4,.3,2.9,5.3,5.6,10.7,7.9,16.4,1.1,2.8,1,5.5,0,8.3-.4,1-.7,1.9-1.1,2.8-.2,.6-.4,1.3,.3,1.7,.7,.4,1.2-.1,1.7-.6,.3-.3,.4-.7,.7-1.1,.3-.4,.1-1.4,.7-1.4,.6,0,.9,.8,1.2,1.4,1,1.9,1.6,3.9,2,5.9,.4,0,.9-.1,1.3-.2,.2,0,.4-.2,.5-.2,.1-.6,.4-1.1,.6-.9,.3,.1,.4,.3,.5,.6,.4-.1,.9-.2,1.4-.3-.8-2-1.6-4.1-2.4-6.1-.3-.8-.7-1.6,.7-1.7,.6,0,1.1-.4,1.2-1.1,.1-.8-.6-.8-1.1-1-3.3-1.6-5.6-6.3-4.9-9.8,0-.3,0-.8-.2-1.1-1.6-2.7-2.2-5.8-3.3-8.7-1.2-3.5-3.2-6.3-6.6-8-.6-.3-1-.7-.7-1.3,1-2.4-.2-2.7-2.2-2.6-.6,0-1.1,0-1.7,0-1.6,.2-2.4-.5-2.4-2.1,0-1.2-.7-2-1.8-2.6-3.1-1.6-6.2-3.3-9.3-5h0c-.8,1-.4,1.8,.5,2.4,2.8,1.7,5.2,4.2,8.5,5.1,.7,.2,.7,.7,.7,1.2m18.3,31.6c0,.6,0,1.5,1.1,.6,.4-.4,1.1,.5,1,1-.4,2.9,1.1,5.4,1.4,8.1-.3-.9-.7-1.8-1-2.6-.4-.9-.5-2.1-1.1-2.8-2.7-2.6-2.3-6.1-2.8-9.3,.7,1.6,1.5,3.2,1.5,5m-8.5-23.4c.1-.9,.7-.2,.9,0,1.2,1.9,2.7,3.6,2.7,6.1,0,.2,0,.5,0,.5,3,2.8,1.7,6.8,2.8,10.2-2.1-4.6-4.3-9.1-6.4-13.7-.5-1.1,0-2.1,.1-3.1m-2.5-2.4c.9,.2,1.5,.7,1.4,1.7,0,.5,0,1.3-.6,1.1-.8-.3-1.5-.9-1.7-1.8,.1-.6,.2-1.1,.9-1m-5.3,7.4c.3-.8,.6,0,.8,.3,.8,1.6,1.2,3.3,1.4,5-.7-.8-1.2-1.7-2-2.4-1-.9-.5-2.1-.1-2.9m-3.8-16c-.2-.1-.4-.3-.5-.4,.1,0,.3-.2,.4-.2,.2,.1,.4,.4,.9,.8-.5-.1-.6,0-.7-.2"/>
      <path class="cls-1" d="M335.3,360.6c-.7-.2-1.4-.4-2-.6-1.7,1.6-3.7,3-6,4.3-1.9,1-3.7,2.3-5.7,3.3-2.9,1.4-6,2.3-9.2,2.9-.4,0-1.1,0-1,.8,.1,.5,.6,.6,1,.6,1.1,0,2.3,0,3.3-.5,2.7-1.3,5.6-2.4,8.2-4,3.8-2.3,8.3-3.5,11.3-6.9"/>
      <path class="cls-1" d="M346.7,367.6c.5-.2,.5,.4,.7,.7,.3,.8,.6,1.5,.8,2.3,0,.4,.2,.7,.2,1.1,.4,0,.7,0,1.1,0,.3,0,.5,0,.8,0-.3-1.8-.8-3.5-1.7-5.2,1.2,1.7,1.9,3.4,2.3,5.2,.7,0,1.3,.2,1.9,.4-.3-1.5-.8-3-1.5-4.4-.5-1-.8-2.1-1-3.2-.5-.1-1.1-.3-1.7-.4-.2,.2-.5,.3-.9,.3-.6,0-.7-.4-.7-.7-.6-.1-1.1-.3-1.7-.4-.2,.8-.4,1.5-.3,2.4,.1,.9-.7,2.9,1.7,1.8"/>
      <path class="cls-1" d="M349.4,387c-.4,0-.7,0-1.1,0-.4,1.3-1.1,2.7-1.9,4-.6,.9-1.1,2-1.1,3.2,0,2.4-1.3,4-3.3,5.1-1.6,.9-3.3,1.2-5.1,1.3-.8,0-1.6,0-1.7,1.1-.1,1,.2,1.8,1.2,2,.8,.2,1.7,.3,2.6,.5,.3,0,.7,0,.7,.5,0,.1-.3,.4-.5,.4-1.8,0-3.7,.5-5.3-.5-.4-.3-.9-.6-1.4-.3-.5,.4-.4,1-.3,1.6,.4,1.5,1.6,2.2,3,2.7,3.5,1.4,7.1,.4,9.6-2.5,1-1.1,1.8-2.4,2.5-3.8,2.6-5.1,4.2-10.4,5-15.9-.8,.4-1.8,.6-2.9,.6m-4.2,15.9c-1,1.6-2.3,3-4.1,3.8-.3,.1-.8,.4-1.1,0-.3-.4,.3-.6,.5-.8,2.3-2.7,3.5-6.1,5.5-9,1.5-2.3,2.6-4.8,3.4-7.5-.7,4.7-1.8,9.3-4.3,13.4"/>
      <path class="cls-1" d="M277.3,403c.5-.7,1-1.3,1.4-1.9,.3-.4,.3-1,0-1.4-.4-.6-.9-.3-1.4,0-3.5,1.5-5.9,0-7.5-3.3-.8-1.6-1.4-3.4-4-2.4,1.8-.8,1.6-1.8,1-2.9-.5-.9-.8-1.9-.8-2.9-1-.4-2-.9-3.1-1.4,0,0,0,.1,0,.2,.5,2.1,1.3,4,1.5,6.2,.3,4.5,2.1,8.7,5.5,11.9,2.2,2.1,4.8,2.9,7.8,2.2,1.6-.4,2.7-1.4,2.5-3.1-.2-1.9-1.8-1-3-1.1m-.9,2.8c-.3,0-.6,0-.9,0-3,0-6.9-3.5-7.3-6.5-.1-.9,.4-.9,.9-.6,1.9,1.3,4.1,1.8,6.4,2.1,.7,0,.7,.4,.2,.8-.1,.1-.3,.2-.4,.4-.7,.7-2.3,1-1.9,2.3,.5,1.3,2,.4,3,.7,.5,.1,1.5-.4,1.5,.5,0,.6-.9,.3-1.5,.4"/>
      <path class="cls-1" d="M263,374.4c.6-.2,1.1-.4,1.7-.5,.3-1.6,.8-3.3,1.4-4.9,1-2.5,1.1-5.3,1.4-8.1,0-.8,.4-1.5,.8-2.2-1.1,.3-2.1,.5-3.2,.7-.4,.4-.9,1-.3,1.2,1.9,.7,.8,1.8,.4,2.7-.7,1.5-1.1,3-.9,4.7,.1,1-.3,2-.6,2.9-.3,1.1-.6,2.2-.8,3.4"/>
      <path class="cls-1" d="M304.9,370.9c-.2,0-.5-.1-.7-.2-10.1-1.6-17.9-6.4-23.7-14.1-1.4,0-2.8,0-4.3,0-2.1,.5-4.2,1.1-6.3,1.6-1.4,2.7-1.7,5.8-2.3,8.8-.5,2.1-.9,4.2-1.3,6.3,.6-.2,1.3-.4,1.9-.5,0-.2,.2-.5,.3-.7,1-2.1,1.5-4.9,1.1-7.5-.2-1.2,0-2.4,.6-3.5,1.3-2.6,1.5-2.7,3.6-.7,.3,.3,.6,.8,1.1,.4,.2-.1,.3-.6,.2-.8-1.4-2.7,.4-1.5,1.5-1.2,.6,.1,1.2,.3,1.7,.2,2-.5,3.1,.7,4.3,2,6,6.5,13.5,10.3,22.2,11.5,.7,0,1.5,.2,1.6-.8,.1-1-.8-.7-1.4-.9"/>
      <path class="cls-1" d="M266.1,304.5c.4,.1,.9,.2,1.4,.3,.3-3.6,.8-7.1,1.2-10.7,.4-2.8,1-5.6,1.5-8.4,.7,1.1,.8,2.2,1.2,3.1,1.3,2.9,.3,5.1-1.5,7.3-.2,.2-.4,.5-.6,.7-.2,.2-.5,.5-.2,.8,.1,0,.5,0,.7-.2,3-1.5,3.9-3.4,3.3-6.8-.8-4.8-1.9-9.5-1.3-14.4,.2-1.7,.6-3.6,0-5-1.7-4.2-.1-11.2,3.4-14,0,0-.1-.1-.2-.2-2.3,1-4.6,2-5.1,4.9,0,0-.1,.1-.2,.2,0,.4-.1,.9,0,1.3,.6,3,.8,6-.7,8.8-1.3,2.5-.8,5-.6,7.6,0,1.3,.4,2.6,.5,3.9,0,.4,.3,1.1-.2,1.4-1.4,.6-1.2,1.9-1.2,2.8,.3,5.6-.9,11-1.3,16.5"/>
      <path class="cls-1" d="M246.6,300.5c.6-.7,1.3-1.4,2.1-2.1,.3-.2,.7-.5,.7-.8,.1-.6,0-1.7,.6-1.5,.7,.1,.3,1.2,.4,1.8,0,1.2-.2,2.3-.5,3.4,.5,.1,.9,.2,1.4,.3,.1-.6,.2-1.2,.4-1.9,.3-1.1,.4-2.2,.6-3.3,1,.5,1.5,1.7,2.3,2.4,.5,.5,1.1,1.1,1.8,.7,.9-.5,.2-1.2,0-1.8-.5-3.3-1.5-6.6-.6-9.9,.9-3.2,2.2-6.3,3.3-9.5,1.2-3.4,2.7-6.6,5.1-9.4,.6-.7,1.2-2,2,0,.1,.4,.6,.5,1,.5,1,0,1.9,0,2.4-1.1,.5-1.4,.2-2.6-.9-3.5,.9-.6-.7-2.3,1-2.5,0,0,.1-.1,.2-.2,.1-1-.4-1.4-1.3-1.4-1.2,0-2.4,0-3.6,0s-2.1,0-1.1,1.5c.5,.7-.3,1-.7,1.3-3.5,2.1-5.6,5.3-6.7,9.2-2,7.1-4.9,13.8-9.2,19.8-.8,1.1-.6,1.6,.8,1.5,.5,0,1.1,0,.7,.6-.8,1.3-.8,3.2-2.1,4.2-.7,.5-1.3,1.1-1.9,1.6,.6,.1,1.2,.3,1.9,.4m20-38.3c.5-.2,1,0,1.2,.6,.2,.6,.3,1.4,.8,1.8,0,.6,.2,1.1,.2,1.7,0,.5,.4,1.2-.6,1.2-.8,0-1.4-.7-1.2-1.2,.6-1.3-.2-2.1-.6-3.1-.2-.4-.5-.8,.1-1.1m-2.4,2.2c.5-.5,1.1-.9,1.6-.2,.5,.7-.1,1-.6,1.3-2.8,1.4-4.2,3.9-5.2,6.7-.5,1.6-1,3.2-2.1,4.7-.7-5.6,3-8.9,6.2-12.5m-13.4,25.8c3-3.9,4.2-8.6,5.6-13.1,0-.1,.1-.2,.4-.4,0,1.5,.1,3-.4,4.3-1.9,4.5-3.5,9.1-2,14.2-1.3-1.2-1.8-3-3.4-3.8-.5-.3-.5-.7-.1-1.1"/>
      <path class="cls-1" d="M238.1,152.9c1.1,0,2.1,0,3.2,0,.7,0,1.7,0,1.8,.6,.1,.8-.9,.9-1.5,1.1-2.3,.6-4.1,1.9-5.8,3.4-.9,.8-1.3,1.6,0,2.5,1,.8,.9,1.9,.4,2.9-1.1,2.5-2.2,5-2.9,7.6-.7,2.4-.8,4.7,.1,7.1,1,2.5,1.2,4.9,0,7.3-.9,1.9-.3,3.3,1.3,4.3,1.7,1.1,2.1,2.7,2.3,4.6,.7,5.4,2.1,10.9,8,13,2.4,.8,2.4,2.3,2.9,3.9,2,6.1,5.9,11,9.5,16.1,1.2,1.7,2.5,3.4,3.7,5.8-1.8-1.1-2.6-2.4-3.5-3.6-4.5-5.9-8.7-11.9-11.3-19-.3-.9-.9-1.1-1.7-1.2-3.3-.6-5.5-2.1-6.4-5.9-.6-2.7-2.6-5.1-3.4-7.9-.3-1-.6-2.1-.9-3.1-.1-.3-.4-.8-.8-.7-.4,.2-.2,.7,0,1,1,3.1,1.7,6.2,3.3,9,.8,1.4,1,2.8,0,4-.8,1-.2,1.2,.6,1.5,1.3,.5,3.3,.5,1.6,2.8-.4,.5,.4,.5,.6,.6,1.4,.4,2.2,1.4,2.3,2.9,0,1.1,.7,1.7,1.6,2.2,1.5,.8,1.6,1.6,.2,2.6-.4,.2-.7,.5-1,.8-.2,.2-.5,.6-.4,.8,.2,.5,.6,.2,1,0,2.2-1,3.7-.2,4.8,1.7,1.4,2.4,2.5,5,3.9,7.3,1.4,2.4,3,4.7,4.6,7,.2,.3,.8,1.5,1.1-.1,0-.3,.4-.3,.6,.3,.6,2,2.2,3.3,3.3,4.7,1.4,1.7,3.9,1.4,6,1.7,2.6,.4,5.1,.6,7.6,1.4,.6,.2,1.6,.3,1.4,1.2-.2,.8-1,.7-1.6,.6-3.5-.4-7.1-.7-10.4-1.8-5.3-1.7-8.6-5.8-11.6-10.1-2.1-3-3.6-6.4-5.4-9.5-.5-.8-.9-1.7-1.5-2.4-1.2-1.3-2.6-.8-4.3,1.5-.3,.4-.2,1.4-1,1.1-.7-.2-.4-1.1-.5-1.7,0-1.8,.4-3.4,1.2-5.1,.9-1.8-.6-3.3-1.2-4.9-.4-1.2-1.9-.9-3.1-.8-.8,0-1.3,.6-1.7,1.4-.2,.4-.4,1.1-1.1,.8-.6-.3-.4-.9-.3-1.3,.2-1.3,1-2.2,1.8-3,.3-.3,1-.6,.6-1-.3-.4-.9-.1-1.4,.1-.7,.4-1.2,1.6-2,.9s0-1.8,.5-2.6c.3-.6,.6-1.1,1-1.6,.9-1.1,1.4-2.1-.4-2.9-.9-.4-.3-1.3-.6-1.8-2.1-4.5-2.2-9.4-3.3-14.1-2-7.9-1.1-15.8-1.1-23.7,0-3.1,1.3-6.1,2.8-8.8,1.5-2.7,3.9-4.1,7.1-3.8,.6,0,1.5-.1,1.6,.7,.1,.7-.8,.6-1.3,.9-.3,.2-.7,.3-1,.4,0,.1,0,.2,0,.3m-6.6,33.2c.7-1.9,2.2-3.8,0-5.8-.6-.5-.6-1.4-.6-2.1,0-1.5,.1-3,.3-4.5,.3-3.9,.5-7.9,3.4-11,.4-.5,.5-.9-.1-1.2-.6-.3-1.2-1-1.8-.1-.6,.9-2.8,1.1-1.4,2.9,.1,.2-.2,.4-.5,.4-1.2,0-.8,.9-.9,1.5,0,3.8-.1,7.7,0,11.5,0,2.9,.9,5.6,1.8,8.4m5.9-31.4c-3,.3-4.1,2.2-5.4,3.9-.3,.4-1,.9-.4,1.4,.3,.3,1.1-.2,1.4-.8,.9-1.8,2.4-3.2,4.4-4.5"/>
      <path class="cls-1" d="M309,356.5c0-2.1,.2-4.2,.3-6.3,0,0,0,0-.1-.1-.4,0-.9,0-1.3,0-.1,1.8-.2,3.6-.4,5.4-.5,4.3-1.2,8.6-1.3,13,0,.4-.2,1,.4,1.1,.6,.1,.6-.6,.7-1,.4-1.6,.8-3.3,1.2-5.4,.4,2,.7,3.4,1,4.9,.1,.7,.3,1.7,1,1.6,.9-.2,.3-1.1,.2-1.8-.5-3.8-1.7-7.6-1.6-11.4"/>
      <path class="cls-1" d="M308.7,268.5c0,4,0,7.9-.3,11.9-.5,7.9-1.5,15.7-1.2,23.6,.1,3.9,.1,7.7,.2,11.5,.4-.1,.9-.2,1.4-.3v-.7c0-8.1-.4-16.1,.3-24.2,.6-6.3,1.4-12.7,1.1-19,0-1.7-.2-3.4-1.1-4.9-.5-.8-1.2-1.7-2.1-.2h0c1.2,.3,1.5,1.3,1.5,2.4"/>
      <path class="cls-1" d="M340.5,272.6c-.6-.8-.8-1.7-1.1-2.6-1.8-6.2-7.7-8.6-13.4-5.2-2.7,1.6-4.4,4.1-5.6,7-1.7,4.2-1.8,8.7-2.7,13.1-1.4,7.2-1.3,14.4-2.2,21.6,0,.2-.1,.5-.2,.8-.6-.4-.4-.9-.4-1.4,0-6.5-.7-13,0-19.5,.4-4.5-.5-9.1-.3-13.6,.1-2.8,.9-5.2,3.2-7.2,.1,.3,.2,.5,.2,.5-2.7,2.9-2.5,6.4-2.4,10,.1,6.1,.3,12.2,0,18.3,1.1-5.5,1.6-11.1,2.2-16.6,.5-4.5,2.7-8.5,5.6-12,4.6-5.5,12.2-3.3,15.2-.1,1.7,1.9,1.6,4.6,2,7h0Z"/>
      <path class="cls-1" d="M306.4,137.8c0-3.6,.1-7.2,.2-10.8,0-.4-.2-1.2,.4-1.3,.7,0,.4,.7,.4,1.2,.3,8.6,.4,17.1,.8,25.7,.3,5.8,0,11.5,0,17.3,0,.6,0,1.1,0,1.6,0,.3,0,.7-.5,.7-.4,0-.3-.5-.3-.8,0-.5,0-1.1,0-1.6,.5-6.8-.7-13.4-.9-20.2-.1-3.9,.1-7.8,.2-11.8,0,0,0,0-.1,0"/>
      <path class="cls-1" d="M292.3,355.5c-.5-.4-1-.8-1.4-1.2-.4,.3-.8,.5-1.2,.7,.8,.6,1.8,1.1,2.7,1.6,1.3,.6,2.7,1,4.1,.1-1.6,.1-3-.2-4.2-1.2"/>
      <path class="cls-1" d="M301,224.9c0,.2-.2,.5-.1,.7,3.2,5.6,2.6,11.6,1.9,17.6,2.4-1.5,3.4-4.3,2.9-8.4-.3-2.8-1-5.4-3-7.6-.4-.4-.6-.8-.6-1.3,2.9,2.2,3.8,5.3,4.3,8.7,.9,6.2-2.6,9.9-7.3,12.9-1,.6-1.9,1.2-3.2,1.5,1-.8,2-1.6,3-2.4,2.7-2.2,4-4.8,3.9-8.3-.1-5.5-.5-10.9-4.6-15.1-.2-.2-.5-.5-.3-.8,.3-.3,.6,0,.8,.2,.8,.8,1.6,1.6,2.4,2.4"/>
      <path class="cls-1" d="M282.7,256.3c-.6,1.1-1.6,1.5-2.4,1.7-1.9,.5-2.9,1.9-3.5,3.6-1.1,2.8-1.9,5.6-2.3,8.6-.1,.9,.1,1.7,.5,2.5,.9,1.7,1.8,3.3,2.7,5,.3,.7,.7,1.4,.7,2.1,0,.8,0,2.3-.6,2.3-.9,0,0-1.2-.2-1.9-.3-1.7-1.1-3.2-1.9-4.7-1-1.8-2.5-3.6-2-5.7,.7-3.8,1.3-7.6,3.7-10.8,1.3-1.6,3.2-2.3,5.4-2.8"/>
      <path class="cls-1" d="M301.5,350.7c-.2,4.5-.3,9.1-.4,13.6,0,.4-.4,1.2,.2,1.3,.5,.1,.6-.7,.7-1.2,0-.3,0-.6,0-.9,0-4.3,.2-8.6,.2-12.9-.3,0-.5,0-.8,.1"/>
      <path class="cls-1" d="M315.4,354.2c-.2-.1-.5-.2-.7-.4,.1,2.8,.3,5.7,.5,8.5,0,.6,.2,1.2,.4,1.8,.1,.4,.3,1,.8,.8,.4-.2,0-.7,0-1-.7-3.2-1-6.4-1-9.7"/>
      <path class="cls-1" d="M298.6,262.3c-7.2-3.8-5.7-4-13.3-2.8,1.5-1.5,2.2-1.6,7.7-1.1-1.1-1-2.3-1.7-3.6-2.2-.4-.2-1.1-.2-.8-.7,.2-.4,.8-.1,1.2,0,2.4,1,4.3,2.7,6.3,4.4,.9,.7,1.7,1.6,2.5,2.5"/>
      <path class="cls-1" d="M331.9,258.1c-3.3,0-6.4,.7-8.9,3.1-.3,.2-.7,.5-1,0-.4-.5,.1-.8,.5-1.1,2.8-2.3,5.9-2.8,9.4-2.1"/>
      <path class="cls-1" d="M313,238.2c.7,1,.6,2.1,.7,3.2,.3,2.6,1,5,3,6.9,.3,.3,.7,.5,.4,.9-.4,.5-.8,0-1-.4-2.6-3.1-3.4-6.7-3.1-10.7"/>
      <path class="cls-1" d="M314,248.9c-1.9-.9-2.8-2.3-2.7-4.4,.1-1.9-.3-3.9,.2-5.8,0-.4,.2-1,.8-.8,.4,.1,.2,.7,.1,1-.2,1.4-.4,2.7-.6,4.1-.2,2.3,.4,4.2,2.3,5.6,0,0-.1,.2-.2,.3"/>
      <path class="cls-1" d="M335.2,258.2c1.9,.6,3.7,1.4,5.3,2.8,.2,.2,.4,.5,.1,.8-.1,.1-.5,0-.7,0-1.7-1-3.3-2.1-5-3.1,0-.2,.2-.3,.3-.5"/>
      <path class="cls-1" d="M340.6,272.6c.4-2.2,.4-4.3,.1-6.5,0-.3-.3-.8,.2-.9,.4-.1,.6,.4,.7,.7,.6,2.4,0,4.7-.3,7.1,0,.8-.5,0-.7-.3h0Z"/>
      <path class="cls-1" d="M277.5,275.2c-.5-2.9-.3-5.6,1.5-8-.7,2.7-1.2,5.3-1.5,8"/>
      <path class="cls-1" d="M297.6,366.1c-1.8-1-3.4-2.1-4.5-3.9,1.6,1.2,3.3,2.3,4.9,3.5-.1,.2-.2,.3-.4,.5"/>
      <path class="cls-1" d="M322.6,363.9c-1,1-2,2.1-3.5,2.3-.4,0-.9,.1-1-.3-.2-.5,.4-.5,.7-.6,1.4-.3,2.5-1.1,3.8-1.5"/>
      <path class="cls-1" d="M284,208.6c-1.4-1.2-2.8-2.5-4.3-3.7,.1-.1,.2-.3,.4-.4,1.5,1.2,3,2.3,3.9,4.1"/>
      <path class="cls-1" d="M307.3,266.2c0,.3,0,.6,0,.9,0,.7,.2,1.4-.3,2,0,0-.3,0-.3-.1-.4-.7-.3-1.4,0-2.2,0-.3,.4-.4,.6-.7h0Z"/>
      <path class="cls-1" d="M237.6,206.5c-.1,.5,.2,1.2-.5,1.2s-.4-.6-.4-1c0-.5,0-1.4,.5-1.4,.7,0,.1,.9,.4,1.2"/>
      <path class="cls-1" d="M236,204.9c-.9-.7-1.1-1.4-.9-2.2,0,0,.3-.2,.3-.1,.6,.6,.6,1.3,.6,2.3"/>
      <path class="cls-1" d="M239.4,209.6c0,.3,0,.7-.3,.6-.7-.3-.6-1-.7-1.5,0-.3,0-.8,.4-.6,.5,.3,.5,1.1,.6,1.6"/>
      <path class="cls-1" d="M314.2,248.6c.9,.4,1.8,.9,2.8,1.3-1.2,.2-2.2-.3-3-1.1,0,0,.1-.2,.2-.3"/>
      <path class="cls-1" d="M318.6,261c0,.3,0,.5-.4,.5-.3,0-.3-.3-.3-.5,0-.1,.2-.4,.3-.4,.3,0,.4,.2,.4,.4"/>
      <path class="cls-1" d="M355.9,271.6c-.4-.2-.4-.4-.4-.6,0-.3,.1-.7,.5-.6,0,0,.2,.3,.1,.5,0,.3-.2,.5-.3,.7"/>
      <path class="cls-1" d="M295.9,342.7c-.5-5.5-1.2-11-1.6-16.5-.3-3.3-1.2-6.8,1.2-9.9,.6-.8,0-1.3-.8-1.4-2.9-.8-5.9-1.6-8.8-2.4-.5-.1-1-.3-1.4,.2-.5,.5,0,1,.2,1.5,.8,1.5,1.1,2.9,.9,4.7-1.2,7.5-2.3,15-3.5,22.4-.5,3-.7,6-1.7,9-.2,.5-.4,1.4-1.1,1.3-.6-.2-.3-1-.3-1.5-.1-4.9,0-9.8,.3-14.7,.4-6.5,.8-13.1,1.4-19.7,.1-1.1,.4-2,1.4-2.6,1.2-.7,.8-1.3-.3-1.6-1.5-.3-3-.6-4.6-.9-3-.5-3-.3-2.9,2.6,.4,6.2-.3,12.5-1.2,18.7-2-6.1-3.1-12.4-3.7-18.8,0-.8,0-1.6,1-2,.6-.2,1.4-.3,1.2-1.1,0-.8-.9-.8-1.4-1-3.8-1.6-7.8-1.7-11.6-2.9-2.6-.9-3-.5-2.6,2.3,.7,5,.3,9.9-1.3,14.7-.3,.7-.3,1.8-1.3,1.8-1.1,0-1.2-1.1-1.4-1.9-1-4.3-.8-8.5-.2-12.8,.1-1.5,.3-2.9,1.7-4,.9-.7,.2-1.3-.5-1.5-2.6-.8-5.1-1.4-7.7-2.1-.5-.1-.9,0-1.1,.4-.1,.4,0,.7,.4,1,1.8,1.6,2.2,3.7,2.4,5.9,.5,5.6,.2,11.3-.5,16.9-.2,1.6-1.4,3.4,.7,4.7,1.5,.9,3,1.8,4.8,1.9,.3,0,.6,0,1,0,1.3-.1,1.8,.6,1.8,1.8,0,6.1-.4,12.1-1.7,18.1-.2,.9-.6,1.9-1.7,2.1-1.2,.1-1.6-1-2-1.9-1.4-3.1-.9-6.3-.3-9.5,.3-1.3,1-1.9,2.4-1.6,.5,.1,1,.3,1.3-.3,.2-.5-.2-.9-.5-1.3-1.5-1.7-2.9-3.3-4.4-5-.4-.4-.8-1-1.4-.8-.7,.2-.8,.9-.9,1.5-.5,2.4-.9,4.8-1.3,7.2-.5,3.9-1.1,7.9-.4,11.9,.5,3.1,3,5.7,5.6,5.6,4.3-.1,6.8-2.1,7.9-6.2,.3-1.1,.5-2.2,.6-3.3,.9-10.3,1.8-20.6,2.8-31,.3-3.5,.7-6.9,1-10.4,0-1.2,.8-1.5,1.7-1.6,1-.1,.9,.9,1,1.4,0,.8,0,1.8,0,2.6-1,12.2-2,24.4-3,36.6-.2,2.8-.7,5.4-2.8,7.5-.5,.4-1.2,.8-.7,1.5,.4,.7,1.1,.3,1.7,.2,3.2-.9,6.4-1.8,9.5-2.7,1.1-.3,1.6-.8,.6-1.8-1-1.1-1.3-2.5-1.4-4-.4-4.4,0-8.8,0-13.2,0-.4-.1-1,.4-1.4,.2,.3,.2,.5,.3,.8,1.9,5.4,3.4,10.9,4.7,16.5,.2,1,.5,1.9,1.9,1.6,3.8-.8,7.5-1.5,11.2-2.8,.6-.2,1.3-.3,1.4-1,0-.8-.7-.9-1.3-1.1-1.2-.3-1.5-1-1.4-2.2,.5-4,1.4-7.8,2.9-11.5,.2-.5,.2-1.3,.9-1.3,.6,0,.6,.9,.7,1.4,1.4,4.2,1.1,8.5-.2,12.7-.3,1.1-.7,2.4,1.1,2.1,2-.3,3.8-1,5.7-1.6,1-.3,1.1-1.1,.5-1.7-1.1-1.3-1.2-2.8-1.3-4.3m-37.9-30.8c0-.3,0-.6,0-.9,0,.3,0,.6,0,.9m0,4.4c-.2,1.7-.5,3.4-.9,5,.4-1.6,.7-3.3,.9-5m-10.9,30.9c-.2,2.3-.2,4.6,.8,6.9,.1,.3,.3,.6,.4,.9-.2-.3-.3-.6-.4-.9-1.1-2.2-1.1-4.6-.8-6.9m7.1,7.8c0-.1,.1-.3,.2-.5,0,.2-.1,.3-.2,.5m.2-.6s0,0,0,0c0,0,0,0,0,0m-1.8-28.1c.8,.5,1.6,.4,2.3-.1-.7,.5-1.5,.6-2.3,.1-1-.7-1.7-1.6-1.9-2.9-1-4.5-1-9-.3-13.5-.7,4.5-.7,9,.3,13.5,.3,1.2,.9,2.2,1.9,2.9m-1.8-19.1c.2-1.6,0-1.9-2.1-2.2-.2,0-.3,0-.5,0,.1,0,.3,0,.5,0,2,.3,2.3,.6,2.1,2.2m-2.9-2.1c-.1,.2-.1,.4,0,.9,.9,3.6,1.1,7.3,1,11,0-3.7-.1-7.3-1-11-.1-.4-.1-.7,0-.9m6.4,26.6c-.3,0-.6,0-.9,0,.3,0,.6,0,.9,0,.6,0,1.1,0,1.4,.2-.3-.2-.7-.3-1.4-.2m-2.9,25.4c.2,0,.3,0,.5,0-.2,0-.3,0-.5,0-.5,0-.9,0-1.2-.3,.4,.2,.8,.3,1.2,.3m-1.9-16.9c0,0,0-.1,0-.2,0,0,0,.1,0,.2m-.2-.6c0,.1,.1,.2,.2,.4,0-.1,0-.2-.2-.4m-3.2,3.2c.2-1.5,.5-2.8,.7-4.2,0-.4,.2-.7,.3-.8-.1,.1-.2,.4-.3,.8-.2,1.4-.5,2.8-.7,4.2-.3,2.4-.7,4.9-.8,7.3,.1-2.5,.5-4.9,.8-7.3m1.4,16.1c.5,.4,1.1,.6,1.7,.6-.6,0-1.2-.3-1.7-.6m7.8-2.2c.4-.8,.7-1.8,.9-3.2,0-.5,.2-1,.3-1.4,0,.5-.2,1-.3,1.4-.2,1.4-.5,2.4-.9,3.2m4.7-43.1c-1.4,12.2-2.4,24.5-3.3,36.7,0,.4-.1,.9-.2,1.3,0-.4,.1-.9,.2-1.3,1-12.3,1.9-24.5,3.3-36.7,.2-1.4,.3-2.8,.5-4.2,0-.7-.2-1.1-.5-1.4,.4,.2,.6,.6,.5,1.4-.1,1.4-.3,2.8-.5,4.2m-.2-5.7s0,0,0,0c0,0,0,0,0,0m19.5,4.8s0,0,0,0c0,0,0,0,0,0m-2.4-.5c.7,.3,1.9,0,2.4,.5-.5-.5-1.7-.2-2.4-.5-.8-.3-.9,.2-1,.8,0-.6,.2-1.1,1-.8m-1.4,13.6c-.3,3.4-.8,6.7-1.1,10.1,0,.2,0,.4-.1,.6,0-.2,.1-.4,.1-.6,.4-3.4,.8-6.7,1.2-10.1m-1.6,11.1c-.1,0-.3,.2-.5,.2-.1,0-.2,0-.3,0,0,0,.2,0,.3,0,.2,0,.3,0,.5-.2m-5.7-26.3c-.7,5.7,.7,11.1,1.9,16.5-1.2-5.4-2.6-10.9-1.9-16.5,0-.4,0-.6-.3-.7,.2,.1,.4,.3,.3,.7m-1.5,28.9c-.3,3.5-.2,7,0,10.6,0,.4,.2,.8,.2,1.2,0-.4-.2-.8-.2-1.2-.2-3.5-.3-7,0-10.6,0-2.4,.1-4.7,.2-7.1,0-.4,0-.8,.1-1.2,0,.4,0,.8-.1,1.2-.1,2.4-.2,4.7-.2,7.1m-.5-29.9c0,.1-.1,.4-.1,.6,0,1-.2,2-.2,3,0-1,.2-2,.2-3,0-.3,0-.5,.1-.6m0,45.5c0,0-.1,0-.2,0,0,0,.1,0,.2,0m-.9-34.3c0,.6,0,1.1-.1,1.7,0,.5,0,1.1-.1,1.6,0-.5,0-1.1,.1-1.6,0-.6,0-1.1,.1-1.7m-2.2,27c0,.8,0,1.6-.1,2.4,0-.8,0-1.6,.1-2.4m-1.5,8.3s0,0,0,0c.2,.3,.6,.2,1,0-.4,.1-.8,.2-1,0m2.6-.5c.1,0,.2,0,.3-.1,.2,0,.5-.1,.8-.2-.3,0-.5,.1-.8,.2,0,0-.2,0-.3,.1m3.7-25.1c-.5,0-.7,.4-.8,.8,.1-.4,.3-.7,.8-.8,1-.1,1.1,1,1.4,1.8,1.1,3,2.1,6,3.1,9.1-.9-3-2-6.1-3.1-9.1-.3-.7-.3-1.9-1.4-1.8m7.2,21.5c0,.3,.3,.6,.8,.6-.5,0-.7-.3-.8-.6m2-.6c0-.1,0-.3,0-.4,.1-4.5,.2-8.9,.4-13.4-.1,4.5-.2,8.9-.4,13.4,0,.1,0,.3,0,.4m13.4-21.5c-.8-.7-1.6-.8-2.5-.1-.4,.3-.8,.5-1.2,.1-.4-.4-.2-.8,0-1.2,1.4-3.3,2-6.9,2.6-10.4,0-.5,0-1.2,.9-1.2,.6,0,.7,.7,.7,1.1,.2,3.7,.7,7.3,1.3,11,0,1.1-.6,1.6-1.6,.7"/>
      <path class="cls-1" d="M372.6,306.5c.2-.2,.4-.5,.2-.8-.3-.5-.8-.5-1.3-.4-2.7,.5-5.4,1-8.1,1.4-1.6,.3-1.8,1.1-1,2.4,.6,1.2,1.3,2.4,1.4,3.8,0,4,.4,8.1,0,12.1-.3,3.3-.4,6.7-1.3,10.5-1.9-4.2-3.1-8.1-3.4-12.2-.4-4.8-2-9.7,1-14.3,.7-1-.3-1.3-1.1-1.1-2.6,.5-5.1,.9-7.7,1.5-.9,.2-1.4,.8-.5,1.6,1.4,1.3,1.5,2.9,1.5,4.6-.3,11.4-.7,22.8-1,34.3-.1,3.3-.3,6.5-2.2,9.3-.5,.7-.4,1.4,.4,1.7,2.8,1,5.6,2,8.5,3,.4,.1,.8,.2,1-.2,.3-.5,.1-.8-.2-1.2-1-.9-1.6-2.1-1.8-3.4-.6-7.3-.6-14.6,.4-22.5,2.4,8.4,4,16.3,4.5,24.4,.3,4.1,.2,4,4,5.1,1.7,.5,2.4,0,2.4-1.8,.1-5.3,.3-10.6,.5-15.8,.3-10.4,.5-20.9,.9-31.3,.2-3.6,0-7.5,3.2-10.4"/>
      <path class="cls-1" d="M392.9,301.1c-4.9,.9-9.9,1.7-14.9,2.6-2.4,.4-3.6,1.8-3.6,4.2,0,4.7-.4,9.4-.7,14.1-.3,3.9-.3,7.8-.5,11.8-.6,9.9-1.3,19.8-1.6,29.7,0,2.1,.8,3.5,2.7,4.2,5.7,2.2,11.5,3.8,17.3,5.7,1.4,.5,2.1-.1,1.9-1.6-.5-3.5-.1-7.1,0-10.6,0-1,.7-2.5-.7-2.7-1.1-.2-.9,1.4-1.2,2.2-.7,1.7-1.2,3.8-3.1,4.2-4.5,.8-8.9-.7-10.1-6.3-.6-2.9,0-5.7-.1-8,0-2.7,.2-4.8,.2-6.9,0-1.3,.5-2.4,1.8-3.1,3.2-1.8,9.3-.8,11.8,1.8,.3,.4,.6,1,1.3,.7,.6-.2,.5-.8,.5-1.3,0-2.6,.2-5.2,.2-7.8,0-1.5-.6-1.8-1.9-1-3.5,2.2-7.1,1.8-10.8,.8-1.5-.4-2.4-1.5-2.5-3.1-.3-4-.4-7.9,0-11.9,.4-4.3,2.2-7.3,6.5-8.8,4-1.4,6.8-1.9,7.8,3.6,0,.5,.2,1.1,.9,1,.7,0,.6-.7,.7-1.1,0-3.5,.1-7.1,.2-10.6,0-1.3-.6-1.8-1.9-1.6"/>
      <path class="cls-1" d="M232.7,299.5c-4.1-1.1-8.2-2-12.3-3-1.3-.3-2,0-2.4,1.3-1,3.5-1.1,7-.5,10.5,.1,.6,.2,1.2,.9,1.3,.7,0,.9-.6,1.1-1,.6-1.2,1.3-2.4,2.5-3.2,1.9-1.3,4.1-.5,4.2,1.6,.2,7.7,.5,15.5,.4,23.3-.1,9-1.1,18-1.9,26.9-.2,1.7-.7,1.9-2.1,.9-1.7-1.2-2.9-2.9-4.2-4.5-.3-.4-.7-1-1.4-.7-.5,.2-.6,.7-.7,1.2-.6,4.4-1,8.8-.1,13.2,.3,1.6,1,1.9,2.5,1.5,3.9-1.1,7.8-2.1,11.7-3.2,1.8-.5,3.4-1.3,4.9-2.2,2.3-1.4,3.8-3.4,4.3-6.1,2.2-12.2,3.2-24.4,4-36.8,0-1.8,.2-3.7,.2-5.6,0-8.2-3.9-13.6-11.1-15.5m0,46c.8-9.1,1.1-18.2,.8-27.3-.1-3-.2-5.9-.3-8.9,0-.3,0-.9,.2-1,.5-.2,.7,.3,1,.7,.9,1.4,1.3,3.1,1.4,4.8,.9,6.7,.5,13.4,0,20-.4,5.6-1,11.2-1.8,16.7-.2,1.9-.8,3.7-2.2,5.4,.3-3.4,.6-6.9,.9-10.3"/>
      <path class="cls-1" d="M327.3,349c-.5-5-.8-10-.6-14.8,0-4.5,.4-8.7,1.1-12.9,0-.5-.2-1.3,.5-1.4,.6,0,.8,.7,1.1,1.1,1.1,1.9,1.4,4,1.8,6.1,.1,.6,.1,1.4,1,1.3,.8,0,.7-.9,.8-1.5,.1-1.1,.2-2.1,.3-3.2,.3-3,.8-6,.6-9.1,0-1.3-.4-2.2-2.1-1.8-4.6,1-9.3,1.9-14,2.8-1,.2-1.6,.6-1.6,1.7-.3,3.4-.2,6.8,.5,10.2,.1,.5,.2,1.2,1,1.1,.8-.1,.7-.8,.8-1.3,0-1.8,.4-3.5,1-5.1,.3-.7,.5-1.8,1.2-1.7,.8,0,.6,1.2,.7,1.9,.5,7.8,.3,15.6-1,23.3-.3,1.9-1,3.4-3.3,3.1-.5,0-1.1,.1-1.1,.8,0,.5,.3,.8,.7,1,3.9,1.4,7.8,2.8,11.7,4.2,.5,.2,1,.2,1.3-.3,.3-.5,0-.8-.4-1.1-1.3-1.2-1.8-2.6-1.9-4.3"/>
      <path class="cls-1" d="M311.6,316.5c-3.3,1-6.5,1.5-9.8,0-1.6-.6-2.2,0-2.4,1.7-.2,3.2,0,6.3,.9,9.4,1,3.8,1.1,3.9,5.1,4.2,1.2,0,2.1,.5,2.1,1.8,0,2.4,.5,4.8,0,7.2-.5,1.9-1.7,2.6-3.4,1.4-1.4-1-2.1-2.4-2.1-4.1,0-.7,0-1.6-.8-1.7-.8,0-1,.8-1.2,1.4-.7,2-1.2,4-1.2,6.2,0,.6,0,1.1,0,1.7,.1,2.8,.6,3.3,3.3,2.4,2.2-.8,4.3-.5,6.5,.2,2.7,.9,3.2,.7,3.7-2.1,.9-4.8,.8-9.6,.4-14.4-.4-4.1-1.6-5.3-5.8-5.4-2.2,0-2.5-1.2-2.5-2.9s1.4-1.8,2.6-1.8c1.9,0,2.7,1,2.7,2.8s-.2,1.3,.6,1.4c.6,.2,1-.4,1.3-.9,1.5-2,1.8-4.4,2.1-6.8,.3-1.6-.4-2.4-2.1-1.9"/>
      <path class="cls-1" d="M348.5,310.4c-.2-.4-.6-.4-1-.5-3.9,.7-7.8,1.4-11.7,2.1-.4,0-.9,.3-.8,.9,0,.5,.5,.6,1,.7,2.4,.1,3.2,1.4,3.1,3.7-.2,11.5-.6,23-2.2,34.4-.2,1.6-1,2.2-2.4,2.3-.7,0-1.4,0-2.1,0-.6,0-1.3,0-1.4,.6-.2,.7,.5,1,1,1.1,4.6,1.4,9.3,2.8,13.9,4.2,.5,.1,1,.2,1.3-.3,.2-.5-.1-.8-.5-1.1-1.5-1.2-1.9-2.9-1.9-4.6,0-4.6,0-9.3,0-14,.2-7.3,.6-14.7,1-22,0-2.4,.2-4.7,2.3-6.4,.3-.3,.6-.7,.3-1.1"/>
      <path class="cls-1" d="M263.9,379.3c0-1.1,0-3,0-3h0s-.3,.7-1.2,2.2l-1.7,3.1h-.4l-1.7-3c-.9-1.5-1.2-2.2-1.2-2.2h0s0,1.9,0,3v4.2h-.7v-8.3h.7l3.1,5.4h0l3-5.4h.7v8.3h-.7v-4.2Z"/>
      <polygon class="cls-1" points="266.6 375.2 272.1 375.2 272.1 375.8 267.3 375.8 267.3 378.8 271 378.8 271 379.4 267.3 379.4 267.3 382.8 272.1 382.8 272.1 383.5 266.6 383.5 266.6 375.2"/>
      <path class="cls-1" d="M277.8,381.2c-.8-1.1-1.1-1.5-1.1-1.5h0s-.4,.4-1.2,1.6l-1.6,2.3h-.8l3.3-4.4-3-4h.8l1.6,2.2c.7,1,1,1.3,1,1.3h0s.3-.4,.9-1.3l1.6-2.2h.8l-2.9,4,3.2,4.3h-.8l-1.7-2.3Z"/>
      <rect class="cls-1" x="281.5" y="375.2" width=".7" height="8.3"/>
      <path class="cls-1" d="M291.8,381.2c-.7,1.5-2.1,2.5-3.9,2.5s-4.3-1.7-4.3-4.3,1.8-4.3,4.3-4.3,3.2,1,3.8,2.2l-.7,.2c-.3-.6-1.1-1.8-3.1-1.8s-3.6,1.4-3.6,3.7,1.6,3.7,3.6,3.7,2.6-.8,3.2-2l.7,.2Z"/>
      <path class="cls-1" d="M297.2,375c2.4,0,4.3,1.7,4.3,4.3s-1.9,4.3-4.3,4.3-4.3-1.7-4.3-4.3,1.9-4.3,4.3-4.3m0,8c2,0,3.6-1.4,3.6-3.7s-1.6-3.7-3.6-3.7-3.6,1.4-3.6,3.7,1.6,3.7,3.6,3.7"/>
      <polygon class="cls-1" points="303.1 383.5 302.3 383.5 306.6 375.2 307.3 375.2 303.1 383.5"/>
      <path class="cls-1" d="M311,375.2c1.9,0,3,.8,3,2.5s-1.1,2.5-3,2.5h-1.7v3.3h-.7v-8.3h2.4Zm0,4.4c1.5,0,2.3-.6,2.3-1.9s-.9-1.9-2.3-1.9h-1.7v3.8h1.7Z"/>
      <path class="cls-1" d="M319.3,375c2.4,0,4.3,1.7,4.3,4.3s-1.9,4.3-4.3,4.3-4.3-1.7-4.3-4.3,1.9-4.3,4.3-4.3m0,8c2,0,3.6-1.4,3.6-3.7s-1.6-3.7-3.6-3.7-3.6,1.4-3.6,3.7,1.6,3.7,3.6,3.7"/>
      <polygon class="cls-1" points="325 375.2 325.7 375.2 325.7 382.8 330.3 382.8 330.3 383.5 325 383.5 325 375.2"/>
      <path class="cls-1" d="M332.9,381l-1.1,2.5h-.7l3.6-8.3h.7l3.6,8.3h-.7l-1.1-2.5h-4.4Zm3.2-2.9c-.3-.8-.9-2.1-.9-2.2h0s-.6,1.4-.9,2.1l-1,2.3h3.9l-1-2.3Z"/>
      <path class="cls-1" d="M341.1,376.2h0s0,1,0,2v5.3h-.7v-8.3h.7l5.3,7.2h0s0-1,0-1.9v-5.3h.7v8.3h-.7l-5.3-7.3Z"/>
      <path class="cls-1" d="M351.7,375.2c2.6,0,4.4,1.6,4.4,4.2s-1.8,4.1-4.4,4.1h-2.8v-8.3h2.7Zm0,7.7c2,0,3.7-1.2,3.7-3.5s-1.6-3.6-3.8-3.6h-2v7h2.1Z"/>
      <path class="cls-1" d="M254.9,379.4h-37.2v1.2h37.3c0-.4,0-.8,0-1.2"/>
      <path class="cls-1" d="M356.9,379.4c0,.4,0,.8,0,1.2h34.9v-1.2h-34.9Z"/>
    </g>
  </g>
</svg>